<?xml version="1.0" encoding="utf-8"?>
<!-- Generator: Adobe Illustrator 21.0.0, SVG Export Plug-In . SVG Version: 6.00 Build 0)  -->
<svg version="1.1" id="图层_1" xmlns="http://www.w3.org/2000/svg" xmlns:xlink="http://www.w3.org/1999/xlink" x="0px" y="0px"
	 viewBox="0 0 89 61" style="enable-background:new 0 0 89 61;" xml:space="preserve">
<style type="text/css">
	.st0{clip-path:url(#SVGID_2_);fill-rule:evenodd;clip-rule:evenodd;fill:#B1B1B2;}
	.st1{clip-path:url(#SVGID_2_);fill:none;stroke:#B1B1B2;stroke-miterlimit:10;}
</style>
<g>
	<defs>
		<rect id="SVGID_1_" x="-968" y="-964" width="1920" height="1589.6"/>
	</defs>
	<clipPath id="SVGID_2_">
		<use xlink:href="#SVGID_1_"  style="overflow:visible;"/>
	</clipPath>
	<path class="st0" d="M-581.2,8.1l-30.8,12.5l-30.8-12.5L-612-3.8L-581.2,8.1z M-645.3,13.3l30.7,12.8v34.7c-2.4-1.1-5-2.2-7.6-3.4
		c-2.3-1-4.8-2.1-7.6-3.3c-2.8-1.2-5.7-2.4-8.6-3.7c-1-0.5-2-1.1-2.8-1.9s-1.6-1.6-2.2-2.5c-0.6-0.9-1.1-1.9-1.4-2.9
		c-0.3-1-0.5-2-0.5-3L-645.3,13.3L-645.3,13.3z M-579.3,13.3V40c0,1.2-0.2,2.4-0.7,3.6c-0.5,1.1-1.1,2.2-1.8,3.2
		c-0.7,1-1.5,1.9-2.4,2.7c-0.9,0.8-1.8,1.4-2.6,1.8c-2.5,1-5.1,2.1-7.8,3.2c-2.7,1.1-5.2,2.2-7.5,3.1c-2.7,1.1-5.3,2.2-7.9,3.2V26.1
		L-579.3,13.3z"/>
	<path class="st0" d="M-309,14.2h36.9v0.8c0,9.2,0,18.4,0,27.6c0,3.1-1.7,4.8-4.8,4.8c-0.8,0-1.6,0-2.3,0c0,3.3,0,6.5,0,9.7
		c0,2-1.7,3.6-3.7,3.7c-2.1,0.1-4-1.4-4.1-3.4c-0.1-3.3,0-6.6,0-9.9h-7.1c0,1.3,0,2.6,0,3.9c0,1.9,0,3.8,0,5.8
		c-0.1,1.9-1.5,3.4-3.4,3.6c-1.9,0.2-3.7-0.9-4.3-2.7c-0.1-0.4-0.2-0.8-0.2-1.3c0-2.7,0-5.5,0-8.2c0-0.4,0.1-0.7,0.1-1.2
		c-0.9,0-1.8,0-2.7,0c-2.7,0-4.4-1.7-4.4-4.4c0-9.3,0-18.7,0-28V14.2z M-272.1,11.5h-37c0.3-6.4,4-10.4,9.4-13.2
		c-0.5-0.8-1.1-1.6-1.6-2.5c-0.4-0.6-0.8-1.2-1.2-1.8c-0.3-0.4-0.7-0.9-0.1-1.3c0.7-0.4,0.9,0.2,1.2,0.6c0.7,1,1.4,2.1,2.1,3.1
		c0.8,1.3,0.8,1.3,2.3,0.8c4.6-1.3,9.2-1.3,13.8,0.3c0.2,0.1,0.3,0.1,0.5,0.2c0.9-1.4,1.9-2.8,2.8-4.2c0.1-0.2,0.2-0.3,0.3-0.5
		c0.3-0.4,0.6-0.6,1-0.3c0.4,0.3,0.3,0.6,0.1,1c-0.8,1.2-1.6,2.4-2.4,3.7c-0.2,0.3-0.4,0.5-0.6,0.9C-276.1,1.1-272.4,5.1-272.1,11.5
		 M-280.7,4.3c0-1.1-0.9-2-2-2c-1.1,0-2,0.9-2,2c0,1.1,0.8,2,1.9,2C-281.6,6.3-280.7,5.4-280.7,4.3 M-296.5,4.3c0-1.1-0.9-2-2-1.9
		c-1.1,0-2,0.9-1.9,2c0,1.1,0.9,1.9,2,1.9C-297.4,6.2-296.5,5.4-296.5,4.3 M-261.6,26.6c0,2.7,0,5.5,0,8.2c0,2.4-1.7,4.2-3.9,4.2
		c-2.3,0-3.9-1.8-4-4.2c0-5.6,0-11.1,0-16.7c0-2.1,1.5-3.7,3.5-3.9c2.1-0.2,3.9,1.1,4.3,3.1c0.1,0.4,0.1,0.8,0.1,1.2
		C-261.6,21.2-261.6,23.9-261.6,26.6 M-311.7,26.6c0,2.9,0,5.8,0,8.6c0,1.8-1.3,3.2-3,3.7c-1.7,0.4-3.5-0.3-4.3-1.8
		c-0.3-0.6-0.6-1.4-0.6-2.1c0-5.7,0-11.3,0-17c0-2.2,1.8-3.9,4-3.9c2.2,0,3.9,1.7,3.9,3.9C-311.7,21-311.7,23.8-311.7,26.6
		L-311.7,26.6z"/>
	<path class="st0" d="M38.5,50.4c-3,2.5-6.7,3.8-11.1,3.8c-3.6,0-6.9-0.9-10-2.8c-3.1-1.9-5.3-4.6-6.8-8.4
		c-1.5-3.7-2.2-8.1-2.2-13.1c0-3.9,0.6-7.7,1.9-11.3c1.2-3.7,3.4-6.6,6.4-8.8c3-2.2,6.8-3.2,11.4-3.2c3.9,0,7.2,1,9.8,2.9
		c2.6,2,4.6,5.1,6,9.4l7.7-1.8c-1.6-5.4-4.4-9.6-8.4-12.7c-4-3-9-4.5-14.9-4.5c-5.2,0-10,1.2-14.3,3.6c-4.3,2.4-7.7,5.8-10,10.4
		c-2.3,4.6-3.5,9.9-3.5,16.1c0,5.6,1,10.9,3.1,15.8c2.1,4.9,5.1,8.7,9.1,11.2c4,2.6,9.1,3.9,15.5,3.9c6.1,0,11.3-1.7,15.6-5
		c4.3-3.4,7.2-8.3,8.8-14.7l-7.8-2C43.6,44.1,41.5,47.9,38.5,50.4"/>
	<rect x="46.7" y="27.9" class="st0" width="19.4" height="3.6"/>
	<path class="st0" d="M54.6,20.5h3.6v18.3h-3.6V20.5z M68.5,27.8H88v3.6H68.5V27.8z"/>
	<rect x="76.5" y="20.4" class="st0" width="3.6" height="18.3"/>
	<path class="st0" d="M320.5,30.5c3.7,5.1,9.4,5.5,11,5.5h0.2c1.6,0,7.3-0.4,11-5.5c1.5-2,2.9-5.6,3.6-7.3c2.2-2.6,3-5.1,2.5-7.4
		c-0.3-1.2-0.9-2.2-1.8-2.9c0.3-2.8,0.3-5.9-0.7-8.7c-1.4-3.9-4-6.7-7.7-8.2c-2.9-1.2-5.6-1.3-6.7-1.3h-0.2c-0.1,0-0.2,0-0.2,0
		c-0.1,0-0.1,0-0.2,0h-0.2c-1,0-3.8,0.1-6.7,1.3c-3.7,1.5-6.2,4.3-7.7,8.2c-1,2.8-1,5.9-0.7,8.7c-0.9,0.7-1.5,1.8-1.8,2.9
		c-0.6,2.3,0.3,4.8,2.5,7.4C317.6,24.9,319.1,28.5,320.5,30.5 M319.3,15.8c1.2-0.4,2,1.3,2.3,2.1c-0.3-1-1.2-4.1-1.4-7.3
		c1.1-1.5,3.2-4,5.8-4.4c0,0,5.5,6.6,16.9,6.5c-0.3,2.4-0.9,4.5-1.2,5.3c0.3-0.8,1.1-2.6,2.3-2.1c0.7,0.3,1.9,1.7-1.3,5.2
		c0,0-1.8,5-3.3,7c-2.2,3-5.6,3.8-7.7,3.8c0,0,0,0-0.1,0c0,0-0.1,0-0.1,0c-2.1,0-5.5-0.8-7.7-3.8c-1.5-2-3.3-7-3.3-7
		C317.4,17.6,318.6,16.1,319.3,15.8"/>
	<path class="st0" d="M335.8,40.2l-1.9-2.1h-2.3h-2.3l-1.9,2.1c0,0,1.1,2.3,2.9,3.2l-2.9,7.3c0,0,2.1,3,4.2,3.8
		c2.1-0.8,4.2-3.8,4.2-3.8l-2.9-7.3C334.7,42.5,335.8,40.2,335.8,40.2"/>
	<path class="st0" d="M361.6,45.7c-3.5-4.5-19-7.6-19-7.6c2.1,11.8-10.9,19-10.9,19s-13-7.2-10.9-19c0,0-15.5,3.2-19,7.6
		c-3.7,4.7-3.3,9.4-3,11.3c0.3,1.9,0.8,3.1,3.9,3.8h58c3.2-0.6,3.6-1.8,3.9-3.8C364.8,55.1,365.2,50.4,361.6,45.7"/>
	<path class="st0" d="M672.5,44.3H609c-3,0-5.5-2.5-5.5-5.5V0.1c0-3,2.5-5.5,5.5-5.5h63.4c3,0,5.5,2.5,5.5,5.5v38.6
		C678,41.8,675.5,44.3,672.5,44.3 M640.4,40.1c1.5,0,2.8-1.2,2.8-2.8c0-1.5-1.2-2.8-2.8-2.8c-1.5,0-2.8,1.2-2.8,2.8
		C637.6,38.9,638.9,40.1,640.4,40.1 M672.5,0.1H609v30.3h63.4V0.1z M636.6,52.4h8.3v4.3l8.1,1.6v2.6h-24.6V58l8.3-1.4V52.4z"/>
	<line class="st1" x1="-712.4" y1="-90.6" x2="750.5" y2="-90.6"/>
</g>
</svg>
