<?xml version="1.0" encoding="utf-8"?>
<!-- Generator: Adobe Illustrator 21.0.0, SVG Export Plug-In . SVG Version: 6.00 Build 0)  -->
<svg version="1.1" id="图层_1" xmlns="http://www.w3.org/2000/svg" xmlns:xlink="http://www.w3.org/1999/xlink" x="0px" y="0px"
	 viewBox="0 0 150 95" style="enable-background:new 0 0 150 95;" xml:space="preserve">
<style type="text/css">
	.st0{fill-rule:evenodd;clip-rule:evenodd;fill:#D3D4D4;}
	.st1{fill-rule:evenodd;clip-rule:evenodd;fill:#808080;}
	.st2{fill-rule:evenodd;clip-rule:evenodd;fill:#FFFFFF;}
</style>
<path class="st0" d="M56.4,47.2c0,9.4,8.2,17.1,18.3,17.1c10.1,0,18.3-7.7,18.3-17.1V47c-1.9,1.9-4.6,3-7.6,3
	c-5.9,0-10.7-4.5-10.7-10c0-4,2.5-7.4,6.1-9c-1.9-0.6-4-0.9-6.1-0.9C64.6,30.1,56.4,37.8,56.4,47.2 M144,37.5
	C132.6,24,104.9,1.5,74.7,1.5c-30.2,0-58,22.4-69.3,35.9c-2.6,3-4,6.4-4,9.7c0.1,3.3,1.5,6.7,4,9.7c11.4,13.5,39.1,35.9,69.3,35.9
	s57.9-22.4,69.3-35.9c2.6-3.1,4-6.4,4.1-9.7C148,43.8,146.7,40.5,144,37.5 M74.8,75.7c-16.9,0-30.6-12.8-30.6-28.5
	c0-15.8,13.7-28.5,30.6-28.5c16.9,0,30.6,12.8,30.6,28.5C105.4,62.9,91.7,75.7,74.8,75.7"/>
<path class="st0" d="M352.3,39.3l-43.8,17.9l-43.9-17.9l43.8-17L352.3,39.3z M260.9,46.7L304.7,65v49.5c-3.5-1.5-7.1-3.1-10.8-4.8
	c-3.2-1.4-6.8-3-10.9-4.7c-4-1.7-8.1-3.5-12.2-5.2c-1.5-0.7-2.8-1.6-4-2.7c-1.2-1.1-2.2-2.3-3.1-3.6c-0.9-1.3-1.5-2.7-2-4.2
	c-0.5-1.5-0.7-2.9-0.7-4.3L260.9,46.7L260.9,46.7z M355.1,46.7v38c0,1.7-0.3,3.4-1,5.1c-0.7,1.6-1.5,3.2-2.6,4.6
	c-1,1.4-2.2,2.7-3.5,3.8c-1.3,1.1-2.5,2-3.7,2.6c-3.5,1.5-7.3,3-11.1,4.6c-3.9,1.6-7.5,3.1-10.7,4.4c-3.8,1.6-7.6,3.1-11.2,4.6V65
	L355.1,46.7z"/>
<path class="st0" d="M348.8,291c0,0-6.6-10.2-9.8-12.5c0,0,2.9-5.5-0.4-9.5c0,0,3.1-5.9,3.8-13.2C342.2,255.8,354.1,268.8,348.8,291
	 M323.4,266.6c-12.7-7.7-27.4-8.6-27.4-8.6c-0.1-2.5-3.6-5.1-3.6-5.1c1.5-5.5,10.8-17.5,10.8-17.5c23.7,0.5,35,14.8,35,14.8
	c-0.6,9.9-3.7,15.2-3.7,15.2C329,262.1,323.4,266.6,323.4,266.6 M276.8,259c0,0-9.2,1.6-17.3,5.8c0,0,8.2-24.2,36.5-28.8
	c0,0-4.3,6-8.4,15.5C287.5,251.4,278.9,250.5,276.8,259 M283.2,269.9c-1.2,12.9,3.7,25,3.7,25c-4,3-4,9-4,9c-10,1-19.9-1.1-19.9-1.1
	c-9.6-15.1-5.6-31.2-5.6-31.2c7.7-5.4,19.6-7.8,19.6-7.8C278.2,268.8,283.2,269.9,283.2,269.9 M285.5,308.4c2.8,5.6,11,3.6,11,3.6
	c2.1,3.1,12.6,12.6,12.6,12.6c-29.3,2.6-42-16.2-42-16.2C274.9,310,285.5,308.4,285.5,308.4 M324.7,281.9c0,0-6.7,9.8-22.1,16.7
	c0,0-3-6.8-11-5.5c0,0-3.2-6-3.3-22.9c0,0,6.8,0.4,8-7.4c0,0,13.5,1.2,24.3,7.4C320.6,270.2,318,278.1,324.7,281.9 M300.6,309.1
	c0,0,2-0.8,2.8-5.6c0,0,16.3-5.5,26.3-20.2c0,0,3.2,0.2,5.4-1.5c0,0,7.6,6.8,11.2,15.7c0,0-7.1,19.4-30,25.7
	C316.2,323.3,305.9,316.8,300.6,309.1"/>
<path class="st1" d="M705.7,95c-6.2,0-17.9-9.8-17.9-18.6v-18l0.7,0c0,0,4.5-0.1,9.1-1.9c4.6-1.9,7.7-4.1,7.7-4.1l0.4-0.3l0.4,0.3
	c0,0,3,2.2,7.7,4.1c4.6,1.9,9.1,1.9,9.1,1.9l0.7,0l0,18C723.6,85.2,711.9,95,705.7,95 M705,54.2c-1.2,0.7-3.6,2.2-6.9,3.5
	c-3,1.2-5.9,1.7-7.8,1.9l-1.1,0.1v16.6c0,8.2,11.6,17.2,16.5,17.2c4.9,0,16.5-9,16.5-17.2V59.8l-1.1-0.1c-1.9-0.2-4.8-0.7-7.8-1.9
	c-3.1-1.3-5.5-2.6-6.9-3.5l-0.7-0.4L705,54.2z M698.2,76.6l0.9-1l5.2,4.4l9.9-11.3l1.1,0.9l-10.8,12.4L698.2,76.6z"/>
<path class="st2" d="M704.7,93c-6.2,0-17.9-9.8-17.9-18.6v-18l0.7,0c0,0,4.5-0.1,9.1-1.9c4.6-1.9,7.7-4.1,7.7-4.1l0.4-0.3l0.4,0.3
	c0,0,3,2.2,7.7,4.1c4.6,1.9,9.1,1.9,9.1,1.9l0.7,0l0,18C722.6,83.2,710.9,93,704.7,93 M704,52.2c-1.2,0.7-3.6,2.2-6.9,3.5
	c-3,1.2-5.9,1.7-7.8,1.9l-1.1,0.1v16.6c0,8.2,11.6,17.2,16.5,17.2c4.9,0,16.5-9,16.5-17.2V57.8l-1.1-0.1c-1.9-0.2-4.8-0.7-7.8-1.9
	c-3.1-1.3-5.5-2.6-6.9-3.5l-0.7-0.4L704,52.2z M697.2,74.6l0.9-1l5.2,4.4l9.9-11.3l1.1,0.9l-10.8,12.4L697.2,74.6z"/>
</svg>
