<?xml version="1.0" encoding="utf-8"?>
<!-- Generator: Adobe Illustrator 21.0.0, SVG Export Plug-In . SVG Version: 6.00 Build 0)  -->
<svg version="1.1" id="图层_1" xmlns="http://www.w3.org/2000/svg" xmlns:xlink="http://www.w3.org/1999/xlink" x="0px" y="0px"
	 viewBox="0 0 80 91" style="enable-background:new 0 0 80 91;" xml:space="preserve">
<style type="text/css">
	.st0{fill-rule:evenodd;clip-rule:evenodd;fill:#858585;}
</style>
<path class="st0" d="M74.9,59.8H64c-1.1,0-2.1-0.8-2.3-1.9L60,52.5h-5.9c-0.2,0-0.4,0-0.6-0.1c-8.6-0.8-15.3-8.2-15.3-16.9
	c0-8.7,6.7-16.1,15.3-16.9c0.2-0.1,0.4-0.1,0.6-0.1h5.6l2.1-4.6c0.4-0.8,1.2-1.4,2.2-1.4h10.9c1.3,0,2.4,1.1,2.4,2.4v42.6
	C77.3,58.8,76.2,59.8,74.9,59.8 M65.8,55.1h6.7V17.2h-7l-2.1,4.6c-0.4,0.8-1.2,1.4-2.2,1.4h-6.7c-0.1,0-0.2,0-0.2,0
	C48,23.8,43,29.1,43,35.5c0,6.4,5,11.7,11.3,12.2c0.1,0,0.2,0,0.2,0h7.2c1.1,0,2,0.7,2.3,1.7L65.8,55.1"/>
<path class="st0" d="M64,59.6c-0.8,0-1.5-0.4-1.9-1v7.6c0,1.7-1.4,3.1-3.1,3.1H46.2v14.2l-27.5-6V58.6L17.8,58
	c-5.2-4.1-8.7-9.6-10.1-15.8h32.2c-0.6-1.4-1-2.9-1.2-4.4H7c0-0.7-0.1-1.4-0.1-2.1c0-0.8,0.1-1.5,0.1-2.2h31.6
	c0.2-1.5,0.6-3,1.1-4.4h-32c3-12.5,14.2-21.8,27.6-21.8c9.3,0,17.5,4.5,22.7,11.4h1.9l1.4-3c-6-7.8-15.4-12.8-25.9-12.8
	C17.2,2.9,2.5,17.6,2.5,35.6c0,9.8,4.3,18.8,11.7,25.1v20.2l36.3,8V73.7H59c4.1,0,7.5-3.4,7.5-7.5v-6.5L64,59.6L64,59.6"/>
</svg>
