<?xml version="1.0" encoding="utf-8"?>
<!-- Generator: Adobe Illustrator 21.0.0, SVG Export Plug-In . SVG Version: 6.00 Build 0)  -->
<svg version="1.1" id="图层_1" xmlns="http://www.w3.org/2000/svg" xmlns:xlink="http://www.w3.org/1999/xlink" x="0px" y="0px"
	 viewBox="0 0 17 14" style="enable-background:new 0 0 17 14;" xml:space="preserve">
<style type="text/css">
	.st0{fill-rule:evenodd;clip-rule:evenodd;fill:#FFFFFF;}
	.st1{fill:#FFFFFF;}
</style>
<path class="st0" d="M173.8,216.9c-5.5,0-10-4.5-10-10c0-5.5,4.5-10,10-10c5.5,0,10,4.5,10,10C183.9,212.4,179.4,216.9,173.8,216.9
	 M173.8,198.3c-4.7,0-8.5,3.8-8.5,8.5s3.8,8.5,8.5,8.5c4.7,0,8.5-3.8,8.5-8.5S178.6,198.3,173.8,198.3 M178.7,208.2h-5.1
	c-0.1,0-0.3-0.1-0.4-0.2c-0.1-0.1-0.2-0.2-0.2-0.4v-6.1c0-0.3,0.2-0.5,0.5-0.5h0.5c0.3,0,0.5,0.2,0.5,0.5v5.1h4.1
	c0.3,0,0.5,0.2,0.5,0.5v0.5C179.2,207.9,179,208.2,178.7,208.2"/>
<path class="st0" d="M274.6,280.9l-4.7,2.3v-2.3c0-1.3-1-2.3-2.3-2.3h-16.3c-1.3,0-2.3,1-2.3,2.3v14c0,1.3,1,2.3,2.3,2.3h16.3
	c1.3,0,2.3-1,2.3-2.3v-2.3l4.7,2.3c1.3,0,2.3-1,2.3-2.3v-9.3C276.9,281.9,275.8,280.9,274.6,280.9 M267.6,294.9h-16.3v-14h16.3
	V294.9z M274.6,292.3l-3.6-1.9c-0.4-0.1-0.7-0.2-1.1-0.2v-4.7c0.3,0,0.7-0.1,1.1-0.2l3.6-1.9V292.3z"/>
<path class="st0" d="M11.1,0.8H3.7C2.2,0.8,1,2.1,1,3.6v6.3c0,1.5,1.2,2.8,2.7,2.8h7.9v-0.5H3.7c-1.3,0-2.3-1-2.3-2.3V3.6
	c0-1.3,1-2.3,2.3-2.3h7.4c1.3,0,2.3,1,2.3,2.3V9h0.5V3.6C13.9,2.1,12.7,0.8,11.1,0.8 M15.9,10.6l-1-1c-0.1-0.1-0.1-0.2,0-0.3
	c0,0,0.1-0.1,0.2-0.1c0.1,0,0.1,0,0.2,0.1l1.5,1.5c0,0,0,0,0,0c0,0,0,0,0,0c0,0,0,0.1,0,0.1c0,0,0,0,0,0c0,0,0,0.1,0,0.1v0
	c0,0,0,0.1-0.1,0.1l-1.5,1.4c0,0-0.1,0.1-0.2,0.1c-0.1,0-0.1,0-0.1-0.1c-0.1-0.1-0.1-0.2,0-0.3l1.1-1.1c-3.1-0.2-3.4,1.6-3.4,1.7
	c0,0.1-0.1,0.2-0.2,0.2c-0.1,0-0.2-0.1-0.2-0.3C12.1,12.6,12.5,10.5,15.9,10.6z"/>
<path class="st1" d="M12.3,13.1C12.3,13.1,12.3,13.1,12.3,13.1c-0.3,0-0.4-0.2-0.4-0.4c0-0.1,0.3-2.2,3.5-2.2l-0.8-0.8
	c-0.1-0.1-0.1-0.4,0-0.5c0.1-0.1,0.2-0.1,0.3-0.1c0.1,0,0.2,0,0.3,0.1l1.4,1.5l0,0l0,0c0,0,0.1,0.1,0.1,0.2c0,0,0,0,0,0
	c0,0.1,0,0.1,0,0.2v0l0,0c0,0,0,0.1-0.1,0.1l-1.5,1.4c-0.1,0.1-0.2,0.1-0.2,0.1h0c-0.1,0-0.2-0.1-0.3-0.1c-0.1-0.2-0.1-0.4,0-0.5
	l0.9-0.8c-2.6,0-2.9,1.5-2.9,1.6C12.7,13,12.5,13.1,12.3,13.1 M15.5,10.8c-3,0-3.2,1.9-3.2,2c0,0,0,0.1,0.1,0.1v0c0,0,0.1,0,0.1-0.1
	c0-0.1,0.3-1.8,3.1-1.8c0.1,0,0.3,0,0.4,0l0.3,0l-1.4,1.3c0,0,0,0.1,0,0.1c0,0,0,0,0,0c0,0,0,0,0,0l1.5-1.4c0,0,0,0,0,0l0,0
	c0,0,0,0,0,0l0,0c0,0,0,0,0,0l0,0l0,0l-1.4-1.4c0,0,0,0,0,0c0,0,0,0,0,0c0,0,0,0.1,0,0.1l1.3,1.3l-0.4,0
	C15.8,10.8,15.6,10.8,15.5,10.8 M11.7,12.8h-8c-1.6,0-2.9-1.3-2.9-2.9V3.6c0-1.6,1.3-2.9,2.9-2.9h7.4C12.7,0.6,14,2,14,3.6v5.6h-0.8
	V3.6c0-1.2-1-2.2-2.1-2.2H3.7c-1.2,0-2.1,1-2.1,2.2v6.3c0,1.2,0.9,2.2,2.1,2.2h8V12.8z M3.7,1C2.3,1,1.2,2.1,1.2,3.6v6.3
	c0,1.4,1.2,2.6,2.6,2.6h7.7v-0.2H3.7c-1.3,0-2.4-1.1-2.4-2.5V3.6c0-1.4,1.1-2.5,2.4-2.5h7.4c1.3,0,2.4,1.1,2.4,2.5v5.3h0.2V3.6
	c0-1.4-1.2-2.6-2.6-2.6H3.7z"/>
<path class="st1" d="M6,4.2v3.1h0.7v0.6H6v1H5.3v-1H3.1V7.2l2.3-3H6z M3.7,7.3h1.7V5.1h0L3.7,7.3z"/>
<polygon class="st1" points="11.2,4.2 9.1,6.2 11.5,8.8 10.5,8.8 8.6,6.7 8,7.2 8,8.8 7.3,8.8 7.3,4.2 8,4.2 8,6.4 10.3,4.2 "/>
</svg>
