<?xml version="1.0" encoding="utf-8"?>
<!-- Generator: Adobe Illustrator 21.0.0, SVG Export Plug-In . SVG Version: 6.00 Build 0)  -->
<svg version="1.1" id="图层_1" xmlns="http://www.w3.org/2000/svg" xmlns:xlink="http://www.w3.org/1999/xlink" x="0px" y="0px"
	 viewBox="0 0 57 50" style="enable-background:new 0 0 57 50;" xml:space="preserve">
<style type="text/css">
	.st0{clip-path:url(#SVGID_2_);fill-rule:evenodd;clip-rule:evenodd;fill:#858585;}
	.st1{fill-rule:evenodd;clip-rule:evenodd;fill:#B1B1B2;}
</style>
<g>
	<defs>
		<rect id="SVGID_1_" x="-1436.1" y="-951.1" width="1920" height="1627.8"/>
	</defs>
	<clipPath id="SVGID_2_">
		<use xlink:href="#SVGID_1_"  style="overflow:visible;"/>
	</clipPath>
	<path class="st0" d="M-874.9-149.4h-4.3l-10.1,13.9v2.7h10.4v4.4h4v-4.4h2.6v-3.1h-2.6V-149.4z M-878.8-142.9v7h-6.3
		c0.3-0.5,1.1-1.6,2.6-3.5c0.1-0.2,0.2-0.4,0.5-0.7c0.1-0.1,0.1-0.2,0.2-0.3c0.6-0.9,1.4-1.9,2.2-3l0.1-0.2c0-0.1,0-0.1,0.1-0.2
		c0.1-0.3,0.2-0.5,0.3-0.6c0.2-0.3,0.3-0.4,0.3-0.5l0.1-0.2C-878.8-144.6-878.8-143.9-878.8-142.9 M-843.1-167.2h-53.2
		c-2.9,0-5.3,2.4-5.3,5.3v46.1c0,2.9,2.4,5.3,5.3,5.3h53.2c2.9,0,5.3-2.4,5.3-5.3v-46.1C-837.8-164.8-840.2-167.2-843.1-167.2
		 M-894.6-163.6h49.7c2,0,3.5,1.6,3.5,3.5v42.6c0,2-1.6,3.5-3.5,3.5h-49.7c-2,0-3.5-1.6-3.5-3.5v-42.6
		C-898.1-162-896.5-163.6-894.6-163.6 M-850.9-149.3h-4.9l-8.3,10.1v-10.2h-4v21.3h4v-5.7l3.1-3.6l5.7,9.3h5l-8.3-12.2L-850.9-149.3
		z"/>
	<path class="st0" d="M-329.8-108c-4.5,0-10.9-3.4-16.3-8.6c-6-5.8-9.5-12.4-9.5-18.1v-25.9l1.8,0c0.1,0,6.1-0.1,12.4-2.7
		c6.3-2.6,10.5-5.5,10.5-5.6l1.1-0.8l1.1,0.8c0,0,4.1,3,10.5,5.6c6.3,2.5,12.3,2.7,12.4,2.7l1.8,0l0,25.9c0,5.7-3.5,12.3-9.5,18.1
		C-318.9-111.4-325.3-108-329.8-108 M-351.9-134.7c0,10.8,15.7,23.1,22.1,23.1c6.4,0,22.1-12.3,22.1-23.1v-22.4l-0.8-0.1
		c-2.7-0.3-6.8-1-11.1-2.7c-4.4-1.8-7.7-3.7-9.8-5l-0.5-0.3l-0.5,0.3c-1.7,1.1-5.1,3.1-9.8,5c-4.3,1.7-8.4,2.4-11.1,2.7l-0.8,0.1
		L-351.9-134.7L-351.9-134.7z M-341.3-134.4l2.4-2.8l7.2,6.1l13.8-15.8l2.8,2.4l-16.1,18.5L-341.3-134.4z"/>
	<path class="st0" d="M-329.8-108.8c-8.7,0-24.9-13.7-24.9-25.9v-25l1,0c0,0,6.3-0.1,12.7-2.7c6.4-2.6,10.7-5.6,10.7-5.7l0.6-0.4
		l0.6,0.4c0,0,4.2,3,10.7,5.7c6.4,2.6,12.7,2.7,12.7,2.7l0.9,0l0,25C-304.9-122.5-321.1-108.8-329.8-108.8 M-330.7-165.6
		c-1.6,1-5,3-9.6,4.9c-4.2,1.7-8.2,2.4-10.9,2.7l-1.5,0.2v23.1c0,11.4,16.1,23.9,23,23.9c6.8,0,23-12.5,23-23.9v-23.1l-1.5-0.2
		c-2.7-0.3-6.7-1-10.9-2.7c-4.3-1.7-7.6-3.6-9.6-4.9l-0.9-0.6L-330.7-165.6z M-340.1-134.5l1.2-1.5l7.2,6.1l13.8-15.8l1.5,1.3
		l-15,17.2L-340.1-134.5z"/>
	<path class="st0" d="M-868.9-22.7c-17.6,0-31.9,14.3-31.9,31.9c0,17.6,14.3,31.9,31.9,31.9c17.6,0,31.9-14.3,31.9-31.9
		C-837-8.4-851.3-22.7-868.9-22.7 M-868.9,33.4c-13.3,0-24.1-10.8-24.1-24.1s10.8-24.1,24.1-24.1c13.3,0,24.1,10.8,24.1,24.1
		S-855.6,33.4-868.9,33.4"/>
	<path class="st0" d="M-868.9-11.4c-11.4,0-20.6,9.2-20.6,20.6c0,11.4,9.2,20.6,20.6,20.6c11.4,0,20.6-9.2,20.6-20.6
		C-848.3-2.1-857.6-11.4-868.9-11.4 M-868.9,2.4c-6,0-10.8-2.4-10.8-5.4c0-3,4.8-5.4,10.8-5.4c6,0,10.8,2.4,10.8,5.4
		C-858.1-0.1-862.9,2.4-868.9,2.4"/>
	<path class="st0" d="M-332.1,191.5l-14-17.3c0,0-0.7-6.4,5.6-3.7c3.7,1.6,5,5,5,5l0.1-26.3c0,0,3.8-5.5,7.1,0l0.1,16.6
		c0,0,4.1-5.5,8.9,0.4c0,0,3.6-6,8.7,0.3c0,0,3.6-6.9,7.2,0.6V188c0,0-0.2,1.6-3.1,3.5H-332.1z"/>
	<path class="st0" d="M-332,135.8c-7.8,0-14.2,6.2-14.2,14c0,5.2,2.9,9.6,7.1,12v-4.3c-2.2-1.9-3.6-4.7-3.6-7.8
		c0-5.8,4.8-10.4,10.6-10.4c5.9,0,10.6,4.7,10.6,10.4c0,3-1.4,5.8-3.5,7.7v4.4c4.2-2.4,7.1-6.9,7.1-12
		C-317.8,142.1-324.2,135.8-332,135.8"/>
</g>
<path class="st1" d="M52.3,37.9H4.7c-2.3,0-4.1-1.9-4.1-4.1v-29c0-2.3,1.9-4.1,4.1-4.1h47.6c2.3,0,4.1,1.9,4.1,4.1v29
	C56.4,36.1,54.6,37.9,52.3,37.9 M28.2,34.8c1.1,0,2.1-0.9,2.1-2.1c0-1.1-0.9-2.1-2.1-2.1c-1.1,0-2.1,0.9-2.1,2.1
	C26.2,33.9,27.1,34.8,28.2,34.8 M52.3,4.8H4.7v22.8h47.6V4.8z M25.4,44h6.2v3.2l6.1,1.2v1.9H19.2v-2.1l6.2-1V44z"/>
</svg>
