<?xml version="1.0" encoding="utf-8"?>
<!-- Generator: Adobe Illustrator 21.0.0, SVG Export Plug-In . SVG Version: 6.00 Build 0)  -->
<svg version="1.1" id="图层_1" xmlns="http://www.w3.org/2000/svg" xmlns:xlink="http://www.w3.org/1999/xlink" x="0px" y="0px"
	 viewBox="0 0 74 74" style="enable-background:new 0 0 74 74;" xml:space="preserve">
<style type="text/css">
	.st0{fill-rule:evenodd;clip-rule:evenodd;fill:#A9A9AA;}
</style>
<g>
	<path class="st0" d="M-25.9,16.6l-30.8,12.5l-30.8-12.5l30.8-11.9L-25.9,16.6L-25.9,16.6z M-90,21.8l30.7,12.8v34.7
		c-2.4-1.1-5-2.2-7.6-3.4c-2.3-1-4.8-2.1-7.6-3.3c-2.8-1.2-5.7-2.4-8.6-3.7c-1-0.5-2-1.1-2.8-1.9c-0.8-0.8-1.6-1.6-2.2-2.5
		c-0.6-0.9-1.1-1.9-1.4-2.9c-0.3-1-0.5-2-0.5-3L-90,21.8L-90,21.8L-90,21.8z M-24,21.8v26.7c0,1.2-0.2,2.4-0.7,3.6
		c-0.5,1.1-1.1,2.2-1.8,3.2c-0.7,1-1.5,1.9-2.4,2.7c-0.9,0.8-1.8,1.4-2.6,1.8c-2.5,1-5.1,2.1-7.8,3.2c-2.7,1.1-5.2,2.2-7.5,3.1
		c-2.7,1.1-5.3,2.2-7.9,3.2V34.6L-24,21.8L-24,21.8z"/>
</g>
<g>
	<path class="st0" d="M-119.5,53.4h-63c-3,0-5.5-2.5-5.5-5.5V9.6c0-3,2.5-5.5,5.5-5.5h63c3,0,5.5,2.5,5.5,5.5V48
		C-114,51-116.5,53.4-119.5,53.4L-119.5,53.4z M-151.3,49.3c1.5,0,2.7-1.2,2.7-2.7c0-1.5-1.2-2.7-2.7-2.7c-1.5,0-2.7,1.2-2.7,2.7
		C-154.1,48.1-152.9,49.3-151.3,49.3L-151.3,49.3z M-119.5,9.6h-63v30.1h63V9.6L-119.5,9.6z M-155.1,61.5h8.2v4.3l8.1,1.5v2.6h-24.5
		v-2.7l8.2-1.4V61.5L-155.1,61.5z"/>
</g>
<g>
	<polygon class="st0" points="25.6,40.8 33.2,40.8 33.2,71.3 25.6,71.3 25.6,40.8 	"/>
	<polygon class="st0" points="10.3,52.2 18,52.2 18,71.3 10.3,71.3 10.3,52.2 	"/>
	<polygon class="st0" points="56,33.2 63.7,33.2 63.7,71.3 56,71.3 56,33.2 	"/>
	<polygon class="st0" points="40.8,48.4 48.4,48.4 48.4,71.3 40.8,71.3 40.8,48.4 	"/>
	<polygon class="st0" points="62.2,2.7 59.9,2.7 52.2,2.7 48.4,2.7 48.4,10.3 54.7,10.3 44.2,21.2 27.6,7.7 6.5,28 6.5,38.5 
		28,17.8 44.8,31.5 59.9,16 59.9,21.8 67.5,21.8 67.5,14.1 67.5,10.3 67.5,8.2 67.5,2.7 62.2,2.7 	"/>
</g>
<g>
	<path class="st0" d="M-117.3,123.3l-4,3.9l-11-10.9l4-3.9c1.2-1.2,3.1-1.4,4.2-0.3l7.2,7C-115.9,120.2-116.1,122.1-117.3,123.3
		L-117.3,123.3L-117.3,123.3L-117.3,123.3 M-134.1,118.2l11,10.8l-26.2,25.9c-0.1,0.1-0.4,0.4-1,0.5c-0.1,0-0.1,0-0.2,0.1l-13.7,4.3
		c-0.3,0.1-0.8,0.1-1-0.2c-0.3-0.3-0.3-0.6-0.2-1l4.3-13.5c0-0.1,0-0.1,0.1-0.2c0.1-0.4,0.4-1,0.6-1l5-4.6H-172
		c-0.7,0-1.3-0.8-1.3-1.4c0-0.7,0.6-1.5,1.3-1.5h19.3L-134.1,118.2L-134.1,118.2L-134.1,118.2 M-152.7,154l-6.8-6.7l-1.8,5.6
		l2.9,2.9L-152.7,154L-152.7,154L-152.7,154 M-134.5,122.4c-0.3-0.3-1-0.3-1.4,0l-20.6,20.2c-0.4,0.3-0.4,1,0,1.4
		c0.3,0.3,1,0.3,1.4,0l20.5-20.2C-134.1,123.5-134.1,122.9-134.5,122.4L-134.5,122.4L-134.5,122.4L-134.5,122.4 M-180.3,161.8
		c-0.7,0-1.4-0.3-1.4-1v-54.9c-0.1-1.3,0.8-1,1.7-1h4.8v1.8c0,0.7,0.8,1.3,1.6,1.3c0.7,0,1.6-0.6,1.6-1.3v-1.8h7.1v1.8
		c0,0.7,0.8,1.3,1.6,1.3c0.7,0,1.6-0.6,1.6-1.3v-1.8h6.5v1.8c0,0.7,0.8,1.3,1.6,1.3c0.7,0,1.6-0.6,1.6-1.3v-1.8h6.5v1.8
		c0,0.7,0.8,1.3,1.6,1.3c0.7,0,1.6-0.6,1.6-1.3v-1.8h5.5c0.7,0,1.1,0.3,1.1,1v9l4-3.9v-5.1c0-2.9-2.2-5-5.1-5h-5.6v-3.4
		c0-0.7-0.8-1.3-1.6-1.3c-0.7,0-1.6,0.6-1.6,1.3v3.4h-6.5v-3.4c0-0.7-0.8-1.3-1.6-1.3c-0.7,0-1.6,0.6-1.6,1.3v3.4h-6.5v-3.4
		c0-0.7-0.8-1.3-1.6-1.3c-0.7,0-1.6,0.6-1.6,1.3v3.4h-7.1v-3.4c0-0.7-0.8-1.3-1.6-1.3c-0.7,0-1.6,0.6-1.6,1.3v3.4h-4.7
		c-3.9,0-5.8,2.1-5.8,5v54.8c0,2.9,2.6,5,5.6,5h43.1c3,0,5.1-2.1,5.1-5v-18.9l-4,3.9v15.1c0,0.7-0.4,1-1.1,1L-180.3,161.8z
		 M-146.1,115.8h-26c-0.7,0-1.2,0.9-1.2,1.5c0,0.7,0.5,1.5,1.2,1.5h26c0.7,0,1.2-0.9,1.2-1.5C-144.9,116.7-145.4,115.8-146.1,115.8
		L-146.1,115.8L-146.1,115.8L-146.1,115.8 M-146.1,125.8h-26c-0.7,0-1.2,0.9-1.2,1.5c0,0.7,0.5,1.5,1.2,1.5h26
		c0.7,0,1.2-0.9,1.2-1.5C-144.9,126.7-145.4,125.8-146.1,125.8L-146.1,125.8L-146.1,125.8L-146.1,125.8 M-146.1,125.8"/>
</g>
<g>
	<path class="st0" d="M-69.1,157.1c-4.6-4.9-9.2-9.7-13.8-14.6c11.5-10.9,23.1-21.7,34.6-32.6c4.6,4.9,9.2,9.7,13.8,14.6
		C-46,135.3-57.5,146.2-69.1,157.1L-69.1,157.1L-69.1,157.1z M-47.8,130.5c-0.3-1.1-0.9-1.7-1.7-2.1c-0.7-0.4-1.2,0.1-1.7,0.6
		c-2.8,2.6-5.5,5.2-8.3,7.8c-3.5,3.3-7,6.6-10.5,9.9c-0.4,0.3-0.8,1.1-0.6,1.4c0.4,0.7,0.9,1.4,1.6,1.9c0.6,0.4,1.2-0.2,1.6-0.6
		c1.7-1.6,3.3-3.1,5-4.7c4.6-4.3,9.2-8.7,13.8-13C-48.2,131.3-48,130.8-47.8,130.5L-47.8,130.5L-47.8,130.5z M-41,123.9
		c-0.4-0.5-0.8-1-1.2-1.5c-0.6-0.7-1.3-0.7-2-0.1c-0.5,0.4-1,0.9-1.5,1.4c-0.4,0.4-0.7,0.9-0.2,1.5c0.5,0.7,0.9,1.8,2.1,1.6
		c0.2,0,0.3-0.1,0.5-0.2c0.6-0.6,1.3-1.1,1.9-1.8C-41.3,124.7-41.2,124.3-41,123.9L-41,123.9z M-56.1,111.8
		c-1.9,1.8-3.7,3.5-5.6,5.3c-1,1-2.1,1.9-3,2.9c-0.5,0.5-0.9,0.4-1.4-0.1c-0.7-0.8-0.6-1.7,0.3-2.5c1.3-1.3,2.6-2.5,3.9-3.7
		c0.2-0.2,0.5-0.4,0.8-0.6c-0.5-0.6-0.9-0.9-1.3-1.4c-1.4,1.4-2.8,2.7-4.3,4.1c-1.1,1.1-2.1,1.2-2.9,0.4c-0.7-0.8-0.5-1.7,0.6-2.8
		c1.4-1.4,2.6-2.9,4-4.4c0.1,0.1,0.2,0.1,0.3,0.2c-0.4-0.4-0.7-0.8-1.2-1.2c-1.2,1.2-2.5,2.4-3.7,3.5c-0.3,0.3-0.6,0.6-0.9,0.9
		c-0.9,0.8-1.9,0.9-2.6,0.2c-0.7-0.7-0.6-1.7,0.3-2.6c1.2-1.1,2.3-2.3,3.5-3.4c0.3-0.3,0.7-0.6,1.2-1.1c-0.5-0.4-0.9-0.8-1.3-1.2
		c-1.4,1.4-2.8,2.7-4.2,4c-0.2,0.2-0.4,0.4-0.7,0.6c-0.7,0.6-1.6,0.6-2.3,0c-0.6-0.6-0.7-1.6,0-2.3c0.4-0.5,0.9-0.8,1.3-1.3
		c1.1-1.2,2.2-2.4,3.3-3.6c-0.7-0.9-2.4-1-3.6,0.2c-2.3,2.1-4.5,4.3-6.7,6.5c-1.2,1.1-2.3,2.2-3.5,3.4c-1.4,1.4-1.5,2.9-0.1,4.3
		c3.7,3.9,7.5,7.8,11.2,11.6c0.2,0.2,0.5,0.5,0.8,0.8c-1.1,1-2.1,2-3.1,3c-0.9-0.9-1.9-1.7-2.7-2.6c-4.2-4.4-8.5-8.8-12.7-13.2
		c-1.3-1.4-1.3-2.5,0.1-3.8c5.7-5.5,11.4-11,17.1-16.5c1.2-1.1,2.4-1.2,3.5,0c5.2,5.3,10.3,10.7,15.4,16
		C-56.3,111.5-56.2,111.6-56.1,111.8L-56.1,111.8L-56.1,111.8z M-37.7,137.1c-2.2,2.2-4.4,4.2-6.5,6.3c-0.5,0.5-1,1-1.5,1.4
		c-1,0.9-2.5,0.5-2.8-0.8c-0.1-0.4,0-1,0.3-1.2c3.8-3.6,7.6-7.2,11.4-10.8c0.1-0.1,0.1-0.1,0.3-0.1c2.1,2.2,4.3,4.4,6.4,6.6
		c2.5,2.6,4.9,5.1,7.4,7.7c1.3,1.3,1.3,2.5-0.1,3.8c-5.7,5.5-11.4,11-17,16.4c-1.4,1.3-2.5,1.3-3.8-0.1c-4.6-4.8-9.2-9.5-13.8-14.3
		c-0.1-0.1-0.2-0.2-0.3-0.4c1.1-1,2.1-2,2.9-2.7c1.7,1.5,3.3,2.9,4.9,4.4c2.2,2.1,4.2,4.3,6.3,6.5c1.2,1.3,2.8,1.3,4.1,0.1
		c3.4-3.3,6.9-6.6,10.3-9.9c1.2-1.1,1.4-2.7,0.3-3.8C-31.8,143.2-34.7,140.2-37.7,137.1L-37.7,137.1L-37.7,137.1z M-27.4,117.8
		c-4.7-5-9.2-9.8-13.8-14.7c2.1-1.9,4-3.8,6.1-5.5c1.6-1.3,4-0.9,5.6,0.7c2.6,2.7,5.1,5.4,7.7,8.1c1.6,1.7,1.8,4,0.4,5.6
		C-23.3,114-25.4,115.9-27.4,117.8L-27.4,117.8L-27.4,117.8z M-24.4,109.5c-2.8-3-5.6-5.9-8.4-8.9c-1,0.9-1.9,1.8-2.9,2.7
		c2.8,3,5.6,5.9,8.4,8.9C-26.3,111.3-25.4,110.4-24.4,109.5L-24.4,109.5L-24.4,109.5z M-84.8,144.3c4.6,4.9,9.1,9.7,13.8,14.6
		c-0.8,0.3-1.5,0.5-2.1,0.7c-5,1.6-9.9,3.1-14.9,4.7c-0.2,0.1-0.3,0.1-0.5,0.1c-0.9,0.3-1.8,0.2-2.4-0.5c-0.7-0.8-0.7-1.6-0.3-2.6
		c0.6-1.6,1.2-3.1,1.8-4.7c1.5-3.9,3-7.9,4.5-11.8C-85,144.7-84.9,144.6-84.8,144.3L-84.8,144.3L-84.8,144.3z M-75.9,157.7
		c-2.7-2.9-5.3-5.6-8-8.5c-0.9,2.3-1.7,4.4-2.5,6.6c-0.1,0.2,0.1,0.5,0.2,0.7c0.9,1,1.9,2,2.8,3c0.3,0.4,0.7,0.5,1.1,0.3
		c1-0.3,2.1-0.7,3.1-1C-78.1,158.4-77,158-75.9,157.7L-75.9,157.7L-75.9,157.7z M-46.7,108.3c1.3-1.3,2.6-2.5,4-3.8
		c4.6,4.9,9.2,9.7,13.8,14.6c-1.3,1.3-2.6,2.5-4,3.8C-37.5,118.1-42.1,113.2-46.7,108.3L-46.7,108.3L-46.7,108.3z M-44.4,149.7
		c0-3,2.4-5.5,5.5-5.6c3-0.1,5.6,2.4,5.6,5.5c0.1,3-2.5,5.5-5.5,5.6C-41.9,155.3-44.4,152.8-44.4,149.7L-44.4,149.7z M-38.9,151.9
		c1.2,0,2.3-1,2.3-2.2c0-1.3-1-2.3-2.2-2.3c-1.2,0-2.2,1-2.2,2.2C-41.1,150.9-40.2,151.9-38.9,151.9L-38.9,151.9L-38.9,151.9z"/>
</g>
</svg>
