<?xml version="1.0" encoding="utf-8"?>
<!-- Generator: Adobe Illustrator 21.0.0, SVG Export Plug-In . SVG Version: 6.00 Build 0)  -->
<svg version="1.1" id="图层_1" xmlns="http://www.w3.org/2000/svg" xmlns:xlink="http://www.w3.org/1999/xlink" x="0px" y="0px"
	 viewBox="0 0 71 46" style="enable-background:new 0 0 71 46;" xml:space="preserve">
<style type="text/css">
	.st0{display:none;}
	.st1{display:inline;}
	.st2{display:inline;opacity:0.8;clip-path:url(#SVGID_2_);}
	.st3{clip-path:url(#SVGID_4_);fill-rule:evenodd;clip-rule:evenodd;fill:#D8D9D9;}
	.st4{clip-path:url(#SVGID_6_);fill-rule:evenodd;clip-rule:evenodd;fill:#727171;}
</style>
<g class="st0">
	<defs>
		<rect id="SVGID_1_" x="-342.7" y="-930.4" width="1920" height="2296.9"/>
	</defs>
	<clipPath id="SVGID_2_" class="st1">
		<use xlink:href="#SVGID_1_"  style="overflow:visible;"/>
	</clipPath>
	<g class="st2">
		<g>
			<defs>
				<rect id="SVGID_3_" x="151.6" y="-220.6" width="165.7" height="116.7"/>
			</defs>
			<clipPath id="SVGID_4_">
				<use xlink:href="#SVGID_3_"  style="overflow:visible;"/>
			</clipPath>
			<path class="st3" d="M217.3-122.8c1.7,0,3.2-0.8,4.2-2l7.4-8.3v23.5c0,3.3,2.9,5.6,6.2,5.6c3.3,0,5.7-2.3,5.7-5.6v-23.5l7.4,8.3
				c1.1,1.2,2.7,2,4.4,2c3.3,0,6.1-2.7,6.1-5.9c0-0.2,0-0.4,0-0.6c-0.1-1.3-0.7-2.5-1.5-3.4l-17.9-19.8l0,0c-1.1-1.2-2.6-2-4.4-2
				c-1.7,0-3.3,0.8-4.4,2l0,0l-17.6,19.8c-0.8,0.9-1.4,2.1-1.5,3.4v0c0,0.2,0,0.4,0,0.6c0,0.2,0,0.4,0,0.6
				C211.7-125.1,214.2-122.8,217.3-122.8 M289.8-182.7c-8.6-22.2-30.1-38-55.4-38c-25.2,0-46.7,15.8-55.4,38
				c-15.9,4.9-27.5,19.6-27.5,37.1c0,21.5,17.4,38.8,38.8,38.8c4.3,0,7.8-3.5,7.8-7.8c0-4.3-3.5-7.8-7.8-7.8
				c-12.9,0-23.3-10.4-23.3-23.3c0-6.9,3.1-13.2,7.9-17.4c0.5-0.4,1-0.9,1.5-1.3c0,0,0.1-0.1,0.1-0.1c0.5-0.4,1-0.7,1.6-1.1
				c0.1-0.1,0.2-0.1,0.2-0.2c0.5-0.3,1-0.6,1.5-0.8c0.1-0.1,0.3-0.1,0.4-0.2c0.5-0.2,1-0.4,1.5-0.6c0.2-0.1,0.4-0.2,0.7-0.2
				c0.4-0.2,0.9-0.3,1.3-0.5c0.3-0.1,0.6-0.2,0.9-0.2c0.4-0.1,0.8-0.2,1.2-0.3c0.4-0.1,0.9-0.1,1.3-0.2c0.3,0,0.6-0.1,0.9-0.1
				c0.7-0.1,1.5-0.1,2.3-0.1c0.2,0,0.5,0,0.7,0c0.2-1.3,0.5-2.6,0.9-3.9c0.1-0.3,0.2-0.6,0.3-0.9c0.3-1,0.6-1.9,0.9-2.9
				c0.1-0.3,0.2-0.6,0.4-0.8c0.4-1,0.8-1.9,1.2-2.8c0.1-0.2,0.2-0.4,0.3-0.7c0.5-1,1-1.9,1.5-2.8c7.7-12.8,21.7-21.4,37.7-21.4
				c16,0,30,8.6,37.7,21.4c0.6,0.9,1.1,1.9,1.5,2.8c0.1,0.2,0.2,0.4,0.3,0.7c0.4,0.9,0.8,1.9,1.2,2.8c0.1,0.3,0.2,0.6,0.4,0.8
				c0.4,0.9,0.7,1.9,0.9,2.9c0.1,0.3,0.2,0.6,0.3,0.9c0.4,1.3,0.7,2.6,0.9,3.9c0.2,0,0.5,0,0.7,0c0.8,0,1.5,0,2.3,0.1
				c0.3,0,0.6,0.1,0.9,0.1c0.4,0.1,0.9,0.1,1.3,0.2c0.4,0.1,0.8,0.2,1.2,0.3c0.3,0.1,0.6,0.1,0.9,0.2c0.5,0.1,0.9,0.3,1.3,0.5
				c0.2,0.1,0.4,0.1,0.7,0.2c0.5,0.2,1,0.4,1.5,0.6c0.1,0.1,0.3,0.1,0.4,0.2c0.5,0.3,1,0.5,1.5,0.8c0.1,0.1,0.2,0.1,0.2,0.2
				c0.5,0.3,1.1,0.7,1.6,1.1c0,0,0.1,0.1,0.1,0.1c0.5,0.4,1.1,0.8,1.5,1.3c4.8,4.3,7.9,10.5,7.9,17.4c0,12.9-10.4,23.3-23.3,23.3
				c-4.3,0-7.8,3.5-7.8,7.8c0,4.3,3.5,7.8,7.8,7.8c21.5,0,38.8-17.4,38.8-38.8C317.3-163,305.7-177.8,289.8-182.7"/>
		</g>
	</g>
</g>
<g>
	<defs>
		<rect id="SVGID_5_" x="-884.7" y="-809.2" width="1920" height="2296.9"/>
	</defs>
	<clipPath id="SVGID_6_">
		<use xlink:href="#SVGID_5_"  style="overflow:visible;"/>
	</clipPath>
	<path class="st4" d="M43.5,160H9.9c-2.4,0-4.4-2-4.4-4.4v-45.2c0-2.4,2-4.4,4.4-4.4h33.5c2.4,0,4.4,2,4.4,4.4v45.2
		C47.8,158.1,45.9,160,43.5,160 M44.9,111.9c0-1.6-1.3-2.9-2.9-2.9H11.4c-1.6,0-2.9,1.3-2.9,2.9v42.3c0,1.6,1.3,2.9,2.9,2.9H42
		c1.6,0,2.9-1.3,2.9-2.9V111.9z M31.8,152.7H21.6c-0.8,0-1.5-0.7-1.5-1.5c0-0.8,0.7-1.5,1.5-1.5h10.2c0.8,0,1.5,0.7,1.5,1.5
		C33.2,152.1,32.6,152.7,31.8,152.7"/>
	<path class="st4" d="M19.8-82.8c-3.8,0-6.9-3.1-6.9-6.9c0-3.8,3.1-6.9,6.9-6.9c3.8,0,6.9,3.1,6.9,6.9
		C26.7-85.9,23.6-82.8,19.8-82.8 M19.8-94.5c-2.7,0-4.8,2.2-4.8,4.8c0,2.7,2.2,4.8,4.8,4.8c2.7,0,4.8-2.2,4.8-4.8
		C24.6-92.3,22.4-94.5,19.8-94.5"/>
	<path class="st4" d="M54.3-54.9H11.6c-4,0-7.3-3.4-7.3-7.6v-35c0-4.2,3.3-7.6,7.3-7.6h42.7c4,0,7.3,3.4,7.3,7.6v35
		C61.6-58.3,58.3-54.9,54.3-54.9 M11.6-103c-2.9,0-5.2,2.5-5.2,5.5v35c0,3.1,2.3,5.5,5.2,5.5h42.7c2.9,0,5.2-2.5,5.2-5.5v-35
		c0-3.1-2.3-5.5-5.2-5.5H11.6z"/>
	<path class="st4" d="M6.1-59.6c-0.3,0-0.5-0.1-0.7-0.3c-0.4-0.4-0.4-1.1,0-1.5l12.2-12.2c1.4-1.4,3.2-2.1,5.2-2.1s3.8,0.8,5.2,2.1
		l6.6,6.6c0.4,0.4,0.4,1.1,0,1.5c-0.4,0.4-1.1,0.4-1.5,0l-6.6-6.6c-1-1-2.3-1.5-3.7-1.5c-1.4,0-2.7,0.5-3.7,1.5L6.9-59.9
		C6.6-59.7,6.4-59.6,6.1-59.6"/>
	<path class="st4" d="M29.6-69.9c-0.3,0-0.5-0.1-0.7-0.3c-0.4-0.4-0.4-1.1,0-1.5l13.3-13.3c1.5-1.5,3.5-2.3,5.6-2.3
		c2.1,0,4.1,0.8,5.6,2.3l7.2,7.2c0.4,0.4,0.4,1.1,0,1.5c-0.4,0.4-1.1,0.4-1.5,0l-7.2-7.2c-1.1-1.1-2.6-1.7-4.1-1.7
		c-1.6,0-3,0.6-4.1,1.7L30.3-70.2C30.1-70,29.9-69.9,29.6-69.9"/>
	<path class="st4" d="M66.3,6.2c-1.4-0.9-3.2-0.9-5,0L48,12.6V10c0-3.9-3.2-7.1-7.1-7.1h-31C5.9,2.8,2.7,5.6,2.7,9v27.9
		C2.7,40.9,4.5,44,7,44h2.9v-2.9H7c-0.3,0-1.4-1.4-1.4-4.3V9c0-1.8,2-3.3,4.3-3.3h31c2.4,0,4.3,1.9,4.3,4.3v26.9
		c0,2.4-1.9,4.3-4.3,4.3h-22V44h22c3.9,0,7.1-3.2,7.1-7.1v-2.6l13.3,6.5c0.9,0.4,1.8,0.7,2.7,0.7c0.8,0,1.6-0.2,2.3-0.6
		c1.4-0.9,2.2-2.5,2.2-4.5V10.7C68.5,8.7,67.7,7.1,66.3,6.2 M65.6,36.2c0,1-0.3,1.8-0.8,2.1c-0.5,0.3-1.4,0.3-2.2-0.2L48,31V15.8
		l14.5-7c0.9-0.4,1.7-0.5,2.3-0.2c0.5,0.3,0.8,1.1,0.8,2.1V36.2z"/>
	<path class="st4" d="M11,13.2c0,1.1,0.9,2.1,2.1,2.1c1.1,0,2.1-0.9,2.1-2.1c0-1.1-0.9-2.1-2.1-2.1C11.9,11.1,11,12,11,13.2"/>
	<rect x="9.9" y="41.1" class="st4" width="11.4" height="2.9"/>
</g>
</svg>
