<?xml version="1.0" encoding="utf-8"?>
<!-- Generator: Adobe Illustrator 21.0.0, SVG Export Plug-In . SVG Version: 6.00 Build 0)  -->
<svg version="1.1" id="图层_1" xmlns="http://www.w3.org/2000/svg" xmlns:xlink="http://www.w3.org/1999/xlink" x="0px" y="0px"
	 viewBox="0 0 28 27" style="enable-background:new 0 0 28 27;" xml:space="preserve">
<style type="text/css">
	.st0{fill-rule:evenodd;clip-rule:evenodd;fill:#FFFFFF;}
</style>
<path class="st0" d="M26.4,22.1L21.3,17l0.7-0.7l-0.8-0.8l-2.1,2.1l-3.3-3.4l4-4c0.5,0.2,1.1,0.3,1.7,0.3c1.4,0,2.7-0.5,3.7-1.5
	c1.5-1.5,1.9-3.7,1.1-5.7L26,2.5l-2.3,2.3l-1.7,0l0-1.6l2.3-2.3l-0.7-0.3c-0.7-0.3-1.3-0.4-2.1-0.4c-1.4,0-2.7,0.5-3.7,1.5
	c-1.4,1.4-1.9,3.5-1.2,5.4l-4.1,4L6.9,5.3l0.7-0.7L3.7,0.7L1.5,2.9l3.9,3.9l0.7-0.7l5.7,5.8l-4,4c-0.5-0.2-1.1-0.3-1.7-0.3
	c-1.4,0-2.7,0.5-3.7,1.5c-1.5,1.5-1.9,3.8-1.1,5.7l0.3,0.7L4,21.2l1.6,0l0,1.7l-2.3,2.3l0.8,0.3c0.7,0.3,1.3,0.4,2.1,0.4
	c1.4,0,2.7-0.5,3.7-1.5c1.4-1.4,1.9-3.5,1.2-5.3l4-4.1l3.3,3.3l-2.1,2.1l0.8,0.8l0.7-0.7l5.1,5.1c0.5,0.5,1.1,0.7,1.8,0.7
	c0.7,0,1.3-0.3,1.8-0.7C27.4,24.6,27.4,23,26.4,22.1 M9.8,19.1c0.7,1.5,0.3,3.3-0.9,4.5c-0.8,0.8-1.8,1.2-2.9,1.2
	c-0.3,0-0.5,0-0.8-0.1l1.4-1.4l0-3.3l-3.2,0l-1.4,1.5c-0.3-1.3,0.1-2.7,1.1-3.6C4,17.1,5,16.7,6.1,16.7c0.6,0,1.1,0.1,1.6,0.3
	L8,17.2l9.9-9.9l0,0l-0.1-0.4c-0.7-1.5-0.3-3.3,0.9-4.5c0.8-0.8,1.8-1.2,2.9-1.2c0.3,0,0.5,0,0.8,0.1l-1.4,1.4l0,3.2l3.3,0l1.4-1.4
	c0.3,1.3-0.1,2.7-1.1,3.6c-0.8,0.8-1.8,1.2-2.9,1.2c-0.6,0-1.1-0.1-1.6-0.3l-0.4-0.1l-10,9.9l0,0L9.8,19.1z M25.7,24.8
	c-0.3,0.3-0.6,0.4-1,0.4c-0.4,0-0.7-0.1-1-0.4l-5.1-5.1l2-2l5.1,5.1C26.2,23.4,26.2,24.3,25.7,24.8 M6,4.6L5.4,5.2L3.1,2.9l0.6-0.6
	L6,4.6z"/>
</svg>
