<?xml version="1.0" encoding="utf-8"?>
<!-- Generator: Adobe Illustrator 21.0.0, SVG Export Plug-In . SVG Version: 6.00 Build 0)  -->
<svg version="1.1" id="图层_1" xmlns="http://www.w3.org/2000/svg" xmlns:xlink="http://www.w3.org/1999/xlink" x="0px" y="0px"
	 viewBox="0 0 60 66" style="enable-background:new 0 0 60 66;" xml:space="preserve">
<style type="text/css">
	.st0{clip-path:url(#SVGID_2_);fill-rule:evenodd;clip-rule:evenodd;fill:#858585;}
</style>
<g>
	<defs>
		<rect id="SVGID_1_" x="-1077.1" y="-779.1" width="1920" height="1627.8"/>
	</defs>
	<clipPath id="SVGID_2_">
		<use xlink:href="#SVGID_1_"  style="overflow:visible;"/>
	</clipPath>
	<path class="st0" d="M-515.9,22.6h-4.3l-10.1,13.9v2.7h10.4v4.4h4v-4.4h2.6v-3.1h-2.6V22.6z M-519.8,29.1v7h-6.3
		c0.3-0.5,1.1-1.6,2.6-3.5c0.1-0.2,0.2-0.4,0.5-0.7c0.1-0.1,0.1-0.2,0.2-0.3c0.6-0.9,1.4-1.9,2.2-3l0.1-0.2c0-0.1,0-0.1,0.1-0.2
		c0.1-0.3,0.2-0.5,0.3-0.6c0.2-0.3,0.3-0.4,0.3-0.5l0.1-0.2C-519.8,27.4-519.8,28.1-519.8,29.1 M-484.1,4.8h-53.2
		c-2.9,0-5.3,2.4-5.3,5.3v46.1c0,2.9,2.4,5.3,5.3,5.3h53.2c2.9,0,5.3-2.4,5.3-5.3V10.1C-478.8,7.2-481.2,4.8-484.1,4.8 M-535.6,8.4
		h49.7c2,0,3.5,1.6,3.5,3.5v42.6c0,2-1.6,3.5-3.5,3.5h-49.7c-2,0-3.5-1.6-3.5-3.5V11.9C-539.1,10-537.5,8.4-535.6,8.4 M-491.9,22.7
		h-4.9l-8.3,10.1V22.6h-4v21.3h4v-5.7l3.1-3.6l5.7,9.3h5l-8.3-12.2L-491.9,22.7z"/>
	<path class="st0" d="M29.2,64c-4.5,0-10.9-3.4-16.3-8.6c-6-5.8-9.5-12.4-9.5-18.1V11.4l1.8,0c0.1,0,6.1-0.1,12.4-2.7
		c6.3-2.6,10.5-5.5,10.5-5.6l1.1-0.8l1.1,0.8c0,0,4.1,3,10.5,5.6c6.3,2.5,12.3,2.7,12.4,2.7l1.8,0l0,25.9c0,5.7-3.5,12.3-9.5,18.1
		C40.1,60.6,33.7,64,29.2,64 M7.1,37.3c0,10.8,15.7,23.1,22.1,23.1c6.4,0,22.1-12.3,22.1-23.1V14.9l-0.8-0.1
		c-2.7-0.3-6.8-1-11.1-2.7c-4.4-1.8-7.7-3.7-9.8-5l-0.5-0.3l-0.5,0.3c-1.7,1.1-5.1,3.1-9.8,5c-4.3,1.7-8.4,2.4-11.1,2.7l-0.8,0.1
		L7.1,37.3L7.1,37.3z M17.7,37.6l2.4-2.8l7.2,6.1l13.8-15.8l2.8,2.4L27.7,46.1L17.7,37.6z"/>
	<path class="st0" d="M29.2,63.2c-8.7,0-24.9-13.7-24.9-25.9v-25l1,0c0,0,6.3-0.1,12.7-2.7c6.4-2.6,10.7-5.6,10.7-5.7l0.6-0.4
		l0.6,0.4c0,0,4.2,3,10.7,5.7c6.4,2.6,12.7,2.7,12.7,2.7l0.9,0l0,25C54.1,49.5,37.9,63.2,29.2,63.2 M28.3,6.4c-1.6,1-5,3-9.6,4.9
		C14.5,13,10.4,13.7,7.8,14l-1.5,0.2v23.1c0,11.4,16.1,23.9,23,23.9c6.8,0,23-12.5,23-23.9V14.2L50.6,14c-2.7-0.3-6.7-1-10.9-2.7
		c-4.3-1.7-7.6-3.6-9.6-4.9l-0.9-0.6L28.3,6.4z M18.9,37.5l1.2-1.5l7.2,6.1l13.8-15.8l1.5,1.3l-15,17.2L18.9,37.5z"/>
	<path class="st0" d="M-509.9,149.3c-17.6,0-31.9,14.3-31.9,31.9c0,17.6,14.3,31.9,31.9,31.9c17.6,0,31.9-14.3,31.9-31.9
		C-478,163.6-492.3,149.3-509.9,149.3 M-509.9,205.4c-13.3,0-24.1-10.8-24.1-24.1s10.8-24.1,24.1-24.1c13.3,0,24.1,10.8,24.1,24.1
		S-496.6,205.4-509.9,205.4"/>
	<path class="st0" d="M-509.9,160.6c-11.4,0-20.6,9.2-20.6,20.6c0,11.4,9.2,20.6,20.6,20.6c11.4,0,20.6-9.2,20.6-20.6
		C-489.3,169.9-498.6,160.6-509.9,160.6 M-509.9,174.4c-6,0-10.8-2.4-10.8-5.4c0-3,4.8-5.4,10.8-5.4c6,0,10.8,2.4,10.8,5.4
		C-499.1,171.9-503.9,174.4-509.9,174.4"/>
	<path class="st0" d="M26.9,363.5l-14-17.3c0,0-0.7-6.4,5.6-3.7c3.7,1.6,5,5,5,5l0.1-26.3c0,0,3.8-5.5,7.1,0l0.1,16.6
		c0,0,4.1-5.5,8.9,0.4c0,0,3.6-6,8.7,0.3c0,0,3.6-6.9,7.2,0.6V360c0,0-0.2,1.6-3.1,3.5H26.9z"/>
	<path class="st0" d="M27,307.8c-7.8,0-14.2,6.2-14.2,14c0,5.2,2.9,9.6,7.1,12v-4.3c-2.2-1.9-3.6-4.7-3.6-7.8
		c0-5.8,4.8-10.4,10.6-10.4c5.9,0,10.6,4.7,10.6,10.4c0,3-1.4,5.8-3.5,7.7v4.4c4.2-2.4,7.1-6.9,7.1-12
		C41.2,314.1,34.8,307.8,27,307.8"/>
</g>
</svg>
