<?xml version="1.0" encoding="utf-8"?>
<!-- Generator: Adobe Illustrator 21.0.0, SVG Export Plug-In . SVG Version: 6.00 Build 0)  -->
<svg version="1.1" id="图层_1" xmlns="http://www.w3.org/2000/svg" xmlns:xlink="http://www.w3.org/1999/xlink" x="0px" y="0px"
	 viewBox="0 0 31 22" style="enable-background:new 0 0 31 22;" xml:space="preserve">
<style type="text/css">
	.st0{fill:#858585;}
	.st1{fill-rule:evenodd;clip-rule:evenodd;fill:#FFFFFF;}
</style>
<path class="st0" d="M30.4,19.1c0,1.6-1.3,2.9-2.9,2.9H3.9c-1.6,0-2.9-1.3-2.9-2.9V3.5c0-1.6,1.3-2.9,2.9-2.9h23.6
	c1.6,0,2.9,1.3,2.9,2.9V19.1z"/>
<path class="st1" d="M18.9,8.5c0.2,0,0.4,0,0.6,0C19,6,16.2,4.2,13,4.2c-3.6,0-6.5,2.3-6.5,5.2c0,1.7,1,3.1,2.6,4.2l-0.6,1.9
	l2.3-1.1c0.8,0.2,1.5,0.3,2.3,0.3c0.2,0,0.4,0,0.6,0c-0.1-0.4-0.2-0.8-0.2-1.3C13.4,10.7,15.9,8.5,18.9,8.5 M15.5,6.8
	c0.5,0,0.8,0.3,0.8,0.8c0,0.5-0.3,0.8-0.8,0.8c-0.5,0-1-0.3-1-0.8C14.5,7.1,15,6.8,15.5,6.8 M10.9,8.4c-0.5,0-1-0.3-1-0.8
	c0-0.5,0.5-0.8,1-0.8s0.8,0.3,0.8,0.8C11.7,8.1,11.4,8.4,10.9,8.4 M24.8,13.3c0-2.5-2.6-4.5-5.5-4.5c-3.1,0-5.5,2-5.5,4.5
	c0,2.5,2.4,4.5,5.5,4.5c0.6,0,1.3-0.2,1.9-0.3l1.8,0.9l-0.5-1.5C23.9,15.9,24.8,14.7,24.8,13.3 M17.6,12.5c-0.3,0-0.6-0.3-0.6-0.6
	c0-0.3,0.3-0.6,0.6-0.6c0.5,0,0.8,0.3,0.8,0.6C18.4,12.2,18,12.5,17.6,12.5 M21.1,12.5c-0.3,0-0.6-0.3-0.6-0.6
	c0-0.3,0.3-0.6,0.6-0.6c0.5,0,0.8,0.3,0.8,0.6C21.9,12.2,21.6,12.5,21.1,12.5"/>
</svg>
