<?xml version="1.0" encoding="utf-8"?>
<!-- Generator: Adobe Illustrator 21.0.0, SVG Export Plug-In . SVG Version: 6.00 Build 0)  -->
<svg version="1.1" id="图层_1" xmlns="http://www.w3.org/2000/svg" xmlns:xlink="http://www.w3.org/1999/xlink" x="0px" y="0px"
	 viewBox="0 0 46 47" style="enable-background:new 0 0 46 47;" xml:space="preserve">
<style type="text/css">
	.st0{clip-path:url(#SVGID_2_);fill-rule:evenodd;clip-rule:evenodd;fill:#9B9C9C;}
</style>
<g>
	<defs>
		<rect id="SVGID_1_" x="-897.2" y="-1253.7" width="1920" height="2296.9"/>
	</defs>
	<clipPath id="SVGID_2_">
		<use xlink:href="#SVGID_1_"  style="overflow:visible;"/>
	</clipPath>
	<path class="st0" d="M23.1,1C10.8,1,0.8,11,0.8,23.3s10,22.2,22.2,22.2c12.3,0,22.2-10,22.2-22.2S35.4,1,23.1,1 M32,36.1
		c-2.6,1.8-5.7,2.8-8.8,2.8c-0.5,0-1,0-1.5-0.1c-0.1,0-0.2,0-0.3,0c-0.3,0-0.6-0.1-0.9-0.1c-0.1,0-0.2,0-0.2-0.1
		c-0.2,0-0.4-0.1-0.6-0.1c-0.3-0.1-0.6-0.1-0.9-0.2c-0.2,0-0.3-0.1-0.5-0.2c-0.3-0.1-0.7-0.2-1-0.4c-0.1,0-0.2-0.1-0.3-0.1
		c-0.4-0.2-0.8-0.3-1.1-0.5c0,0-0.1,0-0.1-0.1c-1.3-0.7-2.4-1.6-3.5-2.6c0,0-0.1-0.1-0.1-0.1c-0.3-0.3-0.6-0.6-0.9-1
		c-0.1-0.1-0.1-0.2-0.2-0.3c-0.2-0.2-0.4-0.5-0.6-0.7c0,0,0-0.1-0.1-0.1c-1.7-2.5-2.7-5.5-2.7-8.7H4.7l4.9-7.4l4.9,7.4h-3.1
		c0,2.8,1,5.3,2.6,7.3c0,0.1,0.1,0.1,0.1,0.2c0.2,0.3,0.5,0.5,0.7,0.8c0,0,0,0,0,0c0.8,0.8,1.7,1.5,2.7,2c0,0,0,0,0,0
		c0.3,0.2,0.6,0.3,0.9,0.4c0.1,0,0.1,0.1,0.2,0.1c0.3,0.1,0.5,0.2,0.8,0.3c0.1,0,0.2,0.1,0.3,0.1c0.2,0.1,0.5,0.1,0.7,0.2
		c0.1,0,0.3,0.1,0.4,0.1c0.2,0,0.5,0.1,0.7,0.1c0.1,0,0.3,0,0.4,0c0.3,0,0.6,0,1,0c2.4,0,4.8-0.7,6.8-2.1c0.8-0.6,2-0.4,2.6,0.5
		C33.1,34.3,32.9,35.5,32,36.1 M36.7,30.9l-4.9-7.4h3.1c0-2.8-1-5.4-2.7-7.4c0,0,0,0,0,0c-1.2-1.4-2.7-2.6-4.4-3.3c0,0-0.1,0-0.1,0
		c-0.3-0.1-0.6-0.2-0.9-0.3c-0.1,0-0.2-0.1-0.2-0.1c-0.3-0.1-0.5-0.1-0.8-0.2c-0.1,0-0.2-0.1-0.4-0.1c-0.3-0.1-0.5-0.1-0.8-0.1
		c-0.1,0-0.2,0-0.3,0c-0.3,0-0.7,0-1-0.1c-2.4,0-4.8,0.7-6.8,2.1c-0.8,0.6-2,0.4-2.6-0.5c-0.6-0.8-0.4-2,0.5-2.6
		C17,9.1,20,8.1,23.2,8.1c0,0,0,0,0,0c0.1,0,0.1,0,0.2,0c0.4,0,0.8,0,1.2,0.1c0.2,0,0.3,0,0.5,0.1c0.2,0,0.5,0.1,0.7,0.1
		c0.1,0,0.2,0,0.3,0.1c0.2,0,0.4,0.1,0.5,0.1c0.3,0.1,0.6,0.2,1,0.2c0.1,0,0.3,0.1,0.4,0.1c0.4,0.1,0.7,0.3,1.1,0.4
		c0.1,0,0.1,0.1,0.2,0.1c2.2,1,4.2,2.4,5.7,4.3c0,0,0.1,0.1,0.1,0.1c0.2,0.3,0.5,0.6,0.7,0.9c0,0,0,0.1,0.1,0.1
		c1.7,2.5,2.7,5.5,2.7,8.7h3.1L36.7,30.9z"/>
</g>
</svg>
