<?xml version="1.0" encoding="utf-8"?>
<!-- Generator: Adobe Illustrator 21.0.0, SVG Export Plug-In . SVG Version: 6.00 Build 0)  -->
<svg version="1.1" id="图层_1" xmlns="http://www.w3.org/2000/svg" xmlns:xlink="http://www.w3.org/1999/xlink" x="0px" y="0px"
	 viewBox="0 0 72 57.3" style="enable-background:new 0 0 72 57.3;" xml:space="preserve">
<style type="text/css">
	.st0{fill-rule:evenodd;clip-rule:evenodd;fill:#808080;}
	.st1{fill:#808080;}
</style>
<path class="st0" d="M46.3,1.7h-33C6.6,1.7,1.2,7.3,1.2,14v28.1c0,6.7,5.4,12.3,12.1,12.3h35v-2h-35c-5.6,0-10.1-4.7-10.1-10.3V14
	c0-5.6,4.5-10.3,10.1-10.3h33c5.6,0,10.1,4.7,10.1,10.3v24.2h2V14C58.4,7.3,53,1.7,46.3,1.7 M67.4,45.5l-4.5-4.6
	c-0.4-0.4-0.4-1,0-1.4c0.2-0.2,0.4-0.3,0.7-0.3c0.3,0,0.5,0.1,0.7,0.3l6.5,6.5c0,0,0,0,0,0c0,0,0,0,0,0c0.1,0.1,0.2,0.3,0.2,0.4
	c0,0,0,0.1,0,0.1c0,0.2,0,0.4-0.1,0.5v0c-0.1,0.1-0.1,0.2-0.2,0.3L64,53.9c-0.2,0.2-0.4,0.3-0.7,0.3c-0.3,0-0.5-0.1-0.7-0.3
	c-0.4-0.4-0.3-1,0.1-1.4l5-4.8c-13.7-0.8-15.1,7.2-15.1,7.5C52.5,55.7,52,56,51.5,56c-0.5-0.1-0.9-0.6-0.8-1.1
	C50.7,54.4,52.2,44.8,67.4,45.5L67.4,45.5z"/>
<path class="st1" d="M51.6,56.7c-0.1,0-0.1,0-0.2,0c-0.9-0.2-1.6-1-1.4-1.9c0-0.4,1.4-9.9,15.7-9.9l-3.4-3.4
	c-0.6-0.7-0.7-1.7-0.1-2.4c0.3-0.3,0.7-0.5,1.2-0.5h0c0.5,0,0.9,0.2,1.2,0.5l6.4,6.5l0.2,0.1l0,0.1c0.2,0.2,0.3,0.4,0.3,0.7
	c0,0.1,0,0.1,0,0.2c0,0.2,0,0.5-0.1,0.7v0l-0.1,0.1c-0.1,0.2-0.2,0.4-0.4,0.5l-6.7,6.4c-0.3,0.3-0.7,0.4-1.1,0.4l-0.1,0
	c-0.4,0-0.9-0.2-1.1-0.6c-0.6-0.7-0.5-1.7,0.1-2.4l3.9-3.7c-11.7-0.1-12.8,6.7-12.8,7C53.2,56,52.5,56.7,51.6,56.7 M65.8,46.2
	c-13.2,0-14.4,8.4-14.4,8.8c0,0.2,0.1,0.4,0.3,0.4l0,0c0.2,0,0.3-0.1,0.3-0.3c0.1-0.4,1.3-8.2,13.9-8.2c0.6,0,1.3,0,2,0.1l1.6,0.1
	l-6.1,5.9c-0.1,0.1-0.1,0.4,0,0.5c0,0.1,0.1,0.1,0.2,0.1c0.1,0,0.1,0,0.2-0.1l6.7-6.4c0,0,0-0.1,0.1-0.1l0,0c0-0.1,0-0.1,0-0.2
	l0-0.1c0,0,0-0.1,0-0.1l-0.1-0.1l0-0.1L63.7,40c-0.1-0.1-0.1-0.1-0.2-0.1c-0.1,0-0.1,0-0.2,0.1c-0.1,0.1-0.1,0.4,0,0.5l5.8,5.8
	l-1.7-0.1C66.8,46.2,66.3,46.2,65.8,46.2 M49,55.1H13.3c-7.1,0-12.8-5.8-12.8-13V14c0-7.1,5.7-13,12.8-13h33c7.1,0,12.8,5.8,12.8,13
	v24.9h-3.4V14c0-5.3-4.2-9.6-9.4-9.6h-33c-5.2,0-9.4,4.3-9.4,9.6v28.1c0,5.3,4.2,9.6,9.4,9.6H49V55.1z M13.3,2.4
	C7,2.4,1.8,7.6,1.8,14v28.1c0,6.4,5.1,11.6,11.5,11.6h34.3v-0.7H13.3c-5.9,0-10.8-4.9-10.8-10.9V14C2.5,8,7.4,3,13.3,3h33
	C52.2,3,57.1,8,57.1,14v23.5h0.7V14c0-6.4-5.1-11.6-11.5-11.6H13.3z"/>
<path class="st1" d="M23.5,16.8v13.7h3.1V33h-3.1v4.5h-3V33H10.4v-3l10.2-13.2H23.5z M13,30.5h7.5v-9.7h-0.1L13,30.5z"/>
<polygon class="st1" points="46.3,16.8 37.2,25.7 47.7,37.5 43.4,37.5 35,27.8 32.4,30.4 32.4,37.5 29.2,37.5 29.2,16.8 32.4,16.8 
	32.4,26.8 42.3,16.8 "/>
</svg>
