<?xml version="1.0" encoding="utf-8"?>
<!-- Generator: Adobe Illustrator 21.0.0, SVG Export Plug-In . SVG Version: 6.00 Build 0)  -->
<svg version="1.1" id="图层_1" xmlns="http://www.w3.org/2000/svg" xmlns:xlink="http://www.w3.org/1999/xlink" x="0px" y="0px"
	 viewBox="0 0 30 22" style="enable-background:new 0 0 30 22;" xml:space="preserve">
<style type="text/css">
	.st0{fill:#858585;}
	.st1{fill-rule:evenodd;clip-rule:evenodd;fill:#FFFFFF;}
</style>
<path class="st0" d="M29.6,19.1c0,1.6-1.3,2.9-2.9,2.9H3c-1.6,0-2.9-1.3-2.9-2.9V3.5c0-1.6,1.3-2.9,2.9-2.9h23.6
	c1.6,0,2.9,1.3,2.9,2.9V19.1z"/>
<path class="st1" d="M12.2,12.1c-1.6,0.2-2.8,1.5-2.6,2.8c0.2,1.3,1.6,2.2,3.3,2c1.6-0.2,2.8-1.5,2.6-2.8
	C15.3,12.7,13.8,11.8,12.2,12.1 M11.8,15.8c-0.6,0.1-1.1-0.2-1.1-0.7c-0.1-0.5,0.3-0.9,0.9-1c0.6-0.1,1.1,0.2,1.1,0.7
	C12.7,15.3,12.3,15.7,11.8,15.8 M13.2,14.3c-0.2,0.1-0.5,0-0.5-0.2c-0.1-0.2,0.1-0.4,0.3-0.5c0.2-0.1,0.5,0,0.5,0.2
	C13.6,14,13.4,14.3,13.2,14.3 M20.6,9.9c0.1,0,0.2,0.1,0.3,0.1c0.3,0,0.5-0.2,0.6-0.4c0.1-0.3,0.2-0.6,0.2-0.9
	c0-1.3-1.1-2.4-2.4-2.4c-0.3,0-0.6,0.1-0.9,0.2c-0.3,0.1-0.5,0.5-0.4,0.9c0.1,0.3,0.5,0.5,0.9,0.4c0.1-0.1,0.3-0.1,0.4-0.1
	c0.6,0,1,0.5,1,1c0,0.1,0,0.3-0.1,0.4C20.1,9.3,20.3,9.7,20.6,9.9 M19.1,10.9c0.1-0.2,0.1-0.4,0.1-0.4c1.2-2.2-1.8-3-3.6-2
	c-1.7,1-0.9-0.7-0.9-0.7c0.3-2.9-2.8-1.6-2.8-1.6c-7.2,4-6.5,8-6.5,8c0,2.2,3.4,4.7,7.8,4.7c5.8,0,9-3.4,8.5-5.9
	C21.5,12,20.3,11.1,19.1,10.9 M12.4,17.7c-3.8,0-5-2-5-3.4c0-2.2,3-3.9,5.8-3.9c2.8,0,4.8,1.2,5.3,2.8
	C19.1,15.5,16.1,17.7,12.4,17.7 M19.3,3.7c-0.4,0-0.8,0.1-1.2,0.2c-0.4,0.1-0.6,0.5-0.5,0.8c0.1,0.4,0.5,0.6,0.8,0.5
	c0.3-0.1,0.6-0.1,0.9-0.1c1.9,0,3.5,1.6,3.5,3.5c0,0.4-0.1,0.8-0.2,1.2c-0.1,0.3,0.1,0.7,0.4,0.9c0.1,0,0.2,0,0.2,0
	c0.3,0,0.5-0.2,0.6-0.4c0.2-0.5,0.3-1.1,0.3-1.7C24.2,5.9,22,3.7,19.3,3.7"/>
</svg>
