<?xml version="1.0" encoding="utf-8"?>
<!-- Generator: Adobe Illustrator 21.0.0, SVG Export Plug-In . SVG Version: 6.00 Build 0)  -->
<svg version="1.1" id="图层_1" xmlns="http://www.w3.org/2000/svg" xmlns:xlink="http://www.w3.org/1999/xlink" x="0px" y="0px"
	 viewBox="0 0 165 117" style="enable-background:new 0 0 165 117;" xml:space="preserve">
<style type="text/css">
	.st0{opacity:0.8;clip-path:url(#SVGID_2_);}
	.st1{clip-path:url(#SVGID_4_);fill-rule:evenodd;clip-rule:evenodd;fill:#D8D9D9;}
</style>
<g>
	<defs>
		<rect id="SVGID_1_" x="-494.7" y="-709.4" width="1920" height="2296.9"/>
	</defs>
	<clipPath id="SVGID_2_">
		<use xlink:href="#SVGID_1_"  style="overflow:visible;"/>
	</clipPath>
	<g class="st0">
		<g>
			<defs>
				<rect id="SVGID_3_" x="-0.4" y="0.4" width="165.7" height="116.7"/>
			</defs>
			<clipPath id="SVGID_4_">
				<use xlink:href="#SVGID_3_"  style="overflow:visible;"/>
			</clipPath>
			<path class="st1" d="M65.3,98.2c1.7,0,3.2-0.8,4.2-2l7.4-8.3v23.5c0,3.3,2.9,5.6,6.2,5.6c3.3,0,5.7-2.3,5.7-5.6V87.9l7.4,8.3
				c1.1,1.2,2.7,2,4.4,2c3.3,0,6.1-2.7,6.1-5.9c0-0.2,0-0.4,0-0.6c-0.1-1.3-0.7-2.5-1.5-3.4L87.3,68.5l0,0c-1.1-1.2-2.6-2-4.4-2
				c-1.7,0-3.3,0.8-4.4,2l0,0L60.9,88.3c-0.8,0.9-1.4,2.1-1.5,3.4v0c0,0.2,0,0.4,0,0.6c0,0.2,0,0.4,0,0.6
				C59.7,95.9,62.2,98.2,65.3,98.2 M137.8,38.3c-8.6-22.2-30.1-38-55.4-38c-25.2,0-46.7,15.8-55.4,38C11.2,43.2-0.4,58-0.4,75.5
				c0,21.5,17.4,38.8,38.8,38.8c4.3,0,7.8-3.5,7.8-7.8c0-4.3-3.5-7.8-7.8-7.8c-12.9,0-23.3-10.4-23.3-23.3c0-6.9,3.1-13.2,7.9-17.4
				c0.5-0.4,1-0.9,1.5-1.3c0,0,0.1-0.1,0.1-0.1c0.5-0.4,1-0.7,1.6-1.1c0.1-0.1,0.2-0.1,0.2-0.2c0.5-0.3,1-0.6,1.5-0.8
				c0.1-0.1,0.3-0.1,0.4-0.2c0.5-0.2,1-0.4,1.5-0.6c0.2-0.1,0.4-0.2,0.7-0.2c0.4-0.2,0.9-0.3,1.3-0.5c0.3-0.1,0.6-0.2,0.9-0.2
				c0.4-0.1,0.8-0.2,1.2-0.3c0.4-0.1,0.9-0.1,1.3-0.2c0.3,0,0.6-0.1,0.9-0.1c0.7-0.1,1.5-0.1,2.3-0.1c0.2,0,0.5,0,0.7,0
				c0.2-1.3,0.5-2.6,0.9-3.9c0.1-0.3,0.2-0.6,0.3-0.9c0.3-1,0.6-1.9,0.9-2.9c0.1-0.3,0.2-0.6,0.4-0.8c0.4-1,0.8-1.9,1.2-2.8
				c0.1-0.2,0.2-0.4,0.3-0.7c0.5-1,1-1.9,1.5-2.8c7.7-12.8,21.7-21.4,37.7-21.4c16,0,30,8.6,37.7,21.4c0.6,0.9,1.1,1.9,1.5,2.8
				c0.1,0.2,0.2,0.4,0.3,0.7c0.4,0.9,0.8,1.9,1.2,2.8c0.1,0.3,0.2,0.6,0.4,0.8c0.4,0.9,0.7,1.9,0.9,2.9c0.1,0.3,0.2,0.6,0.3,0.9
				c0.4,1.3,0.7,2.6,0.9,3.9c0.2,0,0.5,0,0.7,0c0.8,0,1.5,0,2.3,0.1c0.3,0,0.6,0.1,0.9,0.1c0.4,0.1,0.9,0.1,1.3,0.2
				c0.4,0.1,0.8,0.2,1.2,0.3c0.3,0.1,0.6,0.1,0.9,0.2c0.5,0.1,0.9,0.3,1.3,0.5c0.2,0.1,0.4,0.1,0.7,0.2c0.5,0.2,1,0.4,1.5,0.6
				c0.1,0.1,0.3,0.1,0.4,0.2c0.5,0.3,1,0.5,1.5,0.8c0.1,0.1,0.2,0.1,0.2,0.2c0.5,0.3,1.1,0.7,1.6,1.1c0,0,0.1,0.1,0.1,0.1
				c0.5,0.4,1.1,0.8,1.5,1.3c4.8,4.3,7.9,10.5,7.9,17.4c0,12.9-10.4,23.3-23.3,23.3c-4.3,0-7.8,3.5-7.8,7.8c0,4.3,3.5,7.8,7.8,7.8
				c21.5,0,38.8-17.4,38.8-38.8C165.3,58,153.7,43.2,137.8,38.3"/>
		</g>
	</g>
</g>
</svg>
