<?xml version="1.0" encoding="utf-8"?>
<!-- Generator: Adobe Illustrator 21.0.0, SVG Export Plug-In . SVG Version: 6.00 Build 0)  -->
<svg version="1.1" id="图层_1" xmlns="http://www.w3.org/2000/svg" xmlns:xlink="http://www.w3.org/1999/xlink" x="0px" y="0px"
	 viewBox="0 0 82 80" style="enable-background:new 0 0 82 80;" xml:space="preserve">
<style type="text/css">
	.st0{fill-rule:evenodd;clip-rule:evenodd;fill:#858585;}
</style>
<path class="st0" d="M-82.1,84.8H-93c-1.1,0-2.1-0.8-2.3-1.9l-1.6-5.5h-5.9c-0.2,0-0.4,0-0.6-0.1c-8.6-0.8-15.3-8.2-15.3-16.9
	c0-8.7,6.7-16.1,15.3-16.9c0.2-0.1,0.4-0.1,0.6-0.1h5.6l2.1-4.6c0.4-0.8,1.2-1.4,2.2-1.4h10.9c1.3,0,2.4,1.1,2.4,2.4v42.6
	C-79.7,83.8-80.8,84.8-82.1,84.8 M-91.2,80.1h6.7V42.2h-7l-2.1,4.6c-0.4,0.8-1.2,1.4-2.2,1.4h-6.7c-0.1,0-0.2,0-0.2,0
	c-6.4,0.5-11.3,5.8-11.3,12.2c0,6.4,5,11.7,11.3,12.2c0.1,0,0.2,0,0.2,0h7.2c1.1,0,2,0.7,2.3,1.7L-91.2,80.1"/>
<path class="st0" d="M-93,84.6c-0.8,0-1.5-0.4-1.9-1v7.6c0,1.7-1.4,3.1-3.1,3.1h-12.9v14.2l-27.5-6V83.6l-0.8-0.7
	c-5.2-4.1-8.7-9.6-10.1-15.8h32.2c-0.6-1.4-1-2.9-1.2-4.4H-150c0-0.7-0.1-1.4-0.1-2.1c0-0.8,0.1-1.5,0.1-2.2h31.6
	c0.2-1.5,0.6-3,1.1-4.4h-32c3-12.5,14.2-21.8,27.6-21.8c9.3,0,17.5,4.5,22.7,11.4h1.9l1.4-3c-6-7.8-15.4-12.8-25.9-12.8
	c-18.1,0-32.8,14.7-32.8,32.8c0,9.8,4.3,18.8,11.7,25.1v20.2l36.3,8V98.7h8.5c4.1,0,7.5-3.4,7.5-7.5v-6.5L-93,84.6L-93,84.6"/>
<path class="st0" d="M69.2,64.6c0,3.5-2.8,6.3-6.3,6.3H14.2c-3.4,0-6.3-2.8-6.3-6.3V15.8c0-3.5,2.8-6.3,6.3-6.3H63
	c3.3,0,6,2.6,6.2,5.8l3.4-3.4l1.3-1.3C72,6.6,67.8,3.7,63,3.7H14.2C7.5,3.7,2.1,9.2,2.1,15.8v48.8c0,6.7,5.4,12.1,12.1,12.1H63
	c6.7,0,12.1-5.4,12.1-12.1v-35l-5.8,5.8V64.6z"/>
<rect x="18.8" y="23.4" class="st0" width="5.8" height="5.8"/>
<polygon class="st0" points="58.3,26.2 58.3,23.4 28.7,23.4 28.7,29.2 55.4,29.2 "/>
<rect x="18.8" y="37.3" class="st0" width="5.8" height="5.8"/>
<polygon class="st0" points="47.3,37.3 28.7,37.3 28.7,43.1 41.4,43.1 "/>
<rect x="18.8" y="51.3" class="st0" width="5.8" height="5.8"/>
<polygon class="st0" points="28.7,51.3 28.7,57.1 33.3,57.1 33.3,53 33.3,51.3 "/>
<polygon class="st0" points="53.4,51.3 47.5,57.1 58.3,57.1 58.3,51.3 "/>
<polygon class="st0" points="75.5,15 75.1,15.4 69.2,21.3 53.2,37.3 47.3,43.1 39.2,51.3 37.5,53 37.5,57.1 41.6,57.1 47.5,51.3 
	55.6,43.1 58.3,40.4 69.2,29.5 75.1,23.7 79.6,19.1 "/>
</svg>
