<?xml version="1.0" encoding="utf-8"?>
<!-- Generator: Adobe Illustrator 21.0.0, SVG Export Plug-In . SVG Version: 6.00 Build 0)  -->
<svg version="1.1" id="图层_1" xmlns="http://www.w3.org/2000/svg" xmlns:xlink="http://www.w3.org/1999/xlink" x="0px" y="0px"
	 viewBox="0 0 31 22" style="enable-background:new 0 0 31 22;" xml:space="preserve">
<style type="text/css">
	.st0{fill:#858585;}
	.st1{fill-rule:evenodd;clip-rule:evenodd;fill:#FFFFFF;}
</style>
<path class="st0" d="M30.1,19.1c0,1.6-1.3,2.9-2.9,2.9H3.5c-1.6,0-2.9-1.3-2.9-2.9V3.5c0-1.6,1.3-2.9,2.9-2.9h23.6
	c1.6,0,2.9,1.3,2.9,2.9V19.1z"/>
<path class="st1" d="M20.7,6.1h1.6V3.7h-2.1v0c-2.7,0.1-3.3,1.6-3.3,3.2h0v1.7h-1.6V11h1.6v7.4h2.9V11h2.1l0.4-2.4h-2.5V7.1
	C19.8,6.5,20.2,6.1,20.7,6.1"/>
</svg>
