<?xml version="1.0" encoding="utf-8"?>
<!-- Generator: Adobe Illustrator 21.0.0, SVG Export Plug-In . SVG Version: 6.00 Build 0)  -->
<svg version="1.1" id="图层_1" xmlns="http://www.w3.org/2000/svg" xmlns:xlink="http://www.w3.org/1999/xlink" x="0px" y="0px"
	 viewBox="0 0 98 90" style="enable-background:new 0 0 98 90;" xml:space="preserve">
<style type="text/css">
	.st0{fill-rule:evenodd;clip-rule:evenodd;fill:#D3D4D4;}
</style>
<path class="st0" d="M-207.6-81.8c0,9.4,8.2,17.1,18.3,17.1c10.1,0,18.3-7.7,18.3-17.1V-82c-1.9,1.9-4.6,3-7.6,3
	c-5.9,0-10.7-4.5-10.7-10c0-4,2.5-7.4,6.1-9c-1.9-0.6-4-0.9-6.1-0.9C-199.4-98.9-207.6-91.2-207.6-81.8 M-120-91.5
	c-11.4-13.5-39.2-35.9-69.3-35.9c-30.2,0-58,22.4-69.3,35.9c-2.6,3-4,6.4-4,9.7c0.1,3.3,1.5,6.7,4,9.7
	c11.4,13.5,39.1,35.9,69.3,35.9s57.9-22.4,69.3-35.9c2.6-3.1,4-6.4,4.1-9.7C-116-85.2-117.3-88.5-120-91.5 M-189.2-53.3
	c-16.9,0-30.6-12.8-30.6-28.5c0-15.8,13.7-28.5,30.6-28.5c16.9,0,30.6,12.8,30.6,28.5C-158.6-66.1-172.3-53.3-189.2-53.3"/>
<path class="st0" d="M98.3-195.7l-43.8,17.9l-43.9-17.9l43.8-17L98.3-195.7z M6.9-188.3L50.7-170v49.5c-3.5-1.5-7.1-3.1-10.8-4.8
	c-3.2-1.4-6.8-3-10.9-4.7c-4-1.7-8.1-3.5-12.2-5.2c-1.5-0.7-2.8-1.6-4-2.7c-1.2-1.1-2.2-2.3-3.1-3.6c-0.9-1.3-1.5-2.7-2-4.2
	c-0.5-1.5-0.7-2.9-0.7-4.3L6.9-188.3L6.9-188.3z M101.1-188.3v38c0,1.7-0.3,3.4-1,5.1c-0.7,1.6-1.5,3.2-2.6,4.6
	c-1,1.4-2.2,2.7-3.5,3.8c-1.3,1.1-2.5,2-3.7,2.6c-3.5,1.5-7.3,3-11.1,4.6c-3.9,1.6-7.5,3.1-10.7,4.4c-3.8,1.6-7.6,3.1-11.2,4.6V-170
	L101.1-188.3z"/>
<path class="st0" d="M94.8,56c0,0-6.6-10.2-9.8-12.5c0,0,2.9-5.5-0.4-9.5c0,0,3.1-5.9,3.8-13.2C88.2,20.8,100.1,33.8,94.8,56
	 M69.4,31.6C56.6,23.9,42,23,42,23c-0.1-2.5-3.6-5.1-3.6-5.1c1.5-5.5,10.8-17.5,10.8-17.5c23.7,0.5,35,14.8,35,14.8
	c-0.6,9.9-3.7,15.2-3.7,15.2C75,27.1,69.4,31.6,69.4,31.6 M22.8,24c0,0-9.2,1.6-17.3,5.8c0,0,8.2-24.2,36.5-28.8c0,0-4.3,6-8.4,15.5
	C33.5,16.4,24.9,15.5,22.8,24 M29.2,34.9c-1.2,12.9,3.7,25,3.7,25c-4,3-4,9-4,9c-10,1-19.9-1.1-19.9-1.1
	c-9.6-15.1-5.6-31.2-5.6-31.2c7.7-5.4,19.6-7.8,19.6-7.8C24.2,33.8,29.2,34.9,29.2,34.9 M31.5,73.4c2.8,5.6,11,3.6,11,3.6
	C44.6,80.1,55,89.6,55,89.6c-29.3,2.6-42-16.2-42-16.2C20.9,75,31.5,73.4,31.5,73.4 M70.7,46.9c0,0-6.7,9.8-22.1,16.7
	c0,0-3-6.8-11-5.5c0,0-3.2-6-3.3-22.9c0,0,6.8,0.4,8-7.4c0,0,13.5,1.2,24.3,7.4C66.6,35.2,64,43.1,70.7,46.9 M46.6,74.1
	c0,0,2-0.8,2.8-5.6c0,0,16.3-5.5,26.3-20.2c0,0,3.2,0.2,5.4-1.5c0,0,7.6,6.8,11.2,15.7c0,0-7.1,19.4-30,25.7
	C62.2,88.3,51.9,81.8,46.6,74.1"/>
</svg>
