<?xml version="1.0" encoding="utf-8"?>
<!-- Generator: Adobe Illustrator 21.0.0, SVG Export Plug-In . SVG Version: 6.00 Build 0)  -->
<svg version="1.1" id="图层_1" xmlns="http://www.w3.org/2000/svg" xmlns:xlink="http://www.w3.org/1999/xlink" x="0px" y="0px"
	 viewBox="0 0 29 20" style="enable-background:new 0 0 29 20;" xml:space="preserve">
<style type="text/css">
	.st0{fill-rule:evenodd;clip-rule:evenodd;fill:#FFFFFF;}
</style>
<path class="st0" d="M-74.2-60.1c-5.5,0-10-4.5-10-10c0-5.5,4.5-10,10-10c5.5,0,10,4.5,10,10C-64.1-64.6-68.6-60.1-74.2-60.1
	 M-74.2-78.7c-4.7,0-8.5,3.8-8.5,8.5s3.8,8.5,8.5,8.5c4.7,0,8.5-3.8,8.5-8.5S-69.4-78.7-74.2-78.7 M-69.3-68.8h-5.1
	c-0.1,0-0.3-0.1-0.4-0.2c-0.1-0.1-0.2-0.2-0.2-0.4v-6.1c0-0.3,0.2-0.5,0.5-0.5h0.5c0.3,0,0.5,0.2,0.5,0.5v5.1h4.1
	c0.3,0,0.5,0.2,0.5,0.5v0.5C-68.8-69.1-69-68.8-69.3-68.8"/>
<path class="st0" d="M26.6,2.9l-4.7,2.3V2.9c0-1.3-1-2.3-2.3-2.3H3.2c-1.3,0-2.3,1-2.3,2.3v14c0,1.3,1,2.3,2.3,2.3h16.3
	c1.3,0,2.3-1,2.3-2.3v-2.3l4.7,2.3c1.3,0,2.3-1,2.3-2.3V5.2C28.9,3.9,27.8,2.9,26.6,2.9 M19.6,16.9H3.2v-14h16.3V16.9z M26.6,14.3
	l-3.6-1.9c-0.4-0.1-0.7-0.2-1.1-0.2V7.6c0.3,0,0.7-0.1,1.1-0.2l3.6-1.9V14.3z"/>
</svg>
