<?xml version="1.0" encoding="utf-8"?>
<!-- Generator: Adobe Illustrator 21.0.0, SVG Export Plug-In . SVG Version: 6.00 Build 0)  -->
<svg version="1.1" id="图层_1" xmlns="http://www.w3.org/2000/svg" xmlns:xlink="http://www.w3.org/1999/xlink" x="0px" y="0px"
	 viewBox="0 0 24 24" style="enable-background:new 0 0 24 24;" xml:space="preserve">
<style type="text/css">
	.st0{fill-rule:evenodd;clip-rule:evenodd;fill:#FFFFFF;}
</style>
<path class="st0" d="M-74.8,70h-14.9c-1.7,0-3-1.3-3-3V52.1c0-1.7,1.4-3.3,3-3.3h8.4v1.5h-8.4c-0.8,0-1.5,0.7-1.5,1.5l0,15.2
	c0,0.8,0.7,1.5,1.5,1.5l15.2,0c0.8,0,1.5-0.7,1.5-1.5v-8.4h1.5V67C-71.5,68.7-73.2,70-74.8,70 M-72.3,55.6c-0.4,0-0.8-0.3-0.8-0.8
	l0-3.6l-11.6,11c-0.3,0.3-0.8,0.3-1.1,0c-0.3-0.3-0.3-0.8,0-1l11.5-10.9l-3.3,0c-0.4,0-0.8-0.3-0.8-0.8c0-0.4,0.3-0.8,0.8-0.8h5.3
	c0.4,0,0.8,0.3,0.8,0.7v5.3C-71.5,55.3-71.8,55.6-72.3,55.6"/>
<path class="st0" d="M9,11.5c0-1.1,0.9-2,2-2h10.1c1.1,0,2,0.9,2,2v10.1c0,1.1-0.9,2-2,2H11c-1.1,0-2-0.9-2-2V11.5z"/>
<path class="st0" d="M7.4,10c0-1.1,0.9-2,2-2h3.1c1.1,0,2-0.9,2-2V2.9c0-1.1-0.9-2-2-2H2.4c-1.1,0-2,0.9-2,2V13c0,1.1,0.9,2,2,2h3.1
	c1.1,0,2-0.9,2-2V10z"/>
</svg>
