<?xml version="1.0" encoding="utf-8"?>
<!-- Generator: Adobe Illustrator 21.0.0, SVG Export Plug-In . SVG Version: 6.00 Build 0)  -->
<svg version="1.1" id="图层_1" xmlns="http://www.w3.org/2000/svg" xmlns:xlink="http://www.w3.org/1999/xlink" x="0px" y="0px"
	 viewBox="0 0 31 22" style="enable-background:new 0 0 31 22;" xml:space="preserve">
<style type="text/css">
	.st0{fill:#858585;}
	.st1{fill-rule:evenodd;clip-rule:evenodd;fill:#FFFFFF;}
</style>
<path class="st0" d="M30.2,19.1c0,1.6-1.3,2.9-2.9,2.9H3.7c-1.6,0-2.9-1.3-2.9-2.9V3.5c0-1.6,1.3-2.9,2.9-2.9h23.6
	c1.6,0,2.9,1.3,2.9,2.9V19.1z"/>
<path class="st1" d="M24.3,6.6c-0.5,0.2-1.1,0.4-1.7,0.5c0.6-0.4,1.1-1,1.3-1.7C23.3,5.8,22.7,6,22,6.2c-0.6-0.6-1.3-1-2.2-1
	c-1.7,0-3,1.4-3,3c0,0.2,0,0.5,0.1,0.7c-2.5-0.1-4.8-1.3-6.3-3.2c-0.3,0.4-0.4,1-0.4,1.5c0,1.1,0.5,2,1.4,2.5c-0.5,0-1-0.2-1.4-0.4
	v0c0,1.5,1,2.7,2.4,3c-0.3,0.1-0.5,0.1-0.8,0.1c-0.2,0-0.4,0-0.6-0.1c0.4,1.2,1.5,2.1,2.8,2.1c-1,0.8-2.3,1.3-3.8,1.3
	c-0.2,0-0.5,0-0.7,0c1.3,0.9,2.9,1.4,4.7,1.4c5.6,0,8.6-4.6,8.6-8.6c0-0.1,0-0.3,0-0.4C23.4,7.8,23.9,7.3,24.3,6.6"/>
</svg>
