<?xml version="1.0" encoding="utf-8"?>
<!-- Generator: Adobe Illustrator 21.0.0, SVG Export Plug-In . SVG Version: 6.00 Build 0)  -->
<svg version="1.1" id="图层_1" xmlns="http://www.w3.org/2000/svg" xmlns:xlink="http://www.w3.org/1999/xlink" x="0px" y="0px"
	 viewBox="0 0 49 48" style="enable-background:new 0 0 49 48;" xml:space="preserve">
<style type="text/css">
	.st0{display:none;}
	.st1{display:inline;}
	.st2{display:inline;opacity:0.8;clip-path:url(#SVGID_2_);}
	.st3{clip-path:url(#SVGID_4_);fill-rule:evenodd;clip-rule:evenodd;fill:#D8D9D9;}
	.st4{clip-path:url(#SVGID_6_);fill-rule:evenodd;clip-rule:evenodd;fill:#727171;}
	.st5{fill-rule:evenodd;clip-rule:evenodd;fill:#D8D9D9;}
	.st6{fill-rule:evenodd;clip-rule:evenodd;fill:#9B9C9C;}
</style>
<g class="st0">
	<defs>
		<rect id="SVGID_1_" x="-222.7" y="-836.4" width="1920" height="2296.9"/>
	</defs>
	<clipPath id="SVGID_2_" class="st1">
		<use xlink:href="#SVGID_1_"  style="overflow:visible;"/>
	</clipPath>
	<g class="st2">
		<g>
			<defs>
				<rect id="SVGID_3_" x="271.6" y="-126.6" width="165.7" height="116.7"/>
			</defs>
			<clipPath id="SVGID_4_">
				<use xlink:href="#SVGID_3_"  style="overflow:visible;"/>
			</clipPath>
			<path class="st3" d="M337.3-28.8c1.7,0,3.2-0.8,4.2-2l7.4-8.3v23.5c0,3.3,2.9,5.6,6.2,5.6c3.3,0,5.7-2.3,5.7-5.6v-23.5l7.4,8.3
				c1.1,1.2,2.7,2,4.4,2c3.3,0,6.1-2.7,6.1-5.9c0-0.2,0-0.4,0-0.6c-0.1-1.3-0.7-2.5-1.5-3.4l-17.9-19.8l0,0c-1.1-1.2-2.6-2-4.4-2
				c-1.7,0-3.3,0.8-4.4,2l0,0l-17.6,19.8c-0.8,0.9-1.4,2.1-1.5,3.4v0c0,0.2,0,0.4,0,0.6c0,0.2,0,0.4,0,0.6
				C331.7-31.1,334.2-28.8,337.3-28.8 M409.8-88.7c-8.6-22.2-30.1-38-55.4-38c-25.2,0-46.7,15.8-55.4,38
				c-15.9,4.9-27.5,19.6-27.5,37.1c0,21.5,17.4,38.8,38.8,38.8c4.3,0,7.8-3.5,7.8-7.8c0-4.3-3.5-7.8-7.8-7.8
				c-12.9,0-23.3-10.4-23.3-23.3c0-6.9,3.1-13.2,7.9-17.4c0.5-0.4,1-0.9,1.5-1.3c0,0,0.1-0.1,0.1-0.1c0.5-0.4,1-0.7,1.6-1.1
				c0.1-0.1,0.2-0.1,0.2-0.2c0.5-0.3,1-0.6,1.5-0.8c0.1-0.1,0.3-0.1,0.4-0.2c0.5-0.2,1-0.4,1.5-0.6c0.2-0.1,0.4-0.2,0.7-0.2
				c0.4-0.2,0.9-0.3,1.3-0.5c0.3-0.1,0.6-0.2,0.9-0.2c0.4-0.1,0.8-0.2,1.2-0.3c0.4-0.1,0.9-0.1,1.3-0.2c0.3,0,0.6-0.1,0.9-0.1
				c0.7-0.1,1.5-0.1,2.3-0.1c0.2,0,0.5,0,0.7,0c0.2-1.3,0.5-2.6,0.9-3.9c0.1-0.3,0.2-0.6,0.3-0.9c0.3-1,0.6-1.9,0.9-2.9
				c0.1-0.3,0.2-0.6,0.4-0.8c0.4-1,0.8-1.9,1.2-2.8c0.1-0.2,0.2-0.4,0.3-0.7c0.5-1,1-1.9,1.5-2.8c7.7-12.8,21.7-21.4,37.7-21.4
				c16,0,30,8.6,37.7,21.4c0.6,0.9,1.1,1.9,1.5,2.8c0.1,0.2,0.2,0.4,0.3,0.7c0.4,0.9,0.8,1.9,1.2,2.8c0.1,0.3,0.2,0.6,0.4,0.8
				c0.4,0.9,0.7,1.9,0.9,2.9c0.1,0.3,0.2,0.6,0.3,0.9c0.4,1.3,0.7,2.6,0.9,3.9c0.2,0,0.5,0,0.7,0c0.8,0,1.5,0,2.3,0.1
				c0.3,0,0.6,0.1,0.9,0.1c0.4,0.1,0.9,0.1,1.3,0.2c0.4,0.1,0.8,0.2,1.2,0.3c0.3,0.1,0.6,0.1,0.9,0.2c0.5,0.1,0.9,0.3,1.3,0.5
				c0.2,0.1,0.4,0.1,0.7,0.2c0.5,0.2,1,0.4,1.5,0.6c0.1,0.1,0.3,0.1,0.4,0.2c0.5,0.3,1,0.5,1.5,0.8c0.1,0.1,0.2,0.1,0.2,0.2
				c0.5,0.3,1.1,0.7,1.6,1.1c0,0,0.1,0.1,0.1,0.1c0.5,0.4,1.1,0.8,1.5,1.3c4.8,4.3,7.9,10.5,7.9,17.4c0,12.9-10.4,23.3-23.3,23.3
				c-4.3,0-7.8,3.5-7.8,7.8c0,4.3,3.5,7.8,7.8,7.8c21.5,0,38.8-17.4,38.8-38.8C437.3-69,425.7-83.8,409.8-88.7"/>
		</g>
	</g>
</g>
<g>
	<defs>
		<rect id="SVGID_5_" x="-767.7" y="-745.2" width="1920" height="2296.9"/>
	</defs>
	<clipPath id="SVGID_6_">
		<use xlink:href="#SVGID_5_"  style="overflow:visible;"/>
	</clipPath>
	<path class="st4" d="M160.5,224h-33.5c-2.4,0-4.4-2-4.4-4.4v-45.2c0-2.4,2-4.4,4.4-4.4h33.5c2.4,0,4.4,2,4.4,4.4v45.2
		C164.8,222.1,162.9,224,160.5,224 M161.9,175.9c0-1.6-1.3-2.9-2.9-2.9h-30.6c-1.6,0-2.9,1.3-2.9,2.9v42.3c0,1.6,1.3,2.9,2.9,2.9
		H159c1.6,0,2.9-1.3,2.9-2.9V175.9z M148.8,216.7h-10.2c-0.8,0-1.5-0.7-1.5-1.5c0-0.8,0.7-1.5,1.5-1.5h10.2c0.8,0,1.5,0.7,1.5,1.5
		C150.2,216.1,149.6,216.7,148.8,216.7"/>
	<path class="st4" d="M136.8-18.8c-3.8,0-6.9-3.1-6.9-6.9c0-3.8,3.1-6.9,6.9-6.9c3.8,0,6.9,3.1,6.9,6.9
		C143.7-21.9,140.6-18.8,136.8-18.8 M136.8-30.5c-2.7,0-4.8,2.2-4.8,4.8c0,2.7,2.2,4.8,4.8,4.8c2.7,0,4.8-2.2,4.8-4.8
		C141.6-28.3,139.4-30.5,136.8-30.5"/>
	<path class="st4" d="M171.3,9.1h-42.7c-4,0-7.3-3.4-7.3-7.6v-35c0-4.2,3.3-7.6,7.3-7.6h42.7c4,0,7.3,3.4,7.3,7.6v35
		C178.6,5.7,175.3,9.1,171.3,9.1 M128.6-39c-2.9,0-5.2,2.5-5.2,5.5v35c0,3.1,2.3,5.5,5.2,5.5h42.7c2.9,0,5.2-2.5,5.2-5.5v-35
		c0-3.1-2.3-5.5-5.2-5.5H128.6z"/>
	<path class="st4" d="M123.1,4.4c-0.3,0-0.5-0.1-0.7-0.3c-0.4-0.4-0.4-1.1,0-1.5l12.2-12.2c1.4-1.4,3.2-2.1,5.2-2.1s3.8,0.8,5.2,2.1
		l6.6,6.6c0.4,0.4,0.4,1.1,0,1.5c-0.4,0.4-1.1,0.4-1.5,0l-6.6-6.6c-1-1-2.3-1.5-3.7-1.5c-1.4,0-2.7,0.5-3.7,1.5L123.9,4.1
		C123.6,4.3,123.4,4.4,123.1,4.4"/>
	<path class="st4" d="M146.6-5.9c-0.3,0-0.5-0.1-0.7-0.3c-0.4-0.4-0.4-1.1,0-1.5l13.3-13.3c1.5-1.5,3.5-2.3,5.6-2.3
		c2.1,0,4.1,0.8,5.6,2.3l7.2,7.2c0.4,0.4,0.4,1.1,0,1.5c-0.4,0.4-1.1,0.4-1.5,0l-7.2-7.2c-1.1-1.1-2.6-1.7-4.1-1.7
		c-1.6,0-3,0.6-4.1,1.7L147.3-6.2C147.1-6,146.9-5.9,146.6-5.9"/>
	<path class="st4" d="M183.3,70.2c-1.4-0.9-3.2-0.9-5,0L165,76.6V74c0-3.9-3.2-7.1-7.1-7.1h-31c-3.9,0-7.1,2.8-7.1,6.1v27.9
		c0,4.1,1.8,7.1,4.3,7.1h2.9v-2.9H124c-0.3,0-1.4-1.4-1.4-4.3V73c0-1.8,2-3.3,4.3-3.3h31c2.4,0,4.3,1.9,4.3,4.3v26.9
		c0,2.4-1.9,4.3-4.3,4.3h-22v2.9h22c3.9,0,7.1-3.2,7.1-7.1v-2.6l13.3,6.5c0.9,0.4,1.8,0.7,2.7,0.7c0.8,0,1.6-0.2,2.3-0.6
		c1.4-0.9,2.2-2.5,2.2-4.5V74.7C185.5,72.7,184.7,71.1,183.3,70.2 M182.6,100.2c0,1-0.3,1.8-0.8,2.1c-0.5,0.3-1.4,0.3-2.2-0.2
		L165,95V79.8l14.5-7c0.9-0.4,1.7-0.5,2.3-0.2c0.5,0.3,0.8,1.1,0.8,2.1V100.2z"/>
	<path class="st4" d="M128,77.2c0,1.1,0.9,2.1,2.1,2.1c1.1,0,2.1-0.9,2.1-2.1c0-1.1-0.9-2.1-2.1-2.1C128.9,75.1,128,76,128,77.2"/>
	<rect x="126.9" y="105.1" class="st4" width="11.4" height="2.9"/>
</g>
<path class="st5" d="M383.8,52.5l-14.4-83c-0.8-5.1-5.1-9.1-10.4-9.3h-67.3c-5.4,0.2-9.8,4.3-10.4,9.5l-14.4,82.7
	c-0.5,1.7-0.9,3.4-0.9,5.2c0,9.4,7.6,17,17,17h84.8c9.4,0,17-7.6,17-17C384.7,55.9,384.4,54.2,383.8,52.5 M290.1-31.3h70.5
	l12.7,73.1c-1.8-0.6-3.6-1-5.6-1H283c-2,0-3.8,0.4-5.6,1L290.1-31.3z M367.8,66.2H283c-4.7,0-8.5-3.8-8.5-8.5c0-4.7,3.8-8.5,8.5-8.5
	h84.8c4.7,0,8.5,3.8,8.5,8.5C376.3,62.4,372.5,66.2,367.8,66.2 M312.7,19.6h25.4c4.7,0,8.5-3.8,8.5-8.5s-3.8-8.5-8.5-8.5
	c0-7-5.7-12.7-12.7-12.7c-7,0-12.7,5.7-12.7,12.7c-4.7,0-8.5,3.8-8.5,8.5S308,19.6,312.7,19.6 M363.5,53.5c-2.3,0-4.2,1.9-4.2,4.2
	c0,2.3,1.9,4.2,4.2,4.2c2.3,0,4.2-1.9,4.2-4.2C367.8,55.4,365.9,53.5,363.5,53.5"/>
<path class="st6" d="M46.1,11.8c0-0.1,0-0.2-0.1-0.3c-0.1-0.3-0.2-0.7-0.5-0.9l-8-8C37.1,2.2,36.6,2,36.1,2H12c-0.5,0-1,0.2-1.4,0.6
	l-8,8c-0.2,0.2-0.4,0.6-0.5,0.9c0,0.1,0,0.2-0.1,0.3C2,11.9,2,11.9,2,12v28.3c0,3.2,2.6,5.8,5.8,5.8h32.6c3.2,0,5.8-2.6,5.8-5.8V12
	C46.1,11.9,46.1,11.9,46.1,11.8 M30.3,32.7l-4.8,4.8c-0.4,0.4-0.9,0.6-1.4,0.6c-0.5,0-1-0.2-1.4-0.6l-4.8-4.8
	c-0.8-0.8-0.8-2.1,0-2.8c0.8-0.8,2.1-0.8,2.8,0l1.4,1.4V20.1c0-1.1,0.9-2,2-2c1.1,0,2,0.9,2,2v11.2l1.4-1.4c0.8-0.8,2.1-0.8,2.8,0
	C31.1,30.7,31.1,31.9,30.3,32.7 M8.8,10l4-4h22.4l4,4H8.8z"/>
</svg>
