<?xml version="1.0" encoding="utf-8"?>
<!-- Generator: Adobe Illustrator 21.0.0, SVG Export Plug-In . SVG Version: 6.00 Build 0)  -->
<svg version="1.1" id="图层_1" xmlns="http://www.w3.org/2000/svg" xmlns:xlink="http://www.w3.org/1999/xlink" x="0px" y="0px"
	 viewBox="0 0 147 144" style="enable-background:new 0 0 147 144;" xml:space="preserve">
<style type="text/css">
	.st0{fill-rule:evenodd;clip-rule:evenodd;fill:#D3D4D4;}
</style>
<image style="overflow:visible;" width="1024" height="515" xlink:href="3335B1392447D607.jpg"  transform="matrix(1.875 0 0 1.875 -437 -1080)">
</image>
<path class="st0" d="M341.7,23.8c0,0-5-7.8-7.6-9.6c0,0,2.2-4.2-0.3-7.3c0,0,2.4-4.5,2.9-10.1C336.7-3.2,345.8,6.8,341.7,23.8
	 M322.2,5.1c-9.8-5.9-21-6.6-21-6.6c-0.1-1.9-2.8-3.9-2.8-3.9c1.2-4.2,8.3-13.5,8.3-13.5c18.2,0.4,26.9,11.4,26.9,11.4
	c-0.5,7.6-2.8,11.7-2.8,11.7C326.5,1.6,322.2,5.1,322.2,5.1 M286.5-0.8c0,0-7.1,1.2-13.3,4.4c0,0,6.3-18.6,28-22.1
	c0,0-3.3,4.6-6.5,11.9C294.7-6.6,288-7.3,286.5-0.8 M291.4,7.6c-0.9,9.9,2.8,19.2,2.8,19.2c-3.1,2.3-3.1,6.9-3.1,6.9
	c-7.6,0.7-15.2-0.9-15.2-0.9C268.5,21.3,271.6,9,271.6,9c5.9-4.2,15-6,15-6C287.5,6.7,291.4,7.6,291.4,7.6 M293.1,37.2
	c2.2,4.3,8.4,2.8,8.4,2.8c1.6,2.3,9.6,9.6,9.6,9.6c-22.5,2-32.2-12.4-32.2-12.4C285,38.4,293.1,37.2,293.1,37.2 M323.2,16.9
	c0,0-5.2,7.5-17,12.9c0,0-2.3-5.2-8.4-4.2c0,0-2.5-4.6-2.5-17.6c0,0,5.2,0.3,6.1-5.6c0,0,10.4,0.9,18.7,5.6
	C320.1,7.9,318.1,13.9,323.2,16.9 M304.7,37.7c0,0,1.6-0.6,2.1-4.3c0,0,12.5-4.2,20.2-15.5c0,0,2.4,0.2,4.2-1.1c0,0,5.8,5.2,8.6,12
	c0,0-5.4,14.9-23.1,19.7C316.7,48.6,308.8,43.7,304.7,37.7"/>
<path class="st0" d="M390,75.1H224.2c-4.9,0-9-4-9-9v-96.7c0-5,4-9,9-9H390c4.9,0,9,4,9,9v96.7C399,71,395,75.1,390,75.1 M388-28.5
	H226.3v93H388L388-28.5L388-28.5z M273.6,95c16.5,0,15.1-16.2,15.1-16.2l15.1,0v0l21.4-0.1c0,0-1.3,16.3,14,16.3
	c4.9,0,5.4,6.8,0.1,6.8h-27.5h-8h-30.3C267.8,101.7,268.4,95,273.6,95"/>
<path class="st0" d="M15.1,79.4V14h82.3v9.8h13.6V0.5H1.5v107.8H25v-29H15.1z M146.8,35.7H37.1v107.8h109.6V35.7z M133.1,114.6H50.8
	V49.2h82.3L133.1,114.6z"/>
</svg>
