<?xml version="1.0" encoding="utf-8"?>
<!-- Generator: Adobe Illustrator 21.0.0, SVG Export Plug-In . SVG Version: 6.00 Build 0)  -->
<svg version="1.1" id="图层_1" xmlns="http://www.w3.org/2000/svg" xmlns:xlink="http://www.w3.org/1999/xlink" x="0px" y="0px"
	 viewBox="0 0 152 154" style="enable-background:new 0 0 152 154;" xml:space="preserve">
<style type="text/css">
	.st0{fill-rule:evenodd;clip-rule:evenodd;fill:#D3D4D4;}
</style>
<image style="overflow:visible;" width="1024" height="515" xlink:href="B5BCBFA18CA7105B.jpg"  transform="matrix(1.875 0 0 1.875 -203 -1082)">
</image>
<path class="st0" d="M575.7,21.8c0,0-5-7.8-7.6-9.6c0,0,2.2-4.2-0.3-7.3c0,0,2.4-4.5,2.9-10.1C570.7-5.2,579.8,4.8,575.7,21.8
	 M556.2,3.1c-9.8-5.9-21-6.6-21-6.6c-0.1-1.9-2.8-3.9-2.8-3.9c1.2-4.2,8.3-13.5,8.3-13.5c18.2,0.4,26.9,11.4,26.9,11.4
	c-0.5,7.6-2.8,11.7-2.8,11.7C560.5-0.4,556.2,3.1,556.2,3.1 M520.5-2.8c0,0-7.1,1.2-13.3,4.4c0,0,6.3-18.6,28-22.1
	c0,0-3.3,4.6-6.5,11.9C528.7-8.6,522-9.3,520.5-2.8 M525.4,5.6c-0.9,9.9,2.8,19.2,2.8,19.2c-3.1,2.3-3.1,6.9-3.1,6.9
	c-7.6,0.7-15.2-0.9-15.2-0.9C502.5,19.3,505.6,7,505.6,7c5.9-4.2,15-6,15-6C521.5,4.7,525.4,5.6,525.4,5.6 M527.1,35.2
	c2.2,4.3,8.4,2.8,8.4,2.8c1.6,2.3,9.6,9.6,9.6,9.6c-22.5,2-32.2-12.4-32.2-12.4C519,36.4,527.1,35.2,527.1,35.2 M557.2,14.9
	c0,0-5.2,7.5-17,12.9c0,0-2.3-5.2-8.4-4.2c0,0-2.5-4.6-2.5-17.6c0,0,5.2,0.3,6.1-5.6c0,0,10.4,0.9,18.7,5.6
	C554.1,5.9,552.1,11.9,557.2,14.9 M538.7,35.7c0,0,1.6-0.6,2.1-4.3c0,0,12.5-4.2,20.2-15.5c0,0,2.4,0.2,4.2-1.1c0,0,5.8,5.2,8.6,12
	c0,0-5.4,14.9-23.1,19.7C550.7,46.6,542.8,41.7,538.7,35.7"/>
<path class="st0" d="M624,73.1H458.2c-4.9,0-9-4-9-9v-96.7c0-5,4-9,9-9H624c4.9,0,9,4,9,9v96.7C633,69,629,73.1,624,73.1 M622-30.5
	H460.3v93H622L622-30.5L622-30.5z M507.6,93c16.5,0,15.1-16.2,15.1-16.2l15.1,0v0l21.4-0.1c0,0-1.3,16.3,14,16.3
	c4.9,0,5.4,6.8,0.1,6.8h-27.5h-8h-30.3C501.8,99.7,502.4,93,507.6,93"/>
<path class="st0" d="M249.1,77.4V12h82.3v9.8h13.6V-1.5H235.5v107.8H259v-29H249.1z M380.8,33.7H271.1v107.8h109.6V33.7z
	 M367.1,112.6h-82.3V47.2h82.3L367.1,112.6z"/>
<path class="st0" d="M48.1,81.5c2,11.8,11.3,21,23.1,23.1V95c-6.6-1.7-11.8-6.9-13.4-13.5L48.1,81.5L48.1,81.5z M80.5,104.6
	c11.8-2,21-11.3,23.1-23.1H94c-1.7,6.6-6.9,11.8-13.5,13.5L80.5,104.6L80.5,104.6z M103.6,72.2c-2-11.8-11.3-21-23.1-23.1v9.6
	c6.6,1.7,11.8,6.8,13.5,13.5H103.6z M71.2,49.1c-11.8,2-21,11.3-23.1,23.1h9.6c1.7-6.6,6.8-11.8,13.4-13.5V49.1z M24.5,81.5
	c2.2,24.7,21.9,44.4,46.6,46.6v-10.4c-19-2.1-34.2-17.2-36.3-36.3H24.5z M80.5,128.2c24.7-2.2,44.4-21.9,46.6-46.6h-10.3
	c-2.2,19-17.3,34.2-36.3,36.3L80.5,128.2L80.5,128.2z M127.2,72.2c-2.2-24.7-21.9-44.4-46.6-46.7v10.4c19,2.2,34.2,17.3,36.3,36.3
	H127.2z M71.2,25.5c-24.7,2.2-44.4,21.9-46.6,46.7h10.4C37,53.1,52.1,38,71.2,35.8V25.5z M1,81.5c2.3,37.7,32.5,67.8,70.2,70.1v-9.4
	C38.6,140,12.7,114,10.4,81.5H1z M80.5,151.7c37.7-2.3,67.8-32.5,70.1-70.1h-9.4C139,114,113,140,80.5,142.3V151.7z M150.7,72.2
	C148.3,34.5,118.2,4.3,80.5,2v9.4c32.5,2.3,58.5,28.3,60.7,60.8H150.7z M71.2,2C33.5,4.3,3.3,34.5,1,72.2h9.4
	c2.2-32.5,28.3-58.5,60.7-60.8V2z"/>
</svg>
