<?xml version="1.0" encoding="utf-8"?>
<!-- Generator: Adobe Illustrator 21.0.0, SVG Export Plug-In . SVG Version: 6.00 Build 0)  -->
<svg version="1.1" id="图层_1" xmlns="http://www.w3.org/2000/svg" xmlns:xlink="http://www.w3.org/1999/xlink" x="0px" y="0px"
	 viewBox="0 0 22 20.7" style="enable-background:new 0 0 22 20.7;" xml:space="preserve">
<style type="text/css">
	.st0{clip-path:url(#SVGID_2_);fill-rule:evenodd;clip-rule:evenodd;fill:#2292FF;}
	.st1{clip-path:url(#SVGID_2_);fill:none;stroke:#2292FF;stroke-miterlimit:10;}
	.st2{clip-path:url(#SVGID_2_);fill-rule:evenodd;clip-rule:evenodd;fill:#FFFFFF;}
	.st3{fill-rule:evenodd;clip-rule:evenodd;fill:#2292FF;}
</style>
<g>
	<defs>
		<rect id="SVGID_1_" x="-730" y="-1179.6" width="1920" height="1627.8"/>
	</defs>
	<clipPath id="SVGID_2_">
		<use xlink:href="#SVGID_1_"  style="overflow:visible;"/>
	</clipPath>
	<path class="st0" d="M435.8-3L435,1h-16.4l-0.7-4h-1.8v6.3h21.5V-3H435.8z M435.3-10.1h-5.4v-2.3h-6.2v2.3h-5.3l8.4,9L435.3-10.1
		 M429.9-16.4h-6.2v0.8h6.2V-16.4z M429.9-14.8h-6.2v1.6h6.2V-14.8z"/>
	<line class="st1" x1="453.4" y1="-21.1" x2="453.4" y2="9.4"/>
	<path class="st2" d="M-200.6-13.6l3.4,9.7h-0.6h15c0.4,0,0.8,0.4,0.8,0.8c0,0.4-0.4,0.8-0.8,0.8h-15c-0.3,0-0.6-0.2-0.8-0.5
		l-5.4-15.4h0.6h-1.6c-0.4,0-0.8-0.4-0.8-0.8c0-0.4,0.4-0.8,0.8-0.8h1.6c0.3,0,0.6,0.2,0.8,0.5l1.4,4.1h19.4c0.5,0,0.9,0.5,0.8,1
		l-1.3,6.2c-0.1,0.3-0.3,0.6-0.7,0.6l-11.8,1.3c-0.4,0-0.8-0.3-0.9-0.7c0-0.4,0.3-0.8,0.7-0.9l11.2-1.3c0,0,0.6-2.6,1-4.6
		C-182.8-13.6-197.2-13.6-200.6-13.6 M-196,1c0.6,0,1.2,0.5,1.2,1.2c0,0.6-0.5,1.2-1.2,1.2s-1.2-0.5-1.2-1.2
		C-197.2,1.5-196.6,1-196,1 M-196-0.6c-1.5,0-2.7,1.2-2.7,2.7c0,1.5,1.2,2.7,2.7,2.7s2.7-1.2,2.7-2.7C-193.3,0.6-194.5-0.6-196-0.6
		 M-184.9,1c0.6,0,1.2,0.5,1.2,1.2c0,0.6-0.5,1.2-1.2,1.2c-0.6,0-1.2-0.5-1.2-1.2C-186,1.5-185.5,1-184.9,1 M-184.9-0.6
		c-1.5,0-2.7,1.2-2.7,2.7c0,1.5,1.2,2.7,2.7,2.7c1.5,0,2.7-1.2,2.7-2.7C-182.2,0.6-183.4-0.6-184.9-0.6"/>
</g>
<path class="st3" d="M20,13.6l-0.7,4H2.9l-0.7-4H0.3V20h21.5v-6.3H20z M19.6,6.5h-5.4V4.2H8v2.3H2.7l8.4,9L19.6,6.5 M14.2,0.3H8v0.8
	h6.2V0.3z M14.2,1.8H8v1.6h6.2V1.8z"/>
</svg>
