<?xml version="1.0" encoding="utf-8"?>
<!-- Generator: Adobe Illustrator 21.0.0, SVG Export Plug-In . SVG Version: 6.00 Build 0)  -->
<svg version="1.1" id="图层_1" xmlns="http://www.w3.org/2000/svg" xmlns:xlink="http://www.w3.org/1999/xlink" x="0px" y="0px"
	 viewBox="0 0 25 24" style="enable-background:new 0 0 25 24;" xml:space="preserve">
<style type="text/css">
	.st0{opacity:0.8;}
	.st1{clip-path:url(#SVGID_2_);fill:#0091ff;}
	.st2{clip-path:url(#SVGID_4_);fill-rule:evenodd;clip-rule:evenodd;fill:#0091ff;}
</style>
<g class="st0">
	<g>
		<defs>
			<polyline id="SVGID_1_" points="-0.4,0.4 -0.4,24.3 25.5,24.3 25.5,0.4 -0.4,0.4 			"/>
		</defs>
		<clipPath id="SVGID_2_">
			<use xlink:href="#SVGID_1_"  style="overflow:visible;"/>
		</clipPath>
		<path class="st1" d="M6,24.3C6,24.3,6,24.3,6,24.3c-0.5,0-0.9-0.4-0.9-0.9l0.1-2.1c-1.2-0.3-3.3-1.2-3.8-3.1
			c-0.4-1.7-0.3-3.4-0.1-4.4c0-0.1,0-0.2,0-0.3c-0.2-0.1-0.6-0.2-0.9-0.2c-0.2,0-0.5-0.2-0.6-0.3c-0.1-0.2-0.2-0.4-0.1-0.7
			C0,11,1.1,9.3,1.5,8.7c0.4-4.8,3-6.6,3.1-6.7c5.1-3.7,8,0.2,8.1,0.2c0.3,0.3,0.2,0.8-0.1,1.1c-1.2,1.2-1.8,2.5-1.8,3.7
			c0.1,2.2,2.2,3.8,2.2,3.8c0.4,0.3,0.5,0.8,0.2,1.2c-0.3,0.4-0.8,0.5-1.2,0.2c-0.1-0.1-2.7-2.1-2.9-5.1c-0.1-1.5,0.5-3,1.7-4.4
			C10,2.2,8.2,1.5,5.6,3.4C5.4,3.5,3.4,5,3.2,9.1c0,0.2-0.1,0.3-0.2,0.5c-0.3,0.4-1,1.4-1.4,2.4c0.7,0.2,1.5,0.6,1.5,1.4
			c0,0.2,0,0.4-0.1,0.7c-0.1,0.9-0.3,2.4,0.1,3.7c0.3,1.2,2.4,1.9,3.2,2c0.4,0.1,0.7,0.4,0.7,0.9l-0.1,2.8C6.8,23.9,6.5,24.3,6,24.3
			"/>
		<path class="st1" d="M19.1,24.3c-0.5,0-0.8-0.4-0.9-0.8l-0.1-2.8c0-0.2,0.1-0.5,0.3-0.6c0.2-0.2,0.4-0.3,0.6-0.2
			c0,0,2.3,0,2.6-1.2c0.4-1.6,0.4-4.1,0.4-5l0-0.3c0-0.8,0.7-1.2,1.5-1.4c-0.4-1-1.1-2-1.4-2.4c-0.1-0.1-0.2-0.3-0.2-0.5
			c-0.2-4.1-2.3-5.6-2.4-5.6c-2.7-2-4.4-1.3-5.2-0.7c1.2,1.4,1.8,2.9,1.7,4.4c-0.2,3-2.8,5-2.9,5.1c-0.4,0.3-0.9,0.2-1.2-0.2
			c-0.3-0.4-0.2-0.9,0.2-1.2c0,0,2.1-1.6,2.3-3.8c0.1-1.3-0.5-2.5-1.8-3.7c-0.3-0.3-0.3-0.8-0.1-1.1c0,0,3-3.9,8.1-0.2
			c0.1,0.1,2.7,1.8,3.1,6.7c0.4,0.6,1.5,2.2,1.8,3.6c0.1,0.2,0,0.5-0.1,0.7c-0.1,0.2-0.4,0.3-0.6,0.3c-0.3,0-0.7,0.1-1,0.2
			c0,1,0,3.5-0.4,5.4c-0.4,1.7-2.1,2.3-3.4,2.5l0.1,1.9C20,23.8,19.6,24.2,19.1,24.3C19.1,24.3,19.1,24.3,19.1,24.3"/>
	</g>
</g>
<g class="st0">
	<g>
		<defs>
			<rect id="SVGID_3_" x="306.8" y="-160.5" width="27.4" height="22.3"/>
		</defs>
		<clipPath id="SVGID_4_">
			<use xlink:href="#SVGID_3_"  style="overflow:visible;"/>
		</clipPath>
		<path class="st2" d="M323.5-143.4c-0.3,0-0.5,0.1-0.7,0.3l-1.2,1.4v-6.9c0-0.5-0.5-0.9-1-0.9c-0.5,0-0.9,0.4-0.9,0.9v6.9l-1.2-1.4
			c-0.2-0.2-0.4-0.3-0.7-0.3c-0.5,0-1,0.4-1,1c0,0,0,0.1,0,0.1c0,0.2,0.1,0.4,0.2,0.6l3,3.3l0,0c0.2,0.2,0.4,0.3,0.7,0.3
			c0.3,0,0.5-0.1,0.7-0.3l0,0l2.9-3.3c0.1-0.2,0.2-0.3,0.2-0.6v0c0,0,0-0.1,0-0.1c0,0,0-0.1,0-0.1C324.4-143,324-143.4,323.5-143.4
			 M329.6-154.2c-1.4-3.7-5-6.3-9.1-6.3c-4.2,0-7.7,2.6-9.1,6.3c-2.6,0.8-4.5,3.2-4.5,6.1c0,3.5,2.9,6.4,6.4,6.4
			c0.7,0,1.3-0.6,1.3-1.3c0-0.7-0.6-1.3-1.3-1.3c-2.1,0-3.8-1.7-3.8-3.8c0-1.1,0.5-2.2,1.3-2.9c0.1-0.1,0.2-0.1,0.3-0.2c0,0,0,0,0,0
			c0.1-0.1,0.2-0.1,0.3-0.2c0,0,0,0,0,0c0.1,0,0.2-0.1,0.3-0.1c0,0,0,0,0.1,0c0.1,0,0.2-0.1,0.2-0.1c0,0,0.1,0,0.1,0
			c0.1,0,0.1-0.1,0.2-0.1c0.1,0,0.1,0,0.2,0c0.1,0,0.1,0,0.2,0c0.1,0,0.1,0,0.2,0c0.1,0,0.1,0,0.2,0c0.1,0,0.2,0,0.4,0
			c0,0,0.1,0,0.1,0c0-0.2,0.1-0.4,0.1-0.6c0-0.1,0-0.1,0-0.2c0-0.2,0.1-0.3,0.2-0.5c0,0,0-0.1,0.1-0.1c0.1-0.2,0.1-0.3,0.2-0.5
			c0,0,0-0.1,0.1-0.1c0.1-0.2,0.2-0.3,0.3-0.5c1.3-2.1,3.6-3.5,6.2-3.5c2.6,0,5,1.4,6.2,3.5c0.1,0.2,0.2,0.3,0.3,0.5
			c0,0,0,0.1,0.1,0.1c0.1,0.2,0.1,0.3,0.2,0.5c0,0,0,0.1,0.1,0.1c0.1,0.2,0.1,0.3,0.2,0.5c0,0.1,0,0.1,0,0.2
			c0.1,0.2,0.1,0.4,0.1,0.6c0,0,0.1,0,0.1,0c0.1,0,0.3,0,0.4,0c0.1,0,0.1,0,0.2,0c0.1,0,0.1,0,0.2,0c0.1,0,0.1,0,0.2,0
			c0.1,0,0.1,0,0.2,0c0.1,0,0.1,0,0.2,0.1c0,0,0.1,0,0.1,0c0.1,0,0.2,0.1,0.2,0.1c0,0,0,0,0.1,0c0.1,0,0.2,0.1,0.3,0.1c0,0,0,0,0,0
			c0.1,0.1,0.2,0.1,0.3,0.2c0,0,0,0,0,0c0.1,0.1,0.2,0.1,0.3,0.2c0.8,0.7,1.3,1.7,1.3,2.9c0,2.1-1.7,3.8-3.8,3.8
			c-0.7,0-1.3,0.6-1.3,1.3c0,0.7,0.6,1.3,1.3,1.3c3.5,0,6.4-2.9,6.4-6.4C334.2-151,332.3-153.4,329.6-154.2"/>
	</g>
</g>
</svg>
