<?xml version="1.0" encoding="utf-8"?>
<!-- Generator: Adobe Illustrator 21.0.0, SVG Export Plug-In . SVG Version: 6.00 Build 0)  -->
<svg version="1.1" id="图层_1" xmlns="http://www.w3.org/2000/svg" xmlns:xlink="http://www.w3.org/1999/xlink" x="0px" y="0px"
	 viewBox="0 0 71 69" style="enable-background:new 0 0 71 69;" xml:space="preserve">
<style type="text/css">
	.st0{clip-path:url(#SVGID_2_);fill-rule:evenodd;clip-rule:evenodd;fill:#0091ff;}
	.st1{clip-path:url(#SVGID_2_);fill:none;stroke:#B1B1B2;stroke-miterlimit:10;}
</style>
<g>
	<defs>
		<rect id="SVGID_1_" x="-320" y="-958" width="1920" height="1589.6"/>
	</defs>
	<clipPath id="SVGID_2_">
		<use xlink:href="#SVGID_1_"  style="overflow:visible;"/>
	</clipPath>
	<path class="st0" d="M66.8,14.1L36.1,26.6L5.2,14.1L36,2.2L66.8,14.1z M2.7,19.3l30.7,12.8v34.7c-2.4-1.1-5-2.2-7.6-3.4
		c-2.3-1-4.8-2.1-7.6-3.3c-2.8-1.2-5.7-2.4-8.5-3.7c-1-0.5-2-1.1-2.8-1.9S5.2,53,4.6,52.1c-0.6-0.9-1.1-1.9-1.4-2.9
		c-0.3-1-0.5-2-0.5-3L2.7,19.3L2.7,19.3z M68.7,19.3V46c0,1.2-0.2,2.4-0.7,3.6c-0.5,1.1-1.1,2.2-1.8,3.2c-0.7,1-1.5,1.9-2.4,2.7
		c-0.9,0.8-1.8,1.4-2.6,1.8c-2.5,1-5.1,2.1-7.8,3.2c-2.7,1.1-5.2,2.2-7.5,3.1c-2.7,1.1-5.3,2.2-7.9,3.2V32.1L68.7,19.3z"/>
	<path class="st0" d="M339,20.2h36.9v0.8c0,9.2,0,18.4,0,27.6c0,3.1-1.7,4.8-4.8,4.8c-0.8,0-1.6,0-2.3,0c0,3.3,0,6.5,0,9.7
		c0,2-1.7,3.6-3.7,3.7c-2.1,0.1-4-1.4-4.1-3.4c-0.1-3.3,0-6.6,0-9.9h-7.1c0,1.3,0,2.6,0,3.9c0,1.9,0,3.8,0,5.8
		c-0.1,1.9-1.5,3.4-3.4,3.6c-1.9,0.2-3.7-0.9-4.3-2.7c-0.1-0.4-0.2-0.8-0.2-1.3c0-2.7,0-5.5,0-8.2c0-0.4,0.1-0.7,0.1-1.2
		c-0.9,0-1.8,0-2.7,0c-2.7,0-4.4-1.7-4.4-4.4c0-9.3,0-18.7,0-28V20.2z M375.9,17.5h-37c0.3-6.4,4-10.4,9.4-13.2
		c-0.5-0.8-1.1-1.6-1.6-2.5c-0.4-0.6-0.8-1.2-1.2-1.8c-0.3-0.4-0.7-0.9-0.1-1.3c0.7-0.4,0.9,0.2,1.2,0.6c0.7,1,1.4,2.1,2.1,3.1
		c0.8,1.3,0.8,1.3,2.3,0.8c4.6-1.3,9.2-1.3,13.8,0.3c0.2,0.1,0.3,0.1,0.5,0.2c0.9-1.4,1.9-2.8,2.8-4.2c0.1-0.2,0.2-0.3,0.3-0.5
		c0.3-0.4,0.6-0.6,1-0.3c0.4,0.3,0.3,0.6,0.1,1c-0.8,1.2-1.6,2.4-2.4,3.7c-0.2,0.3-0.4,0.5-0.6,0.9C371.9,7.1,375.6,11.1,375.9,17.5
		 M367.3,10.3c0-1.1-0.9-2-2-2c-1.1,0-2,0.9-2,2c0,1.1,0.8,2,1.9,2C366.4,12.3,367.3,11.4,367.3,10.3 M351.5,10.3c0-1.1-0.9-2-2-1.9
		c-1.1,0-2,0.9-1.9,2c0,1.1,0.9,1.9,2,1.9C350.6,12.2,351.5,11.4,351.5,10.3 M386.4,32.6c0,2.7,0,5.5,0,8.2c0,2.4-1.7,4.2-3.9,4.2
		c-2.3,0-3.9-1.8-4-4.2c0-5.6,0-11.1,0-16.7c0-2.1,1.5-3.7,3.5-3.9c2.1-0.2,3.9,1.1,4.3,3.1c0.1,0.4,0.1,0.8,0.1,1.2
		C386.4,27.2,386.4,29.9,386.4,32.6 M336.3,32.6c0,2.9,0,5.8,0,8.6c0,1.8-1.3,3.2-3,3.7c-1.7,0.4-3.5-0.3-4.3-1.8
		c-0.3-0.6-0.6-1.4-0.6-2.1c0-5.7,0-11.3,0-17c0-2.2,1.8-3.9,4-3.9c2.2,0,3.9,1.7,3.9,3.9C336.3,27,336.3,29.8,336.3,32.6
		L336.3,32.6z"/>
	<path class="st0" d="M686.5,56.4c-3,2.5-6.7,3.8-11.1,3.8c-3.6,0-6.9-0.9-10-2.8c-3.1-1.9-5.3-4.6-6.8-8.4
		c-1.5-3.7-2.2-8.1-2.2-13.1c0-3.9,0.6-7.7,1.9-11.3c1.2-3.7,3.4-6.6,6.4-8.8c3-2.2,6.8-3.2,11.4-3.2c3.9,0,7.2,1,9.8,2.9
		c2.6,2,4.6,5.1,6,9.4l7.7-1.8c-1.6-5.4-4.4-9.6-8.4-12.7c-4-3-9-4.5-14.9-4.5c-5.2,0-10,1.2-14.3,3.6c-4.3,2.4-7.7,5.8-10,10.4
		c-2.3,4.6-3.5,9.9-3.5,16.1c0,5.6,1,10.9,3.1,15.8c2.1,4.9,5.1,8.7,9.1,11.2c4,2.6,9.1,3.9,15.5,3.9c6.1,0,11.3-1.7,15.6-5
		c4.3-3.4,7.2-8.3,8.8-14.7l-7.8-2C691.6,50.1,689.5,53.9,686.5,56.4"/>
	<rect x="694.7" y="33.9" class="st0" width="19.4" height="3.6"/>
	<path class="st0" d="M702.6,26.5h3.6v18.3h-3.6V26.5z M716.5,33.8H736v3.6h-19.4V33.8z"/>
	<rect x="724.5" y="26.4" class="st0" width="3.6" height="18.3"/>
	<path class="st0" d="M968.5,36.5c3.7,5.1,9.4,5.5,11,5.5h0.2c1.6,0,7.3-0.4,11-5.5c1.5-2,2.9-5.6,3.6-7.3c2.2-2.6,3-5.1,2.5-7.4
		c-0.3-1.2-0.9-2.2-1.8-2.9c0.3-2.8,0.3-5.9-0.7-8.7c-1.4-3.9-4-6.7-7.7-8.2c-2.9-1.2-5.6-1.3-6.7-1.3h-0.2c-0.1,0-0.2,0-0.2,0
		c-0.1,0-0.1,0-0.2,0h-0.2c-1,0-3.8,0.1-6.7,1.3c-3.7,1.5-6.2,4.3-7.7,8.2c-1,2.8-1,5.9-0.7,8.7c-0.9,0.7-1.5,1.8-1.8,2.9
		c-0.6,2.3,0.3,4.8,2.5,7.4C965.6,30.9,967.1,34.5,968.5,36.5 M967.3,21.8c1.2-0.4,2,1.3,2.3,2.1c-0.3-1-1.2-4.1-1.4-7.3
		c1.1-1.5,3.2-4,5.8-4.4c0,0,5.5,6.6,16.9,6.5c-0.3,2.4-0.9,4.5-1.2,5.3c0.3-0.8,1.1-2.6,2.3-2.1c0.7,0.3,1.9,1.7-1.3,5.2
		c0,0-1.8,5-3.3,7c-2.2,3-5.6,3.8-7.7,3.8c0,0,0,0-0.1,0c0,0-0.1,0-0.1,0c-2.1,0-5.5-0.8-7.7-3.8c-1.5-2-3.3-7-3.3-7
		C965.4,23.6,966.6,22.1,967.3,21.8"/>
	<path class="st0" d="M983.8,46.2l-1.9-2.1h-2.3h-2.3l-1.9,2.1c0,0,1.1,2.3,2.9,3.2l-2.9,7.3c0,0,2.1,3,4.2,3.8
		c2.1-0.8,4.2-3.8,4.2-3.8l-2.9-7.3C982.7,48.5,983.8,46.2,983.8,46.2"/>
	<path class="st0" d="M1009.6,51.7c-3.5-4.5-19-7.6-19-7.6c2.1,11.8-10.9,19-10.9,19s-13-7.2-10.9-19c0,0-15.5,3.2-19,7.6
		c-3.7,4.7-3.3,9.4-3,11.3c0.3,1.9,0.8,3.1,3.9,3.8h58c3.2-0.6,3.6-1.8,3.9-3.8C1012.8,61.1,1013.2,56.4,1009.6,51.7"/>
	<path class="st0" d="M1320.5,50.3H1257c-3,0-5.5-2.5-5.5-5.5V6.1c0-3,2.5-5.5,5.5-5.5h63.4c3,0,5.5,2.5,5.5,5.5v38.6
		C1326,47.8,1323.5,50.3,1320.5,50.3 M1288.4,46.1c1.5,0,2.8-1.2,2.8-2.8c0-1.5-1.2-2.8-2.8-2.8c-1.5,0-2.8,1.2-2.8,2.8
		C1285.6,44.9,1286.9,46.1,1288.4,46.1 M1320.5,6.1H1257v30.3h63.4V6.1z M1284.6,58.4h8.3v4.3l8.1,1.6v2.6h-24.6V64l8.3-1.4V58.4z"
		/>
	<line class="st1" x1="-64.4" y1="-84.6" x2="1398.5" y2="-84.6"/>
</g>
</svg>
