<?xml version="1.0" encoding="utf-8"?>
<!-- Generator: Adobe Illustrator 21.0.0, SVG Export Plug-In . SVG Version: 6.00 Build 0)  -->
<svg version="1.1" id="图层_1" xmlns="http://www.w3.org/2000/svg" xmlns:xlink="http://www.w3.org/1999/xlink" x="0px" y="0px"
	 viewBox="0 0 74 74" style="enable-background:new 0 0 74 74;" xml:space="preserve">
<style type="text/css">
	.st0{fill-rule:evenodd;clip-rule:evenodd;fill:#2292ff;}
</style>
<g>
	<path class="st0" d="M68.1-77.4L37.4-64.9L6.5-77.4l30.8-11.9L68.1-77.4L68.1-77.4z M4-72.2l30.7,12.8v34.7c-2.4-1.1-5-2.2-7.6-3.4
		c-2.3-1-4.8-2.1-7.6-3.3c-2.8-1.2-5.7-2.4-8.6-3.7c-1-0.5-2-1.1-2.8-1.9c-0.8-0.8-1.6-1.6-2.2-2.5c-0.6-0.9-1.1-1.9-1.4-2.9
		c-0.3-1-0.5-2-0.5-3L4-72.2L4-72.2L4-72.2z M70-72.2v26.7c0,1.2-0.2,2.4-0.7,3.6c-0.5,1.1-1.1,2.2-1.8,3.2c-0.7,1-1.5,1.9-2.4,2.7
		c-0.9,0.8-1.8,1.4-2.6,1.8c-2.5,1-5.1,2.1-7.8,3.2s-5.2,2.2-7.5,3.1c-2.7,1.1-5.3,2.2-7.9,3.2v-34.7L70-72.2L70-72.2z"/>
</g>
<g>
	<path class="st0" d="M-25.5-40.6h-63c-3,0-5.5-2.5-5.5-5.5v-38.4c0-3,2.5-5.5,5.5-5.5h63c3,0,5.5,2.5,5.5,5.5V-46
		C-20-43-22.5-40.6-25.5-40.6L-25.5-40.6z M-57.3-44.7c1.5,0,2.7-1.2,2.7-2.7c0-1.5-1.2-2.7-2.7-2.7c-1.5,0-2.7,1.2-2.7,2.7
		C-60.1-45.9-58.9-44.7-57.3-44.7L-57.3-44.7z M-25.5-84.4h-63v30.1h63V-84.4L-25.5-84.4z M-61.1-32.5h8.2v4.3l8.1,1.5v2.6h-24.5
		v-2.7l8.2-1.4V-32.5L-61.1-32.5z"/>
</g>
<g>
	<polygon class="st0" points="119.6,-53.2 127.2,-53.2 127.2,-22.7 119.6,-22.7 119.6,-53.2 	"/>
	<polygon class="st0" points="104.3,-41.8 112,-41.8 112,-22.7 104.3,-22.7 104.3,-41.8 	"/>
	<polygon class="st0" points="150,-60.8 157.7,-60.8 157.7,-22.7 150,-22.7 150,-60.8 	"/>
	<polygon class="st0" points="134.8,-45.6 142.4,-45.6 142.4,-22.7 134.8,-22.7 134.8,-45.6 	"/>
	<polygon class="st0" points="156.2,-91.3 153.9,-91.3 146.2,-91.3 142.4,-91.3 142.4,-83.7 148.7,-83.7 138.2,-72.8 121.6,-86.3 
		100.5,-66 100.5,-55.5 122,-76.2 138.8,-62.5 153.9,-78 153.9,-72.2 161.5,-72.2 161.5,-79.9 161.5,-83.7 161.5,-85.8 161.5,-91.3 
		156.2,-91.3 	"/>
</g>
<g>
	<path class="st0" d="M-23.3,29.3l-4,3.9l-11-10.9l4-3.9c1.2-1.2,3.1-1.4,4.2-0.3l7.2,7C-21.9,26.2-22.1,28.1-23.3,29.3L-23.3,29.3
		L-23.3,29.3L-23.3,29.3 M-40.1,24.2l11,10.8l-26.2,25.9c-0.1,0.1-0.4,0.4-1,0.5c-0.1,0-0.1,0-0.2,0.1l-13.7,4.3
		c-0.3,0.1-0.8,0.1-1-0.2c-0.3-0.3-0.3-0.6-0.2-1l4.3-13.5c0-0.1,0-0.1,0.1-0.2c0.1-0.4,0.4-1,0.6-1l5-4.6H-78
		c-0.7,0-1.3-0.8-1.3-1.4c0-0.7,0.6-1.5,1.3-1.5h19.3L-40.1,24.2L-40.1,24.2L-40.1,24.2 M-58.7,60l-6.8-6.7l-1.8,5.6l2.9,2.9
		L-58.7,60L-58.7,60L-58.7,60 M-40.5,28.4c-0.3-0.3-1-0.3-1.4,0l-20.6,20.2c-0.4,0.3-0.4,1,0,1.4c0.3,0.3,1,0.3,1.4,0l20.5-20.2
		C-40.1,29.5-40.1,28.9-40.5,28.4L-40.5,28.4L-40.5,28.4L-40.5,28.4 M-86.3,67.8c-0.7,0-1.4-0.3-1.4-1V11.9c-0.1-1.3,0.8-1,1.7-1
		h4.8v1.8c0,0.7,0.8,1.3,1.6,1.3c0.7,0,1.6-0.6,1.6-1.3v-1.8h7.1v1.8c0,0.7,0.8,1.3,1.6,1.3c0.7,0,1.6-0.6,1.6-1.3v-1.8h6.5v1.8
		c0,0.7,0.8,1.3,1.6,1.3c0.7,0,1.6-0.6,1.6-1.3v-1.8h6.5v1.8c0,0.7,0.8,1.3,1.6,1.3c0.7,0,1.6-0.6,1.6-1.3v-1.8h5.5
		c0.7,0,1.1,0.3,1.1,1v9l4-3.9v-5.1c0-2.9-2.2-5-5.1-5h-5.6V3.6c0-0.7-0.8-1.3-1.6-1.3c-0.7,0-1.6,0.6-1.6,1.3V7h-6.5V3.6
		c0-0.7-0.8-1.3-1.6-1.3c-0.7,0-1.6,0.6-1.6,1.3V7h-6.5V3.6c0-0.7-0.8-1.3-1.6-1.3c-0.7,0-1.6,0.6-1.6,1.3V7h-7.1V3.6
		c0-0.7-0.8-1.3-1.6-1.3c-0.7,0-1.6,0.6-1.6,1.3V7h-4.7c-3.9,0-5.8,2.1-5.8,5v54.8c0,2.9,2.6,5,5.6,5h43.1c3,0,5.1-2.1,5.1-5V47.8
		l-4,3.9v15.1c0,0.7-0.4,1-1.1,1L-86.3,67.8z M-52.1,21.8h-26c-0.7,0-1.2,0.9-1.2,1.5c0,0.7,0.5,1.5,1.2,1.5h26
		c0.7,0,1.2-0.9,1.2-1.5C-50.9,22.7-51.4,21.8-52.1,21.8L-52.1,21.8L-52.1,21.8L-52.1,21.8 M-52.1,31.8h-26c-0.7,0-1.2,0.9-1.2,1.5
		c0,0.7,0.5,1.5,1.2,1.5h26c0.7,0,1.2-0.9,1.2-1.5C-50.9,32.7-51.4,31.8-52.1,31.8L-52.1,31.8L-52.1,31.8L-52.1,31.8 M-52.1,31.8"/>
</g>
<g>
	<path class="st0" d="M24.9,63.1c-4.6-4.9-9.2-9.7-13.8-14.6c11.5-10.9,23.1-21.7,34.6-32.6c4.6,4.9,9.2,9.7,13.8,14.6
		C48,41.3,36.5,52.2,24.9,63.1L24.9,63.1L24.9,63.1z M46.2,36.5c-0.3-1.1-0.9-1.7-1.7-2.1c-0.7-0.4-1.2,0.1-1.7,0.6
		c-2.8,2.6-5.5,5.2-8.3,7.8c-3.5,3.3-7,6.6-10.5,9.9c-0.4,0.3-0.8,1.1-0.6,1.4c0.4,0.7,0.9,1.4,1.6,1.9c0.6,0.4,1.2-0.2,1.6-0.6
		c1.7-1.6,3.3-3.1,5-4.7c4.6-4.3,9.2-8.7,13.8-13C45.8,37.3,46,36.8,46.2,36.5L46.2,36.5L46.2,36.5z M53,29.9
		c-0.4-0.5-0.8-1-1.2-1.5c-0.6-0.7-1.3-0.7-2-0.1c-0.5,0.4-1,0.9-1.5,1.4c-0.4,0.4-0.7,0.9-0.2,1.5c0.5,0.7,0.9,1.8,2.1,1.6
		c0.2,0,0.3-0.1,0.5-0.2c0.6-0.6,1.3-1.1,1.9-1.8C52.7,30.7,52.8,30.3,53,29.9L53,29.9z M37.9,17.8c-1.9,1.8-3.7,3.5-5.6,5.3
		c-1,1-2.1,1.9-3,2.9c-0.5,0.5-0.9,0.4-1.4-0.1c-0.7-0.8-0.6-1.7,0.3-2.5c1.3-1.3,2.6-2.5,3.9-3.7c0.2-0.2,0.5-0.4,0.8-0.6
		c-0.5-0.6-0.9-0.9-1.3-1.4c-1.4,1.4-2.8,2.7-4.3,4.1c-1.1,1.1-2.1,1.2-2.9,0.4c-0.7-0.8-0.5-1.7,0.6-2.8c1.4-1.4,2.6-2.9,4-4.4
		c0.1,0.1,0.2,0.1,0.3,0.2c-0.4-0.4-0.7-0.8-1.2-1.2c-1.2,1.2-2.5,2.4-3.7,3.5c-0.3,0.3-0.6,0.6-0.9,0.9c-0.9,0.8-1.9,0.9-2.6,0.2
		c-0.7-0.7-0.6-1.7,0.3-2.6c1.2-1.1,2.3-2.3,3.5-3.4c0.3-0.3,0.7-0.6,1.2-1.1c-0.5-0.4-0.9-0.8-1.3-1.2c-1.4,1.4-2.8,2.7-4.2,4
		c-0.2,0.2-0.4,0.4-0.7,0.6c-0.7,0.6-1.6,0.6-2.3,0c-0.6-0.6-0.7-1.6,0-2.3c0.4-0.5,0.9-0.8,1.3-1.3c1.1-1.2,2.2-2.4,3.3-3.6
		c-0.7-0.9-2.4-1-3.6,0.2c-2.3,2.1-4.5,4.3-6.7,6.5c-1.2,1.1-2.3,2.2-3.5,3.4c-1.4,1.4-1.5,2.9-0.1,4.3c3.7,3.9,7.5,7.8,11.2,11.6
		c0.2,0.2,0.5,0.5,0.8,0.8c-1.1,1-2.1,2-3.1,3c-0.9-0.9-1.9-1.7-2.7-2.6C10,30.5,5.7,26.2,1.5,21.8c-1.3-1.4-1.3-2.5,0.1-3.8
		C7.3,12.4,13,6.9,18.7,1.4c1.2-1.1,2.4-1.2,3.5,0c5.2,5.3,10.3,10.7,15.4,16C37.7,17.5,37.8,17.6,37.9,17.8L37.9,17.8L37.9,17.8z
		 M56.3,43.1c-2.2,2.2-4.4,4.2-6.5,6.3c-0.5,0.5-1,1-1.5,1.4c-1,0.9-2.5,0.5-2.8-0.8c-0.1-0.4,0-1,0.3-1.2
		c3.8-3.6,7.6-7.2,11.4-10.8c0.1-0.1,0.1-0.1,0.3-0.1c2.1,2.2,4.3,4.4,6.4,6.6c2.5,2.6,4.9,5.1,7.4,7.7c1.3,1.3,1.3,2.5-0.1,3.8
		c-5.7,5.5-11.4,11-17,16.4c-1.4,1.3-2.5,1.3-3.8-0.1c-4.6-4.8-9.2-9.5-13.8-14.3c-0.1-0.1-0.2-0.2-0.3-0.4c1.1-1,2.1-2,2.9-2.7
		c1.7,1.5,3.3,2.9,4.9,4.4c2.2,2.1,4.2,4.3,6.3,6.5c1.2,1.3,2.8,1.3,4.1,0.1c3.4-3.3,6.9-6.6,10.3-9.9c1.2-1.1,1.4-2.7,0.3-3.8
		C62.2,49.2,59.3,46.2,56.3,43.1L56.3,43.1L56.3,43.1z M66.6,23.8c-4.7-5-9.2-9.8-13.8-14.7c2.1-1.9,4-3.8,6.1-5.5
		c1.6-1.3,4-0.9,5.6,0.7c2.6,2.7,5.1,5.4,7.7,8.1c1.6,1.7,1.8,4,0.4,5.6C70.7,20,68.6,21.9,66.6,23.8L66.6,23.8L66.6,23.8z
		 M69.6,15.5c-2.8-3-5.6-5.9-8.4-8.9c-1,0.9-1.9,1.8-2.9,2.7c2.8,3,5.6,5.9,8.4,8.9C67.7,17.3,68.6,16.4,69.6,15.5L69.6,15.5
		L69.6,15.5z M9.2,50.3c4.6,4.9,9.1,9.7,13.8,14.6c-0.8,0.3-1.5,0.5-2.1,0.7c-5,1.6-9.9,3.1-14.9,4.7c-0.2,0.1-0.3,0.1-0.5,0.1
		c-0.9,0.3-1.8,0.2-2.4-0.5c-0.7-0.8-0.7-1.6-0.3-2.6c0.6-1.6,1.2-3.1,1.8-4.7c1.5-3.9,3-7.9,4.5-11.8C9,50.7,9.1,50.6,9.2,50.3
		L9.2,50.3L9.2,50.3z M18.1,63.7c-2.7-2.9-5.3-5.6-8-8.5c-0.9,2.3-1.7,4.4-2.5,6.6c-0.1,0.2,0.1,0.5,0.2,0.7c0.9,1,1.9,2,2.8,3
		c0.3,0.4,0.7,0.5,1.1,0.3c1-0.3,2.1-0.7,3.1-1C15.9,64.4,17,64,18.1,63.7L18.1,63.7L18.1,63.7z M47.3,14.3c1.3-1.3,2.6-2.5,4-3.8
		c4.6,4.9,9.2,9.7,13.8,14.6c-1.3,1.3-2.6,2.5-4,3.8C56.5,24.1,51.9,19.2,47.3,14.3L47.3,14.3L47.3,14.3z M49.6,55.7
		c0-3,2.4-5.5,5.5-5.6c3-0.1,5.6,2.4,5.6,5.5c0.1,3-2.5,5.5-5.5,5.6C52.1,61.3,49.6,58.8,49.6,55.7L49.6,55.7z M55.1,57.9
		c1.2,0,2.3-1,2.3-2.2c0-1.3-1-2.3-2.2-2.3c-1.2,0-2.2,1-2.2,2.2C52.9,56.9,53.8,57.9,55.1,57.9L55.1,57.9L55.1,57.9z"/>
</g>
</svg>
