<?xml version="1.0" encoding="utf-8"?>
<!-- Generator: Adobe Illustrator 21.0.0, SVG Export Plug-In . SVG Version: 6.00 Build 0)  -->
<svg version="1.1" id="图层_1" xmlns="http://www.w3.org/2000/svg" xmlns:xlink="http://www.w3.org/1999/xlink" x="0px" y="0px"
	 viewBox="0 0 44 45" style="enable-background:new 0 0 44 45;" xml:space="preserve">
<style type="text/css">
	.st0{fill-rule:evenodd;clip-rule:evenodd;fill:#727171;}
	.st1{fill:none;stroke:#231815;stroke-width:1.726;stroke-miterlimit:10;}
</style>
<path class="st0" d="M-312.8-1878.7c-1.8,0-3.3,1.5-3.3,3.3c0,1.8,1.5,3.3,3.3,3.3c1.8,0,3.3-1.5,3.3-3.3
	C-309.5-1877.2-311-1878.7-312.8-1878.7 M-312.8-1873.8c-0.6,0-1.1-0.3-1.4-0.8c-0.3-0.5-0.3-1.1,0-1.6c0.3-0.5,0.8-0.8,1.4-0.8
	c0.9,0,1.6,0.7,1.6,1.6S-311.9-1873.8-312.8-1873.8 M-329.9-1878.7c-1.8,0-3.3,1.5-3.3,3.3c0,1.8,1.5,3.3,3.3,3.3
	c1.8,0,3.3-1.5,3.3-3.3C-326.6-1877.2-328.1-1878.7-329.9-1878.7 M-329.9-1873.8c-0.6,0-1.1-0.3-1.4-0.8s-0.3-1.1,0-1.6
	c0.3-0.5,0.8-0.8,1.4-0.8c0.9,0,1.6,0.7,1.6,1.6S-329-1873.8-329.9-1873.8 M-308.1-1887.6c0,0,1.9-10.6,1.9-10.7
	c0-0.9-0.3-1.7-1-2.3c-0.6-0.6-1.4-1-2.3-1h-27.3l-0.5-2.6c-0.4-1.4-1.7-2.3-3.1-2.3h-2.4c-0.4,0-0.8,0.4-0.8,0.8
	c0,0.4,0.4,0.8,0.8,0.8h2.4c0.8,0,1.4,0.6,1.6,1.3l3.6,20.3c0,0.1,0.1,0.5,0.1,0.5c0.4,1.3,1.5,2.3,2.9,2.4h22.8
	c0.4,0,0.8-0.4,0.8-0.8c0-0.4-0.3-0.8-0.8-0.8h-22.6c-0.7,0-1.4-0.5-1.6-1.2l-0.4-2.1h22.8C-309.8-1885.2-308.5-1886.2-308.1-1887.6
	 M-334.3-1886.8l-2.3-13h27.1c0.9,0,1.6,0.7,1.6,1.6c0,0.3-1.8,10.2-1.8,10.2c-0.2,0.7-0.8,1.1-1.5,1.1L-334.3-1886.8z"/>
<line class="st1" x1="-0.2" y1="0.3" x2="44.2" y2="44.6"/>
<line class="st1" x1="-0.2" y1="44.6" x2="44.2" y2="0.3"/>
</svg>
