<?xml version="1.0" encoding="utf-8"?>
<!-- Generator: Adobe Illustrator 21.0.0, SVG Export Plug-In . SVG Version: 6.00 Build 0)  -->
<svg version="1.1" id="图层_1" xmlns="http://www.w3.org/2000/svg" xmlns:xlink="http://www.w3.org/1999/xlink" x="0px" y="0px"
	 viewBox="0 0 186 145" style="enable-background:new 0 0 186 145;" xml:space="preserve">
<style type="text/css">
	.st0{fill-rule:evenodd;clip-rule:evenodd;fill:#D3D4D4;}
</style>
<image style="overflow:visible;" width="1024" height="515" xlink:href="14A4614B21CF44CB.jpg"  transform="matrix(1.875 0 0 1.875 -610 -1082)">
</image>
<path class="st0" d="M127.7,65.8c0,0-5-7.8-7.6-9.6c0,0,2.2-4.2-0.3-7.3c0,0,2.4-4.5,2.9-10.1C122.7,38.8,131.8,48.8,127.7,65.8
	 M108.2,47.1c-9.8-5.9-21-6.6-21-6.6c-0.1-1.9-2.8-3.9-2.8-3.9c1.2-4.2,8.3-13.5,8.3-13.5c18.2,0.4,26.9,11.4,26.9,11.4
	c-0.5,7.6-2.8,11.7-2.8,11.7C112.5,43.6,108.2,47.1,108.2,47.1 M72.5,41.2c0,0-7.1,1.2-13.3,4.4c0,0,6.3-18.6,28-22.1
	c0,0-3.3,4.6-6.5,11.9C80.7,35.4,74,34.7,72.5,41.2 M77.4,49.6c-0.9,9.9,2.8,19.2,2.8,19.2c-3.1,2.3-3.1,6.9-3.1,6.9
	c-7.6,0.7-15.2-0.9-15.2-0.9C54.5,63.3,57.6,51,57.6,51c5.9-4.2,15-6,15-6C73.5,48.7,77.4,49.6,77.4,49.6 M79.1,79.2
	c2.2,4.3,8.4,2.8,8.4,2.8c1.6,2.3,9.6,9.6,9.6,9.6C74.7,93.6,65,79.2,65,79.2C71,80.4,79.1,79.2,79.1,79.2 M109.2,58.9
	c0,0-5.2,7.5-17,12.9c0,0-2.3-5.2-8.4-4.2c0,0-2.5-4.6-2.5-17.6c0,0,5.2,0.3,6.1-5.6c0,0,10.4,0.9,18.7,5.6
	C106.1,49.9,104.1,55.9,109.2,58.9 M90.7,79.7c0,0,1.6-0.6,2.1-4.3c0,0,12.5-4.2,20.2-15.5c0,0,2.4,0.2,4.2-1.1c0,0,5.8,5.2,8.6,12
	c0,0-5.4,14.9-23.1,19.7C102.7,90.6,94.8,85.7,90.7,79.7"/>
<path class="st0" d="M176,117.1H10.2c-4.9,0-9-4-9-9V11.4c0-5,4-9,9-9H176c4.9,0,9,4,9,9v96.7C185,113,181,117.1,176,117.1
	 M174,13.5H12.3v93H174L174,13.5L174,13.5z M59.6,137c16.5,0,15.1-16.2,15.1-16.2l15.1,0v0l21.4-0.1c0,0-1.3,16.3,14,16.3
	c4.9,0,5.4,6.8,0.1,6.8H97.8h-8H59.5C53.8,143.7,54.4,137,59.6,137"/>
</svg>
