<?xml version="1.0" encoding="utf-8"?>
<!-- Generator: Adobe Illustrator 21.0.0, SVG Export Plug-In . SVG Version: 6.00 Build 0)  -->
<svg version="1.1" id="图层_1" xmlns="http://www.w3.org/2000/svg" xmlns:xlink="http://www.w3.org/1999/xlink" x="0px" y="0px"
	 viewBox="0 0 40 37" style="enable-background:new 0 0 40 37;" xml:space="preserve">
<style type="text/css">
	.st0{fill-rule:evenodd;clip-rule:evenodd;fill:#727171;}
</style>
<path class="st0" d="M-351.8-1874.7c-1.8,0-3.3,1.5-3.3,3.3c0,1.8,1.5,3.3,3.3,3.3c1.8,0,3.3-1.5,3.3-3.3
	C-348.5-1873.2-350-1874.7-351.8-1874.7 M-351.8-1869.8c-0.6,0-1.1-0.3-1.4-0.8c-0.3-0.5-0.3-1.1,0-1.6c0.3-0.5,0.8-0.8,1.4-0.8
	c0.9,0,1.6,0.7,1.6,1.6S-350.9-1869.8-351.8-1869.8 M-368.9-1874.7c-1.8,0-3.3,1.5-3.3,3.3c0,1.8,1.5,3.3,3.3,3.3
	c1.8,0,3.3-1.5,3.3-3.3C-365.6-1873.2-367.1-1874.7-368.9-1874.7 M-368.9-1869.8c-0.6,0-1.1-0.3-1.4-0.8s-0.3-1.1,0-1.6
	c0.3-0.5,0.8-0.8,1.4-0.8c0.9,0,1.6,0.7,1.6,1.6S-368-1869.8-368.9-1869.8 M-347.1-1883.6c0,0,1.9-10.6,1.9-10.7
	c0-0.9-0.3-1.7-1-2.3c-0.6-0.6-1.4-1-2.3-1h-27.3l-0.5-2.6c-0.4-1.4-1.7-2.3-3.1-2.3h-2.4c-0.4,0-0.8,0.4-0.8,0.8
	c0,0.4,0.4,0.8,0.8,0.8h2.4c0.8,0,1.4,0.6,1.6,1.3l3.6,20.3c0,0.1,0.1,0.5,0.1,0.5c0.4,1.3,1.5,2.3,2.9,2.4h22.8
	c0.4,0,0.8-0.4,0.8-0.8c0-0.4-0.3-0.8-0.8-0.8h-22.6c-0.7,0-1.4-0.5-1.6-1.2l-0.4-2.1h22.8C-348.8-1881.2-347.5-1882.2-347.1-1883.6
	 M-373.3-1882.8l-2.3-13h27.1c0.9,0,1.6,0.7,1.6,1.6c0,0.3-1.8,10.2-1.8,10.2c-0.2,0.7-0.8,1.1-1.5,1.1L-373.3-1882.8z"/>
<path class="st0" d="M32.2,29.3c-1.8,0-3.3,1.5-3.3,3.3c0,1.8,1.5,3.3,3.3,3.3c1.8,0,3.3-1.5,3.3-3.3C35.5,30.8,34,29.3,32.2,29.3
	 M32.2,34.2c-0.6,0-1.1-0.3-1.4-0.8c-0.3-0.5-0.3-1.1,0-1.6c0.3-0.5,0.8-0.8,1.4-0.8c0.9,0,1.6,0.7,1.6,1.6
	C33.8,33.5,33.1,34.2,32.2,34.2 M15.1,29.3c-1.8,0-3.3,1.5-3.3,3.3c0,1.8,1.5,3.3,3.3,3.3c1.8,0,3.3-1.5,3.3-3.3
	C18.4,30.8,16.9,29.3,15.1,29.3 M15.1,34.2c-0.6,0-1.1-0.3-1.4-0.8c-0.3-0.5-0.3-1.1,0-1.6c0.3-0.5,0.8-0.8,1.4-0.8
	c0.9,0,1.6,0.7,1.6,1.6C16.7,33.5,16,34.2,15.1,34.2 M36.9,20.4c0,0,1.9-10.6,1.9-10.7c0-0.9-0.3-1.7-1-2.3c-0.6-0.6-1.4-1-2.3-1
	H8.1L7.6,3.9C7.2,2.6,6,1.6,4.5,1.6H2.1C1.6,1.6,1.3,2,1.3,2.4c0,0.4,0.4,0.8,0.8,0.8h2.4c0.8,0,1.4,0.6,1.6,1.3l3.6,20.3
	c0,0.1,0.1,0.5,0.1,0.5c0.4,1.3,1.5,2.3,2.9,2.4h22.8c0.4,0,0.8-0.4,0.8-0.8c0-0.4-0.3-0.8-0.8-0.8H12.9c-0.7,0-1.4-0.5-1.6-1.2
	L11,22.8h22.8C35.2,22.8,36.5,21.8,36.9,20.4 M10.7,21.2l-2.3-13h27.1c0.9,0,1.6,0.7,1.6,1.6c0,0.3-1.8,10.2-1.8,10.2
	c-0.2,0.7-0.8,1.1-1.5,1.1L10.7,21.2z"/>
</svg>
