<?xml version="1.0" encoding="utf-8"?>
<!-- Generator: Adobe Illustrator 21.0.0, SVG Export Plug-In . SVG Version: 6.00 Build 0)  -->
<svg version="1.1" id="图层_1" xmlns="http://www.w3.org/2000/svg" xmlns:xlink="http://www.w3.org/1999/xlink" x="0px" y="0px"
	 viewBox="0 0 8 11" style="enable-background:new 0 0 8 11;" xml:space="preserve">
<style type="text/css">
	.st0{fill-rule:evenodd;clip-rule:evenodd;fill:#2297FF;}
</style>
<path class="st0" d="M4,0.1c-2.3,0-4.1,1.8-4.1,4.1c0,0.7,0.2,1.5,0.6,2.1C0.9,7,3.8,11,3.8,11C3.9,11,4,11.1,4,11.1
	c0.1,0,0.2,0,0.2-0.1c0,0,2.9-4,3.3-4.7C8,5.7,8.2,5,8.2,4.2C8.2,1.9,6.3,0.1,4,0.1 M4,5.6C3.3,5.6,2.7,5,2.7,4.2
	c0-0.8,0.6-1.4,1.4-1.4c0.8,0,1.4,0.6,1.4,1.4C5.4,5,4.8,5.6,4,5.6"/>
</svg>
