<?xml version="1.0" encoding="utf-8"?>
<!-- Generator: Adobe Illustrator 21.0.0, SVG Export Plug-In . SVG Version: 6.00 Build 0)  -->
<svg version="1.1" id="图层_1" xmlns="http://www.w3.org/2000/svg" xmlns:xlink="http://www.w3.org/1999/xlink" x="0px" y="0px"
	 viewBox="0 0 24 29" style="enable-background:new 0 0 24 29;" xml:space="preserve">
<style type="text/css">
	.st0{clip-path:url(#SVGID_2_);}
	.st1{filter:url(#Adobe_OpacityMaskFilter);}
	.st2{fill:url(#SVGID_8_);}
	.st3{mask:url(#SVGID_7_);fill:url(#SVGID_9_);}
	.st4{fill-rule:evenodd;clip-rule:evenodd;fill:#727171;}
</style>
<g>
	<defs>
		<polygon id="SVGID_1_" points="-21,-1993 -21,-1547 456,-1547 457,-1620.8 457,-1993 		"/>
	</defs>
	<clipPath id="SVGID_2_">
		<use xlink:href="#SVGID_1_"  style="overflow:visible;"/>
	</clipPath>
	<g class="st0">
		<defs>
			
				<rect id="SVGID_3_" x="-73.4" y="-2010.6" transform="matrix(1.453477e-02 -0.9999 0.9999 1.453477e-02 1968.8877 -1525.9835)" width="567.4" height="497.6"/>
		</defs>
		<clipPath id="SVGID_4_">
			<use xlink:href="#SVGID_3_"  style="overflow:visible;"/>
		</clipPath>
		<g transform="matrix(1 -9.313226e-10 0 1 0 0)" style="clip-path:url(#SVGID_4_);">
			
				<image style="overflow:visible;" width="522" height="557" xlink:href="CC0E2EDE8C960C00.png"  transform="matrix(0.9531 1.385441e-02 -1.480681e-02 1.0186 -34.3542 -2049.1504)">
			</image>
		</g>
	</g>
</g>
<g>
	<defs>
		<rect id="SVGID_5_" x="-388.6" y="-2100.2" width="1957.1" height="1267.1"/>
	</defs>
	<clipPath id="SVGID_6_">
		<use xlink:href="#SVGID_5_"  style="overflow:visible;"/>
	</clipPath>
	<g transform="matrix(1 0 0 1 0 0)" style="clip-path:url(#SVGID_6_);">
		
			<image style="overflow:visible;" width="1024" height="663" xlink:href="CC0E2EDE8C960C00.jpg"  transform="matrix(1.9112 0 0 1.9112 -388.5717 -2100.2319)">
		</image>
	</g>
</g>
<defs>
	<filter id="Adobe_OpacityMaskFilter" filterUnits="userSpaceOnUse" x="-389" y="-2100" width="1958" height="1000">
		<feColorMatrix  type="matrix" values="1 0 0 0 0  0 1 0 0 0  0 0 1 0 0  0 0 0 1 0"/>
	</filter>
</defs>
<mask maskUnits="userSpaceOnUse" x="-389" y="-2100" width="1958" height="1000" id="SVGID_7_">
	<g class="st1">
		
			<linearGradient id="SVGID_8_" gradientUnits="userSpaceOnUse" x1="-811.2702" y1="2055.5569" x2="-810.2702" y2="2055.5569" gradientTransform="matrix(0 -1000 -1000 0 2056147 -812374)">
			<stop  offset="0" style="stop-color:#000000"/>
			<stop  offset="1" style="stop-color:#CCCCCC"/>
		</linearGradient>
		<rect x="-389" y="-2100" class="st2" width="1958" height="1000"/>
	</g>
</mask>
<linearGradient id="SVGID_9_" gradientUnits="userSpaceOnUse" x1="-811.2702" y1="2055.5569" x2="-810.2702" y2="2055.5569" gradientTransform="matrix(0 -1000 -1000 0 2056147 -812374)">
	<stop  offset="0" style="stop-color:#000000"/>
	<stop  offset="1" style="stop-color:#000000"/>
</linearGradient>
<rect x="-389" y="-2100" class="st3" width="1958" height="1000"/>
<g>
	<defs>
		<rect id="SVGID_10_" x="-389" y="-2100" width="1958" height="1040"/>
	</defs>
	<clipPath id="SVGID_11_">
		<use xlink:href="#SVGID_10_"  style="overflow:visible;"/>
	</clipPath>
	<g style="clip-path:url(#SVGID_11_);">
		
			<image style="overflow:visible;" width="1920" height="1040" xlink:href="CC0E2EDE8C960C07.jpg"  transform="matrix(1.0198 0 0 1 -389 -2100)">
		</image>
	</g>
</g>
<path class="st4" d="M20.1,8.2H3.5c-0.4,0-0.7-0.3-0.7-0.7c0-0.4,0.3-0.7,0.7-0.7h16.6c0.4,0,0.7,0.3,0.7,0.7
	C20.8,7.9,20.5,8.2,20.1,8.2"/>
<path class="st4" d="M20.8,13.7L20.8,13.7c0-0.4-0.3-0.7-0.7-0.7H3.5c-0.4,0-0.7,0.3-0.7,0.7c0,0.4,0.3,0.7,0.7,0.7h16.6
	C20.5,14.4,20.8,14.1,20.8,13.7"/>
<path class="st4" d="M23.7,19.1v-0.6v-8.1V3.1c0-1.4-1.1-2.5-2.5-2.5H2.4C1,0.6-0.2,1.7-0.2,3.1v7.7v1.4v8v0.9v4.4
	c0,1.4,1.1,2.5,2.5,2.5h5h0.5h3.3c0.3,0,0.6-0.3,0.6-0.6s-0.3-0.6-0.6-0.6H7.9H7.4h-5c-0.7,0-1.3-0.6-1.3-1.3v-2.2v-2.2v-0.9v-1
	v-0.7v-6.3v-1.7V5.3V3.1c0-0.7,0.6-1.3,1.3-1.3h18.9c0.7,0,1.3,0.6,1.3,1.3v2.2v5v1.8v6.3v0.3h-6.7c-0.8,0-1.4,0.7-1.4,1.4v7.2
	c0,0.5,0.2,0.7,0.4,0.7c0.2,0,0.4-0.1,0.6-0.3l7.1-7.1l0.9-0.9C23.6,19.5,23.7,19.3,23.7,19.1C23.7,19.1,23.7,19.1,23.7,19.1
	 M15.6,25.8v-5.7c0-0.1,0.1-0.2,0.2-0.2h5.7L15.6,25.8z"/>
</svg>
