<?xml version="1.0" encoding="utf-8"?>
<!-- Generator: Adobe Illustrator 21.0.0, SVG Export Plug-In . SVG Version: 6.00 Build 0)  -->
<svg version="1.1" id="图层_1" xmlns="http://www.w3.org/2000/svg" xmlns:xlink="http://www.w3.org/1999/xlink" x="0px" y="0px"
	 viewBox="0 0 31 43" style="enable-background:new 0 0 31 43;" xml:space="preserve">
<style type="text/css">
	.st0{clip-path:url(#SVGID_2_);}
	.st1{clip-path:url(#SVGID_6_);}
	.st2{clip-path:url(#SVGID_10_);}
	.st3{filter:url(#Adobe_OpacityMaskFilter);}
	.st4{clip-path:url(#SVGID_14_);fill:url(#SVGID_16_);}
	.st5{clip-path:url(#SVGID_14_);mask:url(#SVGID_15_);fill:url(#SVGID_17_);}
	.st6{fill-rule:evenodd;clip-rule:evenodd;fill:#FFFFFF;}
</style>
<g>
	<defs>
		<rect id="SVGID_1_" x="783.1" y="129" width="1239.8" height="866.9"/>
	</defs>
	<clipPath id="SVGID_2_">
		<use xlink:href="#SVGID_1_"  style="overflow:visible;"/>
	</clipPath>
	<g class="st0">
		<defs>
			<rect id="SVGID_3_" x="783.1" y="-82.5" width="1239.8" height="1228.9"/>
		</defs>
		<clipPath id="SVGID_4_">
			<use xlink:href="#SVGID_3_"  style="overflow:visible;"/>
		</clipPath>
		<g transform="matrix(1 0 0 1 6.103516e-05 0)" style="clip-path:url(#SVGID_4_);">
			
				<image style="overflow:visible;" width="1024" height="1015" xlink:href="ECF66B7F4A82E22.jpg"  transform="matrix(1.2108 0 0 1.2108 783.0958 -82.4583)">
			</image>
		</g>
	</g>
</g>
<g>
	<defs>
		<rect id="SVGID_5_" x="443" y="129" width="513.6" height="866.9"/>
	</defs>
	<clipPath id="SVGID_6_">
		<use xlink:href="#SVGID_5_"  style="overflow:visible;"/>
	</clipPath>
	<g class="st1">
		<defs>
			<rect id="SVGID_7_" x="438.2" y="-82.5" width="3705" height="1228.9"/>
		</defs>
		<clipPath id="SVGID_8_">
			<use xlink:href="#SVGID_7_"  style="overflow:visible;"/>
		</clipPath>
		<g style="clip-path:url(#SVGID_8_);">
			
				<image style="overflow:visible;" width="1024" height="1015" xlink:href="ECF66B7F4A82E26.jpg"  transform="matrix(3.6181 0 0 1.2108 438.2015 -82.4583)">
			</image>
		</g>
	</g>
</g>
<g>
	<defs>
		<rect id="SVGID_9_" x="1856.5" y="129" width="506.5" height="866.9"/>
	</defs>
	<clipPath id="SVGID_10_">
		<use xlink:href="#SVGID_9_"  style="overflow:visible;"/>
	</clipPath>
	<g class="st2">
		<defs>
			<rect id="SVGID_11_" x="-1410.7" y="-82.5" width="3773.7" height="1228.9"/>
		</defs>
		<clipPath id="SVGID_12_">
			<use xlink:href="#SVGID_11_"  style="overflow:visible;"/>
		</clipPath>
		<g style="clip-path:url(#SVGID_12_);">
			
				<image style="overflow:visible;" width="1024" height="1015" xlink:href="ECF66B7F4A82E21.jpg"  transform="matrix(3.6852 0 0 1.2108 -1410.6797 -82.4583)">
			</image>
		</g>
	</g>
</g>
<g>
	<defs>
		<rect id="SVGID_13_" x="443" y="129" width="1920" height="866.9"/>
	</defs>
	<clipPath id="SVGID_14_">
		<use xlink:href="#SVGID_13_"  style="overflow:visible;"/>
	</clipPath>
	<defs>
		<filter id="Adobe_OpacityMaskFilter" filterUnits="userSpaceOnUse" x="443" y="129" width="1920" height="866.9">
			<feColorMatrix  type="matrix" values="1 0 0 0 0  0 1 0 0 0  0 0 1 0 0  0 0 0 1 0"/>
		</filter>
	</defs>
	<mask maskUnits="userSpaceOnUse" x="443" y="129" width="1920" height="866.9" id="SVGID_15_">
		<g class="st3">
			
				<linearGradient id="SVGID_16_" gradientUnits="userSpaceOnUse" x1="1244.7371" y1="1060.9313" x2="1245.7371" y2="1060.9313" gradientTransform="matrix(0 -862.2077 -862.2077 0 916146.1875 1074214.75)">
				<stop  offset="0" style="stop-color:#000000"/>
				<stop  offset="1" style="stop-color:#808080"/>
			</linearGradient>
			<rect x="443" y="129" class="st4" width="1920" height="866.9"/>
		</g>
	</mask>
	
		<linearGradient id="SVGID_17_" gradientUnits="userSpaceOnUse" x1="1244.7371" y1="1060.9313" x2="1245.7371" y2="1060.9313" gradientTransform="matrix(0 -862.2077 -862.2077 0 916146.1875 1074214.75)">
		<stop  offset="0" style="stop-color:#0097E0"/>
		<stop  offset="1" style="stop-color:#2C46C6"/>
	</linearGradient>
	<rect x="443" y="129" class="st5" width="1920" height="866.9"/>
</g>
<path class="st6" d="M150.7,102c-6.2,0-17.9-9.8-17.9-18.6v-18l0.7,0c0,0,4.5-0.1,9.1-1.9c4.6-1.9,7.7-4.1,7.7-4.1l0.4-0.3l0.4,0.3
	c0,0,3,2.2,7.7,4.1c4.6,1.9,9.1,1.9,9.1,1.9l0.7,0l0,18C168.6,92.2,156.9,102,150.7,102 M150,61.2c-1.2,0.7-3.6,2.2-6.9,3.5
	c-3,1.2-5.9,1.7-7.8,1.9l-1.1,0.1v16.6c0,8.2,11.6,17.2,16.5,17.2c4.9,0,16.5-9,16.5-17.2V66.8l-1.1-0.1c-1.9-0.2-4.8-0.7-7.8-1.9
	c-3.1-1.3-5.5-2.6-6.9-3.5l-0.7-0.4L150,61.2z M143.2,83.6l0.9-1l5.2,4.4l9.9-11.3l1.1,0.9l-10.8,12.4L143.2,83.6z"/>
<path class="st6" d="M-190.6,63.2h-38.3c-1.8,0-3.3-1.5-3.3-3.3V36.6c0-1.8,1.5-3.3,3.3-3.3h38.3c1.8,0,3.3,1.5,3.3,3.3v23.3
	C-187.2,61.7-188.7,63.2-190.6,63.2 M-209.9,60.7c0.9,0,1.7-0.7,1.7-1.7c0-0.9-0.7-1.7-1.7-1.7c-0.9,0-1.7,0.7-1.7,1.7
	C-211.6,60-210.8,60.7-209.9,60.7 M-190.6,36.6h-38.3v18.3h38.3V36.6z M-212.2,68.1h5v2.6l4.9,0.9v1.6h-14.9v-1.7l5-0.8V68.1z"/>
<polygon class="st6" points="13,0.2 0.2,23.1 12.8,23.1 4.8,42.5 30.2,14.2 15,14.2 24.5,0.2 "/>
</svg>
