<?xml version="1.0" encoding="utf-8"?>
<!-- Generator: Adobe Illustrator 21.0.0, SVG Export Plug-In . SVG Version: 6.00 Build 0)  -->
<svg version="1.1" id="图层_1" xmlns="http://www.w3.org/2000/svg" xmlns:xlink="http://www.w3.org/1999/xlink" x="0px" y="0px"
	 viewBox="0 0 94.2 44" style="enable-background:new 0 0 94.2 44;" xml:space="preserve">
<style type="text/css">
	.st0{fill:none;stroke:#231815;stroke-width:0.9;stroke-miterlimit:10;}
	.st1{fill:#828282;}
	.st2{fill:#231815;}
	.st3{fill:none;stroke:#231815;stroke-width:0.25;stroke-miterlimit:10;}
	.st4{fill:none;stroke:#AEAEAF;stroke-width:0.45;stroke-linecap:round;stroke-linejoin:round;stroke-miterlimit:10;}
	.st5{font-family:'PingFangSC-Ultralight-GBpc-EUC-H';}
	.st6{font-size:38px;}
</style>
<path class="st0" d="M41.4,32.2c0.8-0.1,1.4-0.8,1.4-1.5V8.5c0-0.8-0.6-1.6-1.3-1.8l-13-3.5c-0.7-0.2-2-0.3-2.7-0.1l-21,3.8
	C4.1,7,3.5,7.7,3.5,8.5v22.2c0,0.8,0.6,1.4,1.4,1.5l20.8,1.5c0.8,0.1,2,0,2.8,0L41.4,32.2z"/>
<path class="st1" d="M4.8,19.9c0,0,0.1,0.6,0.4,1.5C5.3,22,5.6,22.5,6,23.1s1,1.1,1.8,1.2s1.7-0.2,2.5-0.8c0.8-0.5,1.6-1.3,2.4-2.1
	c0.8-0.8,1.5-1.7,2.2-2.6s1.4-1.9,2.1-2.9c1.4-2,2.7-3.9,3.9-5.8c0.6-0.9,1.3-1.8,1.9-2.6c0.7-0.8,1.3-1.6,2.1-2.1
	c0.3-0.3,0.8-0.5,1.1-0.7c0.4-0.2,0.8-0.3,1.1-0.4c0.4-0.1,0.7-0.1,1-0.2c0.3,0,0.6,0,0.9,0c0.5,0,0.9,0.1,1.2,0.1
	c0.3,0,0.4,0.1,0.4,0.1c0.1,0,0.1,0.1,0.1,0.2s-0.1,0.1-0.2,0.1l0,0c0,0-0.1,0-0.4,0s-0.7-0.1-1.2-0.1c-0.3,0-0.5,0-0.8,0
	c-0.3,0.1-0.6,0.1-1,0.2c-0.7,0.2-1.4,0.5-2.1,1.1c-0.7,0.5-1.3,1.3-2,2c-0.6,0.8-1.2,1.7-1.8,2.6c-1.2,1.9-2.5,3.9-3.9,5.9
	c-0.7,1-1.4,1.9-2.1,2.9c-0.7,0.9-1.5,1.8-2.2,2.7c-0.8,0.8-1.6,1.6-2.5,2.1c-0.9,0.6-1.9,1-2.9,0.8s-1.7-0.9-2.1-1.5
	c-0.4-0.6-0.7-1.3-0.8-1.8c-0.3-1-0.4-1.6-0.4-1.6l0,0c0-0.1,0.1-0.2,0.2-0.2C4.6,19.7,4.7,19.8,4.8,19.9"/>
<path class="st1" d="M26.8,32.1c0,0,0.4-0.2,1-0.7s1.5-1.1,2.4-2.1c0.5-0.5,0.9-1,1.4-1.6s0.9-1.3,1.3-2c0.4-0.7,0.7-1.5,1-2.3
	s0.4-1.7,0.6-2.6c0.1-0.4,0.1-0.9,0.3-1.3c0.1-0.2,0.1-0.4,0.2-0.7l0.3-0.6c0.4-0.8,0.9-1.6,1.7-2c0.8-0.5,1.8-0.6,2.5-0.2
	c0.4,0.1,0.7,0.5,1,0.7c0.2,0.3,0.5,0.6,0.6,0.9c0.3,0.6,0.5,1.2,0.7,1.8c0.1,0.5,0.2,1,0.2,1.4c0.1,0.8,0.1,1.2,0.1,1.2
	c0,0.1-0.1,0.2-0.2,0.2c-0.1,0-0.2-0.1-0.2-0.2l0,0c0,0,0-0.4-0.1-1.2c0-0.4-0.1-0.8-0.2-1.4c-0.2-0.5-0.3-1.1-0.6-1.6
	c-0.1-0.3-0.4-0.5-0.6-0.8c-0.3-0.2-0.5-0.5-0.8-0.6c-0.6-0.3-1.4-0.2-2.1,0.2c-0.7,0.4-1.2,1.1-1.5,1.9l-0.3,0.6
	c-0.1,0.2-0.1,0.4-0.2,0.6c-0.1,0.4-0.2,0.8-0.3,1.3c-0.2,0.8-0.3,1.8-0.6,2.6c-0.3,0.9-0.6,1.7-1,2.4c-0.4,0.7-0.9,1.4-1.4,2
	s-1,1.2-1.5,1.6c-1.9,1.9-3.5,2.8-3.5,2.8l0,0c-0.1,0.1-0.2,0-0.3-0.1C26.6,32.3,26.7,32.1,26.8,32.1"/>
<path class="st2" d="M12.1,19.1c-0.8,2.1-2.5,3.4-3.9,2.9s-1.8-2.6-1-4.8c0.8-2.1,2.5-3.4,3.9-2.9C12.5,14.9,12.9,17,12.1,19.1"/>
<ellipse transform="matrix(0.3497 -0.9369 0.9369 0.3497 -10.8325 20.9965)" class="st3" cx="9.7" cy="18.3" rx="4.9" ry="3.1"/>
<path class="st2" d="M40.9,21.5c-0.1,2.1-1.2,3.7-2.5,3.6c-1.3,0-2.3-1.7-2.2-3.8s1.2-3.7,2.5-3.6C39.9,17.7,40.9,19.4,40.9,21.5"/>
<ellipse transform="matrix(3.345296e-02 -0.9994 0.9994 3.345296e-02 15.8378 59.1699)" class="st3" cx="38.5" cy="21.4" rx="4.3" ry="2.7"/>
<line class="st4" x1="27.7" y1="8" x2="27.7" y2="27.3"/>
<text transform="matrix(1 0 0 1 51.0599 33.501)" class="st5 st6">S1</text>
</svg>
