<svg xmlns="http://www.w3.org/2000/svg" viewBox="0 0 111.91 101.9"><defs><style>.cls-1{fill:#B1B1B2;}</style></defs><title>资源 1</title><g id="图层_2" data-name="图层 2"><g id="图层_1-2" data-name="图层 1"><path class="cls-1" d="M110.14,24.24l-.32-.15a3,3,0,0,0-.53-.24L57.19.27a3,3,0,0,0-2.47,0l-53,24A3,3,0,0,0,0,27v48a3,3,0,0,0,1.76,2.73l53,24a3,3,0,0,0,2.47,0l53-24,.2-.11.18-.1.18-.13.17-.13L111,77l.19-.21a3,3,0,0,0,.2-.27l.08-.15c0-.07.09-.14.12-.22s0-.12.07-.18.06-.14.08-.22,0-.14,0-.2,0-.15,0-.22,0-.14,0-.21,0-.14,0-.21V27A3,3,0,0,0,110.14,24.24ZM6,28.91,56,6.29,101,26.7l-47.31,21a3,3,0,0,0-1.78,2.77L52.39,94,6,73Z"/></g></g></svg>