<?xml version="1.0" encoding="utf-8"?>
<!-- Generator: Adobe Illustrator 21.0.0, SVG Export Plug-In . SVG Version: 6.00 Build 0)  -->
<svg version="1.1" id="图层_1" xmlns="http://www.w3.org/2000/svg" xmlns:xlink="http://www.w3.org/1999/xlink" x="0px" y="0px"
	 viewBox="0 0 46 41" style="enable-background:new 0 0 46 41;" xml:space="preserve">
<style type="text/css">
	.st0{clip-path:url(#SVGID_2_);}
	.st1{clip-path:url(#SVGID_6_);}
	.st2{clip-path:url(#SVGID_10_);}
	.st3{filter:url(#Adobe_OpacityMaskFilter);}
	.st4{clip-path:url(#SVGID_14_);fill:url(#SVGID_16_);}
	.st5{clip-path:url(#SVGID_14_);mask:url(#SVGID_15_);fill:url(#SVGID_17_);}
	.st6{fill-rule:evenodd;clip-rule:evenodd;fill:#FFFFFF;}
</style>
<g>
	<defs>
		<rect id="SVGID_1_" x="952.1" y="74" width="1239.8" height="866.9"/>
	</defs>
	<clipPath id="SVGID_2_">
		<use xlink:href="#SVGID_1_"  style="overflow:visible;"/>
	</clipPath>
	<g class="st0">
		<defs>
			<rect id="SVGID_3_" x="952.1" y="-137.5" width="1239.8" height="1228.9"/>
		</defs>
		<clipPath id="SVGID_4_">
			<use xlink:href="#SVGID_3_"  style="overflow:visible;"/>
		</clipPath>
		<g style="clip-path:url(#SVGID_4_);">
			
				<image style="overflow:visible;" width="1024" height="1015" xlink:href="AA69945A705CBC9C.jpg"  transform="matrix(1.2108 0 0 1.2108 952.0958 -137.4583)">
			</image>
		</g>
	</g>
</g>
<g>
	<defs>
		<rect id="SVGID_5_" x="612" y="74" width="513.6" height="866.9"/>
	</defs>
	<clipPath id="SVGID_6_">
		<use xlink:href="#SVGID_5_"  style="overflow:visible;"/>
	</clipPath>
	<g class="st1">
		<defs>
			<rect id="SVGID_7_" x="607.2" y="-137.5" width="3705" height="1228.9"/>
		</defs>
		<clipPath id="SVGID_8_">
			<use xlink:href="#SVGID_7_"  style="overflow:visible;"/>
		</clipPath>
		<g style="clip-path:url(#SVGID_8_);">
			
				<image style="overflow:visible;" width="1024" height="1015" xlink:href="AA69945A705CBC9D.jpg"  transform="matrix(3.6181 0 0 1.2108 607.2015 -137.4583)">
			</image>
		</g>
	</g>
</g>
<g>
	<defs>
		<rect id="SVGID_9_" x="2025.5" y="74" width="506.5" height="866.9"/>
	</defs>
	<clipPath id="SVGID_10_">
		<use xlink:href="#SVGID_9_"  style="overflow:visible;"/>
	</clipPath>
	<g class="st2">
		<defs>
			<rect id="SVGID_11_" x="-1241.7" y="-137.5" width="3773.7" height="1228.9"/>
		</defs>
		<clipPath id="SVGID_12_">
			<use xlink:href="#SVGID_11_"  style="overflow:visible;"/>
		</clipPath>
		<g style="clip-path:url(#SVGID_12_);">
			
				<image style="overflow:visible;" width="1024" height="1015" xlink:href="AA69945A705CBC9B.jpg"  transform="matrix(3.6852 0 0 1.2108 -1241.6797 -137.4583)">
			</image>
		</g>
	</g>
</g>
<g>
	<defs>
		<rect id="SVGID_13_" x="612" y="74" width="1920" height="866.9"/>
	</defs>
	<clipPath id="SVGID_14_">
		<use xlink:href="#SVGID_13_"  style="overflow:visible;"/>
	</clipPath>
	<defs>
		<filter id="Adobe_OpacityMaskFilter" filterUnits="userSpaceOnUse" x="612" y="74" width="1920" height="866.9">
			<feColorMatrix  type="matrix" values="1 0 0 0 0  0 1 0 0 0  0 0 1 0 0  0 0 0 1 0"/>
		</filter>
	</defs>
	<mask maskUnits="userSpaceOnUse" x="612" y="74" width="1920" height="866.9" id="SVGID_15_">
		<g class="st3">
			
				<linearGradient id="SVGID_16_" gradientUnits="userSpaceOnUse" x1="1413.7371" y1="1005.9313" x2="1414.7371" y2="1005.9313" gradientTransform="matrix(0 -862.2077 -862.2077 0 868893.75 1219872.75)">
				<stop  offset="0" style="stop-color:#000000"/>
				<stop  offset="1" style="stop-color:#808080"/>
			</linearGradient>
			<rect x="612" y="74" class="st4" width="1920" height="866.9"/>
		</g>
	</mask>
	
		<linearGradient id="SVGID_17_" gradientUnits="userSpaceOnUse" x1="1413.7371" y1="1005.9313" x2="1414.7371" y2="1005.9313" gradientTransform="matrix(0 -862.2077 -862.2077 0 868893.75 1219872.75)">
		<stop  offset="0" style="stop-color:#0097E0"/>
		<stop  offset="1" style="stop-color:#2C46C6"/>
	</linearGradient>
	<rect x="612" y="74" class="st5" width="1920" height="866.9"/>
</g>
<path class="st6" d="M319.7,47c-6.2,0-17.9-9.8-17.9-18.6v-18l0.7,0c0,0,4.5-0.1,9.1-1.9c4.6-1.9,7.7-4.1,7.7-4.1l0.4-0.3l0.4,0.3
	c0,0,3,2.2,7.7,4.1c4.6,1.9,9.1,1.9,9.1,1.9l0.7,0l0,18C337.6,37.2,325.9,47,319.7,47 M319,6.2c-1.2,0.7-3.6,2.2-6.9,3.5
	c-3,1.2-5.9,1.7-7.8,1.9l-1.1,0.1v16.6c0,8.2,11.6,17.2,16.5,17.2c4.9,0,16.5-9,16.5-17.2V11.8l-1.1-0.1c-1.9-0.2-4.8-0.7-7.8-1.9
	c-3.1-1.3-5.5-2.6-6.9-3.5l-0.7-0.4L319,6.2z M312.2,28.6l0.9-1l5.2,4.4l9.9-11.3l1.1,0.9l-10.8,12.4L312.2,28.6z"/>
<path class="st6" d="M42.4,30.2H4.1c-1.8,0-3.3-1.5-3.3-3.3V3.6c0-1.8,1.5-3.3,3.3-3.3h38.3c1.8,0,3.3,1.5,3.3,3.3v23.3
	C45.8,28.7,44.3,30.2,42.4,30.2 M23.1,27.7c0.9,0,1.7-0.7,1.7-1.7c0-0.9-0.7-1.7-1.7-1.7c-0.9,0-1.7,0.7-1.7,1.7
	C21.4,27,22.2,27.7,23.1,27.7 M42.4,3.6H4.1v18.3h38.3V3.6z M20.8,35.1h5v2.6l4.9,0.9v1.6H15.8v-1.7l5-0.8V35.1z"/>
<polygon class="st6" points="182,-54.8 169.2,-31.9 181.8,-31.9 173.8,-12.5 199.2,-40.8 184,-40.8 193.5,-54.8 "/>
</svg>
