<?xml version="1.0" encoding="utf-8"?>
<!-- Generator: Adobe Illustrator 21.0.0, SVG Export Plug-In . SVG Version: 6.00 Build 0)  -->
<svg version="1.1" id="图层_1" xmlns="http://www.w3.org/2000/svg" xmlns:xlink="http://www.w3.org/1999/xlink" x="0px" y="0px"
	 viewBox="0 0 25.7 26" style="enable-background:new 0 0 25.7 26;" xml:space="preserve">
<style type="text/css">
	.st0{clip-path:url(#SVGID_2_);fill-rule:evenodd;clip-rule:evenodd;fill:#2292FF;}
	.st1{clip-path:url(#SVGID_2_);fill:none;stroke:#2292FF;stroke-miterlimit:10;}
	.st2{clip-path:url(#SVGID_2_);fill-rule:evenodd;clip-rule:evenodd;fill:#ffffff;}
	.st3{fill-rule:evenodd;clip-rule:evenodd;fill:#2292FF;}
</style>
<g>
	<defs>
		<rect id="SVGID_1_" x="-523.6" y="-1159.3" width="1920" height="1627.8"/>
	</defs>
	<clipPath id="SVGID_2_">
		<use xlink:href="#SVGID_1_"  style="overflow:visible;"/>
	</clipPath>
	<path class="st0" d="M642.1,17.3l-0.7,4H625l-0.7-4h-1.8v6.3h21.5v-6.3H642.1z M641.7,10.2h-5.4V7.9h-6.2v2.3h-5.3l8.4,9
		L641.7,10.2 M636.2,4h-6.2v0.8h6.2V4z M636.2,5.5h-6.2v1.6h6.2V5.5z"/>
	<line class="st1" x1="659.8" y1="-0.8" x2="659.8" y2="29.7"/>
	<path class="st2" d="M5.7,6.7l3.4,9.7H8.5h15c0.4,0,0.8,0.4,0.8,0.8c0,0.4-0.4,0.8-0.8,0.8h-15c-0.3,0-0.6-0.2-0.7-0.5L2.4,2.1H3
		H1.4c-0.4,0-0.8-0.4-0.8-0.8c0-0.4,0.4-0.8,0.8-0.8H3c0.3,0,0.6,0.2,0.8,0.5l1.4,4.1h19.4c0.5,0,0.9,0.5,0.8,1L24,12.3
		c-0.1,0.3-0.3,0.6-0.7,0.6l-11.8,1.3c-0.4,0-0.8-0.3-0.9-0.7c0-0.4,0.3-0.8,0.7-0.9l11.2-1.3c0,0,0.6-2.6,1-4.6
		C23.6,6.7,9.1,6.7,5.7,6.7 M10.3,21.3c0.6,0,1.2,0.5,1.2,1.2c0,0.6-0.5,1.2-1.2,1.2s-1.2-0.5-1.2-1.2C9.2,21.8,9.7,21.3,10.3,21.3
		 M10.3,19.8c-1.5,0-2.7,1.2-2.7,2.7c0,1.5,1.2,2.7,2.7,2.7s2.7-1.2,2.7-2.7C13,20.9,11.8,19.8,10.3,19.8 M21.5,21.3
		c0.6,0,1.2,0.5,1.2,1.2c0,0.6-0.5,1.2-1.2,1.2c-0.6,0-1.2-0.5-1.2-1.2C20.3,21.8,20.8,21.3,21.5,21.3 M21.5,19.8
		c-1.5,0-2.7,1.2-2.7,2.7c0,1.5,1.2,2.7,2.7,2.7c1.5,0,2.7-1.2,2.7-2.7C24.2,20.9,23,19.8,21.5,19.8"/>
</g>
<path class="st3" d="M226.3,33.9l-0.7,4h-16.4l-0.7-4h-1.8v6.3h21.5v-6.3H226.3z M225.9,26.8h-5.4v-2.3h-6.2v2.3H209l8.4,9
	L225.9,26.8 M220.5,20.6h-6.2v0.8h6.2V20.6z M220.5,22.2h-6.2v1.6h6.2V22.2z"/>
</svg>
