<?xml version="1.0" encoding="utf-8"?>
<!-- Generator: Adobe Illustrator 21.0.0, SVG Export Plug-In . SVG Version: 6.00 Build 0)  -->
<svg version="1.1" id="图层_1" xmlns="http://www.w3.org/2000/svg" xmlns:xlink="http://www.w3.org/1999/xlink" x="0px" y="0px"
	 viewBox="0 0 43 48" style="enable-background:new 0 0 43 48;" xml:space="preserve">
<style type="text/css">
	.st0{fill-rule:evenodd;clip-rule:evenodd;fill:#D3D4D4;}
	.st1{fill-rule:evenodd;clip-rule:evenodd;fill:#1A1A1A;}
	.st2{fill-rule:evenodd;clip-rule:evenodd;fill:#FFFFFF;stroke:#FFFFFF;stroke-width:2;stroke-miterlimit:10;}
</style>
<path class="st0" d="M-529.6,36.2c0,9.4,8.2,17.1,18.3,17.1c10.1,0,18.3-7.7,18.3-17.1V36c-1.9,1.9-4.6,3-7.6,3
	c-5.9,0-10.7-4.5-10.7-10c0-4,2.5-7.4,6.1-9c-1.9-0.6-4-0.9-6.1-0.9C-521.4,19.1-529.6,26.8-529.6,36.2 M-442,26.5
	C-453.4,13-481.1-9.5-511.3-9.5c-30.2,0-58,22.4-69.3,35.9c-2.6,3-4,6.4-4,9.7c0.1,3.3,1.5,6.7,4,9.7c11.4,13.5,39.1,35.9,69.3,35.9
	s57.9-22.4,69.3-35.9c2.6-3.1,4-6.4,4.1-9.7C-438,32.8-439.3,29.5-442,26.5 M-511.2,64.7c-16.9,0-30.6-12.8-30.6-28.5
	c0-15.8,13.7-28.5,30.6-28.5c16.9,0,30.6,12.8,30.6,28.5C-480.6,51.9-494.3,64.7-511.2,64.7"/>
<path class="st0" d="M-233.7,28.3l-43.8,17.9l-43.9-17.9l43.8-17L-233.7,28.3z M-325.1,35.7l43.7,18.3v49.5
	c-3.5-1.5-7.1-3.1-10.8-4.8c-3.2-1.4-6.8-3-10.9-4.7c-4-1.7-8.1-3.5-12.2-5.2c-1.5-0.7-2.8-1.6-4-2.7c-1.2-1.1-2.2-2.3-3.1-3.6
	c-0.9-1.3-1.5-2.7-2-4.2c-0.5-1.5-0.7-2.9-0.7-4.3L-325.1,35.7L-325.1,35.7z M-230.9,35.7v38c0,1.7-0.3,3.4-1,5.1
	c-0.7,1.6-1.5,3.2-2.6,4.6c-1,1.4-2.2,2.7-3.5,3.8c-1.3,1.1-2.5,2-3.7,2.6c-3.5,1.5-7.3,3-11.1,4.6c-3.9,1.6-7.5,3.1-10.7,4.4
	c-3.8,1.6-7.6,3.1-11.2,4.6V54L-230.9,35.7z"/>
<path class="st0" d="M-237.2,280c0,0-6.6-10.2-9.8-12.5c0,0,2.9-5.5-0.4-9.5c0,0,3.1-5.9,3.8-13.2
	C-243.8,244.8-231.9,257.8-237.2,280 M-262.6,255.6c-12.7-7.7-27.4-8.6-27.4-8.6c-0.1-2.5-3.6-5.1-3.6-5.1
	c1.5-5.5,10.8-17.5,10.8-17.5c23.7,0.5,35,14.8,35,14.8c-0.6,9.9-3.7,15.2-3.7,15.2C-257,251.1-262.6,255.6-262.6,255.6 M-309.2,248
	c0,0-9.2,1.6-17.3,5.8c0,0,8.2-24.2,36.5-28.8c0,0-4.3,6-8.4,15.5C-298.5,240.4-307.1,239.5-309.2,248 M-302.8,258.9
	c-1.2,12.9,3.7,25,3.7,25c-4,3-4,9-4,9c-10,1-19.9-1.1-19.9-1.1c-9.6-15.1-5.6-31.2-5.6-31.2c7.7-5.4,19.6-7.8,19.6-7.8
	C-307.8,257.8-302.8,258.9-302.8,258.9 M-300.5,297.4c2.8,5.6,11,3.6,11,3.6c2.1,3.1,12.6,12.6,12.6,12.6c-29.3,2.6-42-16.2-42-16.2
	C-311.1,299-300.5,297.4-300.5,297.4 M-261.3,270.9c0,0-6.7,9.8-22.1,16.7c0,0-3-6.8-11-5.5c0,0-3.2-6-3.3-22.9c0,0,6.8,0.4,8-7.4
	c0,0,13.5,1.2,24.3,7.4C-265.4,259.2-268,267.1-261.3,270.9 M-285.4,298.1c0,0,2-0.8,2.8-5.6c0,0,16.3-5.5,26.3-20.2
	c0,0,3.2,0.2,5.4-1.5c0,0,7.6,6.8,11.2,15.7c0,0-7.1,19.4-30,25.7C-269.8,312.3-280.1,305.8-285.4,298.1"/>
<path class="st1" d="M119.7,84c-6.2,0-17.9-9.8-17.9-18.6v-18l0.7,0c0,0,4.5-0.1,9.1-1.9c4.6-1.9,7.7-4.1,7.7-4.1l0.4-0.3l0.4,0.3
	c0,0,3,2.2,7.7,4.1c4.6,1.9,9.1,1.9,9.1,1.9l0.7,0l0,18C137.6,74.2,125.9,84,119.7,84 M119,43.2c-1.2,0.7-3.6,2.2-6.9,3.5
	c-3,1.2-5.9,1.7-7.8,1.9l-1.1,0.1v16.6c0,8.2,11.6,17.2,16.5,17.2c4.9,0,16.5-9,16.5-17.2V48.8l-1.1-0.1c-1.9-0.2-4.8-0.7-7.8-1.9
	c-3.1-1.3-5.5-2.6-6.9-3.5l-0.7-0.4L119,43.2z M112.2,65.6l0.9-1l5.2,4.4l9.9-11.3l1.1,0.9l-10.8,12.4L112.2,65.6z"/>
<path class="st2" d="M21.7,45c-6.2,0-17.9-9.8-17.9-18.6v-18l0.7,0c0,0,4.5-0.1,9.1-1.9c4.6-1.9,7.7-4.1,7.7-4.1l0.4-0.3l0.4,0.3
	c0,0,3,2.2,7.7,4.1c4.6,1.9,9.1,1.9,9.1,1.9l0.7,0l0,18C39.6,35.2,27.9,45,21.7,45 M21,4.2c-1.2,0.7-3.6,2.2-6.9,3.5
	c-3,1.2-5.9,1.7-7.8,1.9L5.1,9.8v16.6c0,8.2,11.6,17.2,16.5,17.2c4.9,0,16.5-9,16.5-17.2V9.8l-1.1-0.1c-1.9-0.2-4.8-0.7-7.8-1.9
	c-3.1-1.3-5.5-2.6-6.9-3.5l-0.7-0.4L21,4.2z M13.2,23.6l0.9-1l5.2,4.4l9.9-11.3l1.1,0.9L19.5,28.9L13.2,23.6z"/>
</svg>
