<?xml version="1.0" encoding="utf-8"?>
<!-- Generator: Adobe Illustrator 21.0.0, SVG Export Plug-In . SVG Version: 6.00 Build 0)  -->
<svg version="1.1" id="图层_1" xmlns="http://www.w3.org/2000/svg" xmlns:xlink="http://www.w3.org/1999/xlink" x="0px" y="0px"
	 viewBox="0 0 58 59" style="enable-background:new 0 0 58 59;" xml:space="preserve">
<style type="text/css">
	.st0{fill-rule:evenodd;clip-rule:evenodd;fill:#FFFFFF;}
</style>
<image style="overflow:visible;" width="1024" height="515" xlink:href="47597672B792CDE2.jpg"  transform="matrix(1.875 0 0 1.875 -970 -1120)">
</image>
<path class="st0" d="M55.7,12.2L29.3,22.9L2.8,12.2L29.2,1.9L55.7,12.2z M0.6,16.6l26.4,11v29.8c-2.1-0.9-4.3-1.9-6.5-2.9
	c-1.9-0.8-4.1-1.8-6.6-2.8c-2.4-1.1-4.9-2.1-7.4-3.1c-0.9-0.4-1.7-0.9-2.4-1.6c-0.7-0.7-1.4-1.4-1.9-2.2C1.7,44,1.3,43.2,1,42.3
	c-0.3-0.9-0.4-1.8-0.4-2.6L0.6,16.6L0.6,16.6z M57.4,16.6v22.9c0,1.1-0.2,2.1-0.6,3.1c-0.4,1-0.9,1.9-1.5,2.8s-1.3,1.6-2.1,2.3
	c-0.8,0.7-1.5,1.2-2.2,1.5c-2.1,0.9-4.4,1.8-6.7,2.8c-2.3,1-4.5,1.9-6.5,2.7c-2.3,1-4.6,1.9-6.8,2.8V27.7L57.4,16.6z"/>
</svg>
