<?xml version="1.0" encoding="utf-8"?>
<!-- Generator: Adobe Illustrator 21.0.0, SVG Export Plug-In . SVG Version: 6.00 Build 0)  -->
<svg version="1.1" id="图层_1" xmlns="http://www.w3.org/2000/svg" xmlns:xlink="http://www.w3.org/1999/xlink" x="0px" y="0px"
	 viewBox="0 0 68 61" style="enable-background:new 0 0 68 61;" xml:space="preserve">
<style type="text/css">
	.st0{clip-path:url(#SVGID_2_);fill-rule:evenodd;clip-rule:evenodd;fill:#858585;}
</style>
<g>
	<defs>
		<rect id="SVGID_1_" x="-532.1" y="-782.1" width="1920" height="1627.8"/>
	</defs>
	<clipPath id="SVGID_2_">
		<use xlink:href="#SVGID_1_"  style="overflow:visible;"/>
	</clipPath>
	<path class="st0" d="M29.1,19.6h-4.3L14.7,33.5v2.7h10.4v4.4h4v-4.4h2.6v-3.1h-2.6V19.6z M25.2,26.1v7h-6.3
		c0.3-0.5,1.1-1.6,2.6-3.5c0.1-0.2,0.2-0.4,0.5-0.7c0.1-0.1,0.1-0.2,0.2-0.3c0.6-0.9,1.4-1.9,2.2-3l0.1-0.2c0-0.1,0-0.1,0.1-0.2
		c0.1-0.3,0.2-0.5,0.3-0.6c0.2-0.3,0.3-0.4,0.3-0.5l0.1-0.2C25.2,24.4,25.2,25.1,25.2,26.1 M60.9,1.8H7.6c-2.9,0-5.3,2.4-5.3,5.3
		v46.1c0,2.9,2.4,5.3,5.3,5.3h53.2c2.9,0,5.3-2.4,5.3-5.3V7.1C66.2,4.2,63.8,1.8,60.9,1.8 M9.4,5.4h49.7c2,0,3.5,1.6,3.5,3.5v42.6
		c0,2-1.6,3.5-3.5,3.5H9.4c-2,0-3.5-1.6-3.5-3.5V8.9C5.9,7,7.5,5.4,9.4,5.4 M53.1,19.7h-4.9L40,29.8V19.6h-4v21.3h4v-5.7l3.1-3.6
		l5.7,9.3h5l-8.3-12.2L53.1,19.7z"/>
	<path class="st0" d="M574.2,61c-4.5,0-10.9-3.4-16.3-8.6c-6-5.8-9.5-12.4-9.5-18.1V8.4l1.8,0c0.1,0,6.1-0.1,12.4-2.7
		c6.3-2.6,10.5-5.5,10.5-5.6l1.1-0.8l1.1,0.8c0,0,4.1,3,10.5,5.6c6.3,2.5,12.3,2.7,12.4,2.7l1.8,0l0,25.9c0,5.7-3.5,12.3-9.5,18.1
		C585.1,57.6,578.7,61,574.2,61 M552.1,34.3c0,10.8,15.7,23.1,22.1,23.1c6.4,0,22.1-12.3,22.1-23.1V11.9l-0.8-0.1
		c-2.7-0.3-6.8-1-11.1-2.7c-4.4-1.8-7.7-3.7-9.8-5l-0.5-0.3l-0.5,0.3c-1.7,1.1-5.1,3.1-9.8,5c-4.3,1.7-8.4,2.4-11.1,2.7l-0.8,0.1
		L552.1,34.3L552.1,34.3z M562.7,34.6l2.4-2.8l7.2,6.1l13.8-15.8l2.8,2.4l-16.1,18.5L562.7,34.6z"/>
	<path class="st0" d="M574.2,60.2c-8.7,0-24.9-13.7-24.9-25.9v-25l1,0c0,0,6.3-0.1,12.7-2.7c6.4-2.6,10.7-5.6,10.7-5.7l0.6-0.4
		l0.6,0.4c0,0,4.2,3,10.7,5.7c6.4,2.6,12.7,2.7,12.7,2.7l0.9,0l0,25C599.1,46.5,582.9,60.2,574.2,60.2 M573.3,3.4
		c-1.6,1-5,3-9.6,4.9c-4.2,1.7-8.2,2.4-10.9,2.7l-1.5,0.2v23.1c0,11.4,16.1,23.9,23,23.9c6.8,0,23-12.5,23-23.9V11.2l-1.5-0.2
		c-2.7-0.3-6.7-1-10.9-2.7c-4.3-1.7-7.6-3.6-9.6-4.9l-0.9-0.6L573.3,3.4z M563.9,34.5l1.2-1.5l7.2,6.1l13.8-15.8l1.5,1.3l-15,17.2
		L563.9,34.5z"/>
	<path class="st0" d="M35.1,146.3c-17.6,0-31.9,14.3-31.9,31.9c0,17.6,14.3,31.9,31.9,31.9c17.6,0,31.9-14.3,31.9-31.9
		C67,160.6,52.7,146.3,35.1,146.3 M35.1,202.4c-13.3,0-24.1-10.8-24.1-24.1s10.8-24.1,24.1-24.1c13.3,0,24.1,10.8,24.1,24.1
		S48.4,202.4,35.1,202.4"/>
	<path class="st0" d="M35.1,157.6c-11.4,0-20.6,9.2-20.6,20.6c0,11.4,9.2,20.6,20.6,20.6c11.4,0,20.6-9.2,20.6-20.6
		C55.7,166.9,46.4,157.6,35.1,157.6 M35.1,171.4c-6,0-10.8-2.4-10.8-5.4c0-3,4.8-5.4,10.8-5.4c6,0,10.8,2.4,10.8,5.4
		C45.9,168.9,41.1,171.4,35.1,171.4"/>
	<path class="st0" d="M571.9,360.5l-14-17.3c0,0-0.7-6.4,5.6-3.7c3.7,1.6,5,5,5,5l0.1-26.3c0,0,3.8-5.5,7.1,0l0.1,16.6
		c0,0,4.1-5.5,8.9,0.4c0,0,3.6-6,8.7,0.3c0,0,3.6-6.9,7.2,0.6V357c0,0-0.2,1.6-3.1,3.5H571.9z"/>
	<path class="st0" d="M572,304.8c-7.8,0-14.2,6.2-14.2,14c0,5.2,2.9,9.6,7.1,12v-4.3c-2.2-1.9-3.6-4.7-3.6-7.8
		c0-5.8,4.8-10.4,10.6-10.4c5.9,0,10.6,4.7,10.6,10.4c0,3-1.4,5.8-3.5,7.7v4.4c4.2-2.4,7.1-6.9,7.1-12
		C586.2,311.1,579.8,304.8,572,304.8"/>
</g>
</svg>
