<?xml version="1.0" encoding="utf-8"?>
<!-- Generator: Adobe Illustrator 21.0.0, SVG Export Plug-In . SVG Version: 6.00 Build 0)  -->
<svg version="1.1" id="图层_1" xmlns="http://www.w3.org/2000/svg" xmlns:xlink="http://www.w3.org/1999/xlink" x="0px" y="0px"
	 viewBox="0 0 25 23" style="enable-background:new 0 0 25 23;" xml:space="preserve">
<style type="text/css">
	.st0{fill-rule:evenodd;clip-rule:evenodd;fill:#FFFFFF;}
	.st1{fill:#FFFFFF;}
	.st2{fill-rule:evenodd;clip-rule:evenodd;fill:#808080;}
</style>
<path class="st0" d="M321.8,319.9c-5.5,0-10-4.5-10-10c0-5.5,4.5-10,10-10c5.5,0,10,4.5,10,10C331.9,315.4,327.4,319.9,321.8,319.9
	 M321.8,301.3c-4.7,0-8.5,3.8-8.5,8.5s3.8,8.5,8.5,8.5c4.7,0,8.5-3.8,8.5-8.5S326.6,301.3,321.8,301.3 M326.7,311.2h-5.1
	c-0.1,0-0.3-0.1-0.4-0.2c-0.1-0.1-0.2-0.2-0.2-0.4v-6.1c0-0.3,0.2-0.5,0.5-0.5h0.5c0.3,0,0.5,0.2,0.5,0.5v5.1h4.1
	c0.3,0,0.5,0.2,0.5,0.5v0.5C327.2,310.9,327,311.2,326.7,311.2"/>
<path class="st0" d="M422.6,383.9l-4.7,2.3v-2.3c0-1.3-1-2.3-2.3-2.3h-16.3c-1.3,0-2.3,1-2.3,2.3v14c0,1.3,1,2.3,2.3,2.3h16.3
	c1.3,0,2.3-1,2.3-2.3v-2.3l4.7,2.3c1.3,0,2.3-1,2.3-2.3v-9.3C424.9,384.9,423.8,383.9,422.6,383.9 M415.6,397.9h-16.3v-14h16.3
	V397.9z M422.6,395.3l-3.6-1.9c-0.4-0.1-0.7-0.2-1.1-0.2v-4.7c0.3,0,0.7-0.1,1.1-0.2l3.6-1.9V395.3z"/>
<path class="st0" d="M159.1,103.8h-7.4c-1.5,0-2.7,1.2-2.7,2.8v6.3c0,1.5,1.2,2.8,2.7,2.8h7.9v-0.5h-7.9c-1.3,0-2.3-1-2.3-2.3v-6.3
	c0-1.3,1-2.3,2.3-2.3h7.4c1.3,0,2.3,1,2.3,2.3v5.4h0.5v-5.4C161.9,105.1,160.7,103.8,159.1,103.8 M163.9,113.6l-1-1
	c-0.1-0.1-0.1-0.2,0-0.3c0,0,0.1-0.1,0.2-0.1c0.1,0,0.1,0,0.2,0.1l1.5,1.5c0,0,0,0,0,0c0,0,0,0,0,0c0,0,0,0.1,0,0.1c0,0,0,0,0,0
	c0,0,0,0.1,0,0.1v0c0,0,0,0.1-0.1,0.1l-1.5,1.4c0,0-0.1,0.1-0.2,0.1c-0.1,0-0.1,0-0.1-0.1c-0.1-0.1-0.1-0.2,0-0.3l1.1-1.1
	c-3.1-0.2-3.4,1.6-3.4,1.7c0,0.1-0.1,0.2-0.2,0.2c-0.1,0-0.2-0.1-0.2-0.3C160.1,115.6,160.5,113.5,163.9,113.6z"/>
<path class="st1" d="M160.3,116.1C160.3,116.1,160.3,116.1,160.3,116.1c-0.3,0-0.4-0.2-0.4-0.4c0-0.1,0.3-2.2,3.5-2.2l-0.8-0.8
	c-0.1-0.1-0.1-0.4,0-0.5c0.1-0.1,0.2-0.1,0.3-0.1c0.1,0,0.2,0,0.3,0.1l1.4,1.5l0,0l0,0c0,0,0.1,0.1,0.1,0.2c0,0,0,0,0,0
	c0,0.1,0,0.1,0,0.2v0l0,0c0,0,0,0.1-0.1,0.1l-1.5,1.4c-0.1,0.1-0.2,0.1-0.2,0.1h0c-0.1,0-0.2-0.1-0.3-0.1c-0.1-0.2-0.1-0.4,0-0.5
	l0.9-0.8c-2.6,0-2.9,1.5-2.9,1.6C160.7,116,160.5,116.1,160.3,116.1 M163.5,113.8c-3,0-3.2,1.9-3.2,2c0,0,0,0.1,0.1,0.1v0
	c0,0,0.1,0,0.1-0.1c0-0.1,0.3-1.8,3.1-1.8c0.1,0,0.3,0,0.4,0l0.3,0l-1.4,1.3c0,0,0,0.1,0,0.1c0,0,0,0,0,0c0,0,0,0,0,0l1.5-1.4
	c0,0,0,0,0,0l0,0c0,0,0,0,0,0l0,0c0,0,0,0,0,0l0,0l0,0l-1.4-1.4c0,0,0,0,0,0c0,0,0,0,0,0c0,0,0,0.1,0,0.1l1.3,1.3l-0.4,0
	C163.8,113.8,163.6,113.8,163.5,113.8 M159.7,115.8h-8c-1.6,0-2.9-1.3-2.9-2.9v-6.3c0-1.6,1.3-2.9,2.9-2.9h7.4
	c1.6,0,2.9,1.3,2.9,2.9v5.6h-0.8v-5.6c0-1.2-1-2.2-2.1-2.2h-7.4c-1.2,0-2.1,1-2.1,2.2v6.3c0,1.2,0.9,2.2,2.1,2.2h8V115.8z
	 M151.7,104c-1.4,0-2.6,1.2-2.6,2.6v6.3c0,1.4,1.2,2.6,2.6,2.6h7.7v-0.2h-7.7c-1.3,0-2.4-1.1-2.4-2.5v-6.3c0-1.4,1.1-2.5,2.4-2.5
	h7.4c1.3,0,2.4,1.1,2.4,2.5v5.3h0.2v-5.3c0-1.4-1.2-2.6-2.6-2.6H151.7z"/>
<path class="st1" d="M154,107.2v3.1h0.7v0.6H154v1h-0.7v-1h-2.3v-0.7l2.3-3H154z M151.7,110.3h1.7v-2.2h0L151.7,110.3z"/>
<polygon class="st1" points="159.2,107.2 157.1,109.2 159.5,111.8 158.5,111.8 156.6,109.7 156,110.2 156,111.8 155.3,111.8 
	155.3,107.2 156,107.2 156,109.4 158.3,107.2 "/>
<path class="st1" d="M40.5,57.3c0,1-0.8,1.7-1.7,1.7c-1,0-1.7-0.8-1.7-1.7c0-1,0.8-1.7,1.7-1.7C39.7,55.6,40.5,56.4,40.5,57.3"/>
<path class="st2" d="M15.3,12.2c0-0.2-0.1-0.5-0.3-0.6c-0.2-0.2-0.4-0.3-0.6-0.3H10c-0.3,0-0.5,0.1-0.6,0.3
	c-0.2,0.2-0.3,0.4-0.3,0.6V13c-1.3-0.3-2.6-0.7-4.1-1.3c-1.5-0.6-2.6-1.1-3.5-1.5L0.2,9.7V6.2c0-0.5,0.2-0.9,0.5-1.3
	C1.1,4.6,1.5,4.4,2,4.4h5.3V2.6c0-0.5,0.2-0.9,0.5-1.3C8.2,1,8.6,0.8,9.1,0.8h6.2c0.5,0,0.9,0.2,1.3,0.5c0.3,0.3,0.5,0.7,0.5,1.3
	v1.7h5.3c0.5,0,0.9,0.2,1.3,0.5c0.3,0.3,0.5,0.7,0.5,1.3v3.5c-0.3,0.2-0.8,0.4-1.4,0.7c-0.6,0.3-1.7,0.7-3.2,1.3
	c-1.5,0.6-3,1.1-4.2,1.3v-0.8H15.3z M22.3,22.8H2c-0.5,0-0.9-0.2-1.3-0.5c-0.3-0.3-0.5-0.7-0.5-1.3V10.4c0.3,0.2,0.8,0.4,1.4,0.7
	c0.6,0.3,1.7,0.7,3.2,1.3c1.5,0.6,3,1.1,4.2,1.3v1.1c0,0.3,0.1,0.5,0.3,0.6c0.2,0.2,0.4,0.3,0.6,0.3h4.4c0.2,0,0.5-0.1,0.6-0.3
	c0.2-0.2,0.3-0.4,0.3-0.6v-1c1.3-0.3,2.6-0.7,4.1-1.3c1.5-0.5,2.6-1,3.5-1.4l1.3-0.6V21c0,0.5-0.2,0.9-0.5,1.3
	C23.2,22.6,22.8,22.8,22.3,22.8 M15.3,3.4c0-0.2-0.1-0.5-0.3-0.6c-0.2-0.2-0.4-0.3-0.6-0.3H10c-0.3,0-0.5,0.1-0.6,0.3
	C9.1,3,9.1,3.2,9.1,3.4v0.9h6.2V3.4z M13.5,12.2c0.2,0,0.5,0.1,0.6,0.3c0.2,0.2,0.3,0.4,0.3,0.6V14c0,0.3-0.1,0.5-0.3,0.6
	c-0.2,0.2-0.4,0.3-0.6,0.3h-2.7c-0.3,0-0.5-0.1-0.6-0.3C10,14.4,10,14.2,10,14v-0.9c0-0.2,0.1-0.5,0.3-0.6c0.2-0.2,0.4-0.3,0.6-0.3
	H13.5z"/>
<path class="st2" d="M47.3,8.5h-1.6l-3.8,5.3v1h3.9v1.7h1.5v-1.7h1v-1.2h-1V8.5z M45.8,11v2.7h-2.4c0.1-0.2,0.4-0.6,1-1.3
	c0-0.1,0.1-0.2,0.2-0.3c0-0.1,0.1-0.1,0.1-0.1c0.2-0.4,0.5-0.7,0.9-1.1l0-0.1c0,0,0-0.1,0-0.1c0.1-0.1,0.1-0.2,0.1-0.2
	c0.1-0.1,0.1-0.2,0.1-0.2l0-0.1C45.8,10.4,45.8,10.6,45.8,11 M59.3,1.8H39.1c-1.1,0-2,0.9-2,2v17.5c0,1.1,0.9,2,2,2h20.2
	c1.1,0,2-0.9,2-2V3.8C61.3,2.7,60.4,1.8,59.3,1.8 M60,20.7c0,0.7-0.6,1.3-1.3,1.3H39.8c-0.7,0-1.3-0.6-1.3-1.3V4.5
	c0-0.7,0.6-1.3,1.3-1.3h18.8c0.7,0,1.3,0.6,1.3,1.3V20.7z M56.4,8.6h-1.8l-3.1,3.8V8.5h-1.5v8.1h1.5v-2.2l1.2-1.4l2.2,3.5h1.9
	L53.5,12L56.4,8.6z"/>
</svg>
