<?xml version="1.0" encoding="utf-8"?>
<!-- Generator: Adobe Illustrator 21.0.0, SVG Export Plug-In . SVG Version: 6.00 Build 0)  -->
<svg version="1.1" id="图层_1" xmlns="http://www.w3.org/2000/svg" xmlns:xlink="http://www.w3.org/1999/xlink" x="0px" y="0px"
	 viewBox="0 0 28 27.5" style="enable-background:new 0 0 28 27.5;" xml:space="preserve">
<style type="text/css">
	.st0{fill-rule:evenodd;clip-rule:evenodd;fill:#FFFFFF;}
</style>
<path class="st0" d="M14.1,26.8C6.9,26.8,1.1,21,1.1,13.8c0-7.1,5.8-12.9,12.9-12.9C21.2,0.9,27,6.7,27,13.8c0,2.3-0.6,4.1-1.7,6
	c-0.2,0.4-0.9,1.7-1.7,0.9c-0.3-0.3-0.2-1.4,0-1.7c1-1.7,1.7-3.2,1.7-5.2c0-6.3-4.9-11.2-11.2-11.2C7.8,2.6,2.9,7.6,2.9,13.8
	S7.8,25,14.1,25c2.3,0,4.4-0.1,6-1.7c0.9-0.9,1.5-0.3,1.7,0c0.2,0.3-0.5,1.5-0.9,1.7C18.8,26.5,16.7,26.8,14.1,26.8"/>
<path class="st0" d="M15.7,14.3L19,11c0.3-0.3,0.3-0.9,0-1.2c-0.3-0.3-0.9-0.3-1.2,0l-3.3,3.3l-3.3-3.3c-0.3-0.3-0.9-0.3-1.2,0
	c-0.3,0.3-0.3,0.9,0,1.2l3.3,3.3L10,17.5c-0.3,0.3-0.3,0.9,0,1.2c0.2,0.2,0.4,0.3,0.6,0.3c0.2,0,0.4-0.1,0.6-0.3l3.3-3.3l3.3,3.3
	c0.2,0.2,0.4,0.3,0.6,0.3c0.2,0,0.4-0.1,0.6-0.3c0.3-0.3,0.3-0.9,0-1.2L15.7,14.3z"/>
</svg>
