<?xml version="1.0" encoding="utf-8"?>
<!-- Generator: Adobe Illustrator 21.0.0, SVG Export Plug-In . SVG Version: 6.00 Build 0)  -->
<svg version="1.1" id="图层_1" xmlns="http://www.w3.org/2000/svg" xmlns:xlink="http://www.w3.org/1999/xlink" x="0px" y="0px"
	 viewBox="0 0 128 124" style="enable-background:new 0 0 128 124;" xml:space="preserve">
<style type="text/css">
	.st0{display:none;}
	.st1{display:inline;}
	.st2{display:inline;opacity:0.8;clip-path:url(#SVGID_2_);}
	.st3{clip-path:url(#SVGID_4_);fill-rule:evenodd;clip-rule:evenodd;fill:#D8D9D9;}
	.st4{clip-path:url(#SVGID_6_);fill-rule:evenodd;clip-rule:evenodd;fill:#727171;}
	.st5{fill-rule:evenodd;clip-rule:evenodd;fill:#D8D9D9;}
</style>
<g class="st0">
	<defs>
		<rect id="SVGID_1_" x="-483.7" y="-790.4" width="1920" height="2296.9"/>
	</defs>
	<clipPath id="SVGID_2_" class="st1">
		<use xlink:href="#SVGID_1_"  style="overflow:visible;"/>
	</clipPath>
	<g class="st2">
		<g>
			<defs>
				<rect id="SVGID_3_" x="10.6" y="-80.6" width="165.7" height="116.7"/>
			</defs>
			<clipPath id="SVGID_4_">
				<use xlink:href="#SVGID_3_"  style="overflow:visible;"/>
			</clipPath>
			<path class="st3" d="M76.3,17.2c1.7,0,3.2-0.8,4.2-2L88,6.9v23.5c0,3.3,2.9,5.6,6.2,5.6c3.3,0,5.7-2.3,5.7-5.6V6.9l7.4,8.3
				c1.1,1.2,2.7,2,4.4,2c3.3,0,6.1-2.7,6.1-5.9c0-0.2,0-0.4,0-0.6c-0.1-1.3-0.7-2.5-1.5-3.4L98.3-12.5l0,0c-1.1-1.2-2.6-2-4.4-2
				c-1.7,0-3.3,0.8-4.4,2l0,0L71.9,7.3c-0.8,0.9-1.4,2.1-1.5,3.4v0c0,0.2,0,0.4,0,0.6c0,0.2,0,0.4,0,0.6
				C70.7,14.9,73.2,17.2,76.3,17.2 M148.8-42.7c-8.6-22.2-30.1-38-55.4-38c-25.2,0-46.7,15.8-55.4,38C22.2-37.8,10.6-23,10.6-5.5
				c0,21.5,17.4,38.8,38.8,38.8c4.3,0,7.8-3.5,7.8-7.8c0-4.3-3.5-7.8-7.8-7.8c-12.9,0-23.3-10.4-23.3-23.3c0-6.9,3.1-13.2,7.9-17.4
				c0.5-0.4,1-0.9,1.5-1.3c0,0,0.1-0.1,0.1-0.1c0.5-0.4,1-0.7,1.6-1.1c0.1-0.1,0.2-0.1,0.2-0.2c0.5-0.3,1-0.6,1.5-0.8
				c0.1-0.1,0.3-0.1,0.4-0.2c0.5-0.2,1-0.4,1.5-0.6c0.2-0.1,0.4-0.2,0.7-0.2c0.4-0.2,0.9-0.3,1.3-0.5c0.3-0.1,0.6-0.2,0.9-0.2
				c0.4-0.1,0.8-0.2,1.2-0.3c0.4-0.1,0.9-0.1,1.3-0.2c0.3,0,0.6-0.1,0.9-0.1c0.7-0.1,1.5-0.1,2.3-0.1c0.2,0,0.5,0,0.7,0
				c0.2-1.3,0.5-2.6,0.9-3.9c0.1-0.3,0.2-0.6,0.3-0.9c0.3-1,0.6-1.9,0.9-2.9c0.1-0.3,0.2-0.6,0.4-0.8c0.4-1,0.8-1.9,1.2-2.8
				c0.1-0.2,0.2-0.4,0.3-0.7c0.5-1,1-1.9,1.5-2.8c7.7-12.8,21.7-21.4,37.7-21.4c16,0,30,8.6,37.7,21.4c0.6,0.9,1.1,1.9,1.5,2.8
				c0.1,0.2,0.2,0.4,0.3,0.7c0.4,0.9,0.8,1.9,1.2,2.8c0.1,0.3,0.2,0.6,0.4,0.8c0.4,0.9,0.7,1.9,0.9,2.9c0.1,0.3,0.2,0.6,0.3,0.9
				c0.4,1.3,0.7,2.6,0.9,3.9c0.2,0,0.5,0,0.7,0c0.8,0,1.5,0,2.3,0.1c0.3,0,0.6,0.1,0.9,0.1c0.4,0.1,0.9,0.1,1.3,0.2
				c0.4,0.1,0.8,0.2,1.2,0.3c0.3,0.1,0.6,0.1,0.9,0.2c0.5,0.1,0.9,0.3,1.3,0.5c0.2,0.1,0.4,0.1,0.7,0.2c0.5,0.2,1,0.4,1.5,0.6
				c0.1,0.1,0.3,0.1,0.4,0.2c0.5,0.3,1,0.5,1.5,0.8c0.1,0.1,0.2,0.1,0.2,0.2c0.5,0.3,1.1,0.7,1.6,1.1c0,0,0.1,0.1,0.1,0.1
				c0.5,0.4,1.1,0.8,1.5,1.3c4.8,4.3,7.9,10.5,7.9,17.4c0,12.9-10.4,23.3-23.3,23.3c-4.3,0-7.8,3.5-7.8,7.8c0,4.3,3.5,7.8,7.8,7.8
				c21.5,0,38.8-17.4,38.8-38.8C176.3-23,164.7-37.8,148.8-42.7"/>
		</g>
	</g>
</g>
<g>
	<defs>
		<rect id="SVGID_5_" x="-1028.7" y="-699.2" width="1920" height="2296.9"/>
	</defs>
	<clipPath id="SVGID_6_">
		<use xlink:href="#SVGID_5_"  style="overflow:visible;"/>
	</clipPath>
	<path class="st4" d="M-100.5,270h-33.5c-2.4,0-4.4-2-4.4-4.4v-45.2c0-2.4,2-4.4,4.4-4.4h33.5c2.4,0,4.4,2,4.4,4.4v45.2
		C-96.2,268.1-98.1,270-100.5,270 M-99.1,221.9c0-1.6-1.3-2.9-2.9-2.9h-30.6c-1.6,0-2.9,1.3-2.9,2.9v42.3c0,1.6,1.3,2.9,2.9,2.9
		h30.6c1.6,0,2.9-1.3,2.9-2.9V221.9z M-112.2,262.7h-10.2c-0.8,0-1.5-0.7-1.5-1.5c0-0.8,0.7-1.5,1.5-1.5h10.2c0.8,0,1.5,0.7,1.5,1.5
		C-110.8,262.1-111.4,262.7-112.2,262.7"/>
	<path class="st4" d="M-124.2,27.2c-3.8,0-6.9-3.1-6.9-6.9c0-3.8,3.1-6.9,6.9-6.9c3.8,0,6.9,3.1,6.9,6.9
		C-117.3,24.1-120.4,27.2-124.2,27.2 M-124.2,15.5c-2.7,0-4.8,2.2-4.8,4.8c0,2.7,2.2,4.8,4.8,4.8c2.7,0,4.8-2.2,4.8-4.8
		C-119.4,17.7-121.6,15.5-124.2,15.5"/>
	<path class="st4" d="M-89.7,55.1h-42.7c-4,0-7.3-3.4-7.3-7.6v-35c0-4.2,3.3-7.6,7.3-7.6h42.7c4,0,7.3,3.4,7.3,7.6v35
		C-82.4,51.7-85.7,55.1-89.7,55.1 M-132.4,7c-2.9,0-5.2,2.5-5.2,5.5v35c0,3.1,2.3,5.5,5.2,5.5h42.7c2.9,0,5.2-2.5,5.2-5.5v-35
		c0-3.1-2.3-5.5-5.2-5.5H-132.4z"/>
	<path class="st4" d="M-137.9,50.4c-0.3,0-0.5-0.1-0.7-0.3c-0.4-0.4-0.4-1.1,0-1.5l12.2-12.2c1.4-1.4,3.2-2.1,5.2-2.1
		s3.8,0.8,5.2,2.1l6.6,6.6c0.4,0.4,0.4,1.1,0,1.5c-0.4,0.4-1.1,0.4-1.5,0l-6.6-6.6c-1-1-2.3-1.5-3.7-1.5c-1.4,0-2.7,0.5-3.7,1.5
		l-12.2,12.2C-137.4,50.3-137.6,50.4-137.9,50.4"/>
	<path class="st4" d="M-114.4,40.1c-0.3,0-0.5-0.1-0.7-0.3c-0.4-0.4-0.4-1.1,0-1.5l13.3-13.3c1.5-1.5,3.5-2.3,5.6-2.3
		c2.1,0,4.1,0.8,5.6,2.3l7.2,7.2c0.4,0.4,0.4,1.1,0,1.5c-0.4,0.4-1.1,0.4-1.5,0l-7.2-7.2c-1.1-1.1-2.6-1.7-4.1-1.7
		c-1.6,0-3,0.6-4.1,1.7l-13.3,13.3C-113.9,40-114.1,40.1-114.4,40.1"/>
	<path class="st4" d="M-77.7,116.2c-1.4-0.9-3.2-0.9-5,0l-13.3,6.4V120c0-3.9-3.2-7.1-7.1-7.1h-31c-3.9,0-7.1,2.8-7.1,6.1v27.9
		c0,4.1,1.8,7.1,4.3,7.1h2.9v-2.9h-2.9c-0.3,0-1.4-1.4-1.4-4.3V119c0-1.8,2-3.3,4.3-3.3h31c2.4,0,4.3,1.9,4.3,4.3v26.9
		c0,2.4-1.9,4.3-4.3,4.3h-22v2.9h22c3.9,0,7.1-3.2,7.1-7.1v-2.6l13.3,6.5c0.9,0.4,1.8,0.7,2.7,0.7c0.8,0,1.6-0.2,2.3-0.6
		c1.4-0.9,2.2-2.5,2.2-4.5v-25.4C-75.5,118.7-76.3,117.1-77.7,116.2 M-78.4,146.2c0,1-0.3,1.8-0.8,2.1c-0.5,0.3-1.4,0.3-2.2-0.2
		L-96,141v-15.2l14.5-7c0.9-0.4,1.7-0.5,2.3-0.2c0.5,0.3,0.8,1.1,0.8,2.1V146.2z"/>
	<path class="st4" d="M-133,123.2c0,1.1,0.9,2.1,2.1,2.1c1.1,0,2.1-0.9,2.1-2.1c0-1.1-0.9-2.1-2.1-2.1
		C-132.1,121.1-133,122-133,123.2"/>
	<rect x="-134.1" y="151.1" class="st4" width="11.4" height="2.9"/>
</g>
<path class="st5" d="M122.8,98.5l-14.4-83c-0.8-5.1-5.1-9.1-10.4-9.3H30.8c-5.4,0.2-9.8,4.3-10.4,9.5L5.9,98.5
	c-0.5,1.7-0.9,3.4-0.9,5.2c0,9.4,7.6,17,17,17h84.8c9.4,0,17-7.6,17-17C123.7,101.9,123.4,100.2,122.8,98.5 M29.1,14.7h70.5
	l12.7,73.1c-1.8-0.6-3.6-1-5.6-1H22c-2,0-3.8,0.4-5.6,1L29.1,14.7z M106.8,112.2H22c-4.7,0-8.5-3.8-8.5-8.5c0-4.7,3.8-8.5,8.5-8.5
	h84.8c4.7,0,8.5,3.8,8.5,8.5C115.3,108.4,111.5,112.2,106.8,112.2 M51.7,65.6h25.4c4.7,0,8.5-3.8,8.5-8.5s-3.8-8.5-8.5-8.5
	c0-7-5.7-12.7-12.7-12.7c-7,0-12.7,5.7-12.7,12.7c-4.7,0-8.5,3.8-8.5,8.5S47,65.6,51.7,65.6 M102.5,99.5c-2.3,0-4.2,1.9-4.2,4.2
	c0,2.3,1.9,4.2,4.2,4.2c2.3,0,4.2-1.9,4.2-4.2C106.8,101.4,104.9,99.5,102.5,99.5"/>
</svg>
