<?xml version="1.0" encoding="utf-8"?>
<!-- Generator: Adobe Illustrator 21.0.0, SVG Export Plug-In . SVG Version: 6.00 Build 0)  -->
<svg version="1.1" id="图层_1" xmlns="http://www.w3.org/2000/svg" xmlns:xlink="http://www.w3.org/1999/xlink" x="0px" y="0px"
	 viewBox="0 0 69.5 69.4" style="enable-background:new 0 0 69.5 69.4;" xml:space="preserve">
<style type="text/css">
	.st0{fill-rule:evenodd;clip-rule:evenodd;fill:#A9A9AA;}
</style>
<g>
	<path class="st0" d="M159.9-79.7l-30.8,12.5L98.3-79.7L129-91.6L159.9-79.7L159.9-79.7z M95.8-74.5l30.7,12.8V-27
		c-2.4-1.1-5-2.2-7.6-3.4c-2.3-1-4.8-2.1-7.6-3.3c-2.8-1.2-5.7-2.4-8.6-3.7c-1-0.5-2-1.1-2.8-1.9c-0.8-0.8-1.6-1.6-2.2-2.5
		c-0.6-0.9-1.1-1.9-1.4-2.9c-0.3-1-0.5-2-0.5-3L95.8-74.5L95.8-74.5L95.8-74.5z M161.8-74.5v26.7c0,1.2-0.2,2.4-0.7,3.6
		c-0.5,1.1-1.1,2.2-1.8,3.2c-0.7,1-1.5,1.9-2.4,2.7c-0.9,0.8-1.8,1.4-2.6,1.8c-2.5,1-5.1,2.1-7.8,3.2c-2.7,1.1-5.2,2.2-7.5,3.1
		c-2.7,1.1-5.3,2.2-7.9,3.2v-34.7L161.8-74.5L161.8-74.5z"/>
</g>
<g>
	<path class="st0" d="M66.3-42.8h-63c-3,0-5.5-2.5-5.5-5.5v-38.4c0-3,2.5-5.5,5.5-5.5h63c3,0,5.5,2.5,5.5,5.5v38.4
		C71.8-45.3,69.3-42.8,66.3-42.8L66.3-42.8z M34.4-46.9c1.5,0,2.7-1.2,2.7-2.7c0-1.5-1.2-2.7-2.7-2.7c-1.5,0-2.7,1.2-2.7,2.7
		C31.7-48.2,32.9-46.9,34.4-46.9L34.4-46.9z M66.3-86.7h-63v30.1h63V-86.7L66.3-86.7z M30.7-34.8h8.2v4.3l8.1,1.5v2.6H22.4v-2.7
		l8.2-1.4V-34.8L30.7-34.8z"/>
</g>
<g>
	<polygon class="st0" points="211.3,-55.5 219,-55.5 219,-25 211.3,-25 211.3,-55.5 	"/>
	<polygon class="st0" points="196.1,-44 203.7,-44 203.7,-25 196.1,-25 196.1,-44 	"/>
	<polygon class="st0" points="241.8,-63.1 249.4,-63.1 249.4,-25 241.8,-25 241.8,-63.1 	"/>
	<polygon class="st0" points="226.6,-47.9 234.2,-47.9 234.2,-25 226.6,-25 226.6,-47.9 	"/>
	<polygon class="st0" points="247.9,-93.6 245.6,-93.6 238,-93.6 234.2,-93.6 234.2,-85.9 240.5,-85.9 230,-75.1 213.4,-88.6 
		192.3,-68.3 192.3,-57.8 213.8,-78.5 230.6,-64.8 245.6,-80.3 245.6,-74.5 253.2,-74.5 253.2,-82.1 253.2,-85.9 253.2,-88.1 
		253.2,-93.6 247.9,-93.6 	"/>
</g>
<g>
	<path class="st0" d="M68.5,27l-4,3.9l-11-10.9l4-3.9c1.2-1.2,3.1-1.4,4.2-0.3l7.2,7C69.9,23.9,69.7,25.8,68.5,27L68.5,27L68.5,27
		L68.5,27 M51.6,21.9l11,10.8L36.4,58.6c-0.1,0.1-0.4,0.4-1,0.5c-0.1,0-0.1,0-0.2,0.1l-13.7,4.3c-0.3,0.1-0.8,0.1-1-0.2
		c-0.3-0.3-0.3-0.6-0.2-1l4.3-13.5c0-0.1,0-0.1,0.1-0.2c0.1-0.4,0.4-1,0.6-1l5-4.6H13.7c-0.7,0-1.3-0.8-1.3-1.4
		c0-0.7,0.6-1.5,1.3-1.5H33L51.6,21.9L51.6,21.9L51.6,21.9 M33,57.7L26.2,51l-1.8,5.6l2.9,2.9L33,57.7L33,57.7L33,57.7 M51.3,26.2
		c-0.3-0.3-1-0.3-1.4,0L29.3,46.3c-0.4,0.3-0.4,1,0,1.4c0.3,0.3,1,0.3,1.4,0l20.5-20.2C51.6,27.2,51.6,26.6,51.3,26.2L51.3,26.2
		L51.3,26.2L51.3,26.2 M5.5,65.5c-0.7,0-1.4-0.3-1.4-1V9.6c-0.1-1.3,0.8-1,1.7-1h4.8v1.8c0,0.7,0.8,1.3,1.6,1.3
		c0.7,0,1.6-0.6,1.6-1.3V8.6h7.1v1.8c0,0.7,0.8,1.3,1.6,1.3c0.7,0,1.6-0.6,1.6-1.3V8.6h6.5v1.8c0,0.7,0.8,1.3,1.6,1.3
		c0.7,0,1.6-0.6,1.6-1.3V8.6h6.5v1.8c0,0.7,0.8,1.3,1.6,1.3c0.7,0,1.6-0.6,1.6-1.3V8.6h5.5c0.7,0,1.1,0.3,1.1,1v9l4-3.9V9.6
		c0-2.9-2.2-5-5.1-5h-5.6V1.3c0-0.7-0.8-1.3-1.6-1.3c-0.7,0-1.6,0.6-1.6,1.3v3.4h-6.5V1.3C33.5,0.6,32.8,0,32,0
		c-0.7,0-1.6,0.6-1.6,1.3v3.4h-6.5V1.3c0-0.7-0.8-1.3-1.6-1.3c-0.7,0-1.6,0.6-1.6,1.3v3.4h-7.1V1.3c0-0.7-0.8-1.3-1.6-1.3
		c-0.7,0-1.6,0.6-1.6,1.3v3.4H5.8C1.9,4.7,0,6.8,0,9.6v54.8c0,2.9,2.6,5,5.6,5h43.1c3,0,5.1-2.1,5.1-5V45.5l-4,3.9v15.1
		c0,0.7-0.4,1-1.1,1L5.5,65.5z M39.6,19.6h-26c-0.7,0-1.2,0.9-1.2,1.5c0,0.7,0.5,1.5,1.2,1.5h26c0.7,0,1.2-0.9,1.2-1.5
		C40.8,20.4,40.3,19.6,39.6,19.6L39.6,19.6L39.6,19.6L39.6,19.6 M39.6,29.5h-26c-0.7,0-1.2,0.9-1.2,1.5c0,0.7,0.5,1.5,1.2,1.5h26
		c0.7,0,1.2-0.9,1.2-1.5C40.8,30.4,40.3,29.5,39.6,29.5L39.6,29.5L39.6,29.5L39.6,29.5 M39.6,29.5"/>
</g>
<g>
	<path class="st0" d="M116.7,60.8c-4.6-4.9-9.2-9.7-13.8-14.6c11.5-10.9,23.1-21.7,34.6-32.6c4.6,4.9,9.2,9.7,13.8,14.6
		C139.7,39.1,128.2,49.9,116.7,60.8L116.7,60.8L116.7,60.8z M138,34.2c-0.3-1.1-0.9-1.7-1.7-2.1c-0.7-0.4-1.2,0.1-1.7,0.6
		c-2.8,2.6-5.5,5.2-8.3,7.8c-3.5,3.3-7,6.6-10.5,9.9c-0.4,0.3-0.8,1.1-0.6,1.4c0.4,0.7,0.9,1.4,1.6,1.9c0.6,0.4,1.2-0.2,1.6-0.6
		c1.7-1.6,3.3-3.1,5-4.7c4.6-4.3,9.2-8.7,13.8-13C137.5,35,137.8,34.5,138,34.2L138,34.2L138,34.2z M144.8,27.6
		c-0.4-0.5-0.8-1-1.2-1.5c-0.6-0.7-1.3-0.7-2-0.1c-0.5,0.4-1,0.9-1.5,1.4c-0.4,0.4-0.7,0.9-0.2,1.5c0.5,0.7,0.9,1.8,2.1,1.6
		c0.2,0,0.3-0.1,0.5-0.2c0.6-0.6,1.3-1.1,1.9-1.8C144.5,28.4,144.5,28.1,144.8,27.6L144.8,27.6z M129.7,15.5
		c-1.9,1.8-3.7,3.5-5.6,5.3c-1,1-2.1,1.9-3,2.9c-0.5,0.5-0.9,0.4-1.4-0.1c-0.7-0.8-0.6-1.7,0.3-2.5c1.3-1.3,2.6-2.5,3.9-3.7
		c0.2-0.2,0.5-0.4,0.8-0.6c-0.5-0.6-0.9-0.9-1.3-1.4c-1.4,1.4-2.8,2.7-4.3,4.1c-1.1,1.1-2.1,1.2-2.9,0.4c-0.7-0.8-0.5-1.7,0.6-2.8
		c1.4-1.4,2.6-2.9,4-4.4c0.1,0.1,0.2,0.1,0.3,0.2c-0.4-0.4-0.7-0.8-1.2-1.2c-1.2,1.2-2.5,2.4-3.7,3.5c-0.3,0.3-0.6,0.6-0.9,0.9
		c-0.9,0.8-1.9,0.9-2.6,0.2c-0.7-0.7-0.6-1.7,0.3-2.6c1.2-1.1,2.3-2.3,3.5-3.4c0.3-0.3,0.7-0.6,1.2-1.1c-0.5-0.4-0.9-0.8-1.3-1.2
		c-1.4,1.4-2.8,2.7-4.2,4c-0.2,0.2-0.4,0.4-0.7,0.6c-0.7,0.6-1.6,0.6-2.3,0c-0.6-0.6-0.7-1.6,0-2.3c0.4-0.5,0.9-0.8,1.3-1.3
		c1.1-1.2,2.2-2.4,3.3-3.6c-0.7-0.9-2.4-1-3.6,0.2c-2.3,2.1-4.5,4.3-6.7,6.5c-1.2,1.1-2.3,2.2-3.5,3.4c-1.4,1.4-1.5,2.9-0.1,4.3
		c3.7,3.9,7.5,7.8,11.2,11.6c0.2,0.2,0.5,0.5,0.8,0.8c-1.1,1-2.1,2-3.1,3c-0.9-0.9-1.9-1.7-2.7-2.6c-4.2-4.4-8.5-8.8-12.7-13.2
		c-1.3-1.4-1.3-2.5,0.1-3.8c5.7-5.5,11.4-11,17.1-16.5c1.2-1.1,2.4-1.2,3.5,0c5.2,5.3,10.3,10.7,15.4,16
		C129.5,15.2,129.5,15.3,129.7,15.5L129.7,15.5L129.7,15.5z M148,40.9c-2.2,2.2-4.4,4.2-6.5,6.3c-0.5,0.5-1,1-1.5,1.4
		c-1,0.9-2.5,0.5-2.8-0.8c-0.1-0.4,0-1,0.3-1.2c3.8-3.6,7.6-7.2,11.4-10.8c0.1-0.1,0.1-0.1,0.3-0.1c2.1,2.2,4.3,4.4,6.4,6.6
		c2.5,2.6,4.9,5.1,7.4,7.7c1.3,1.3,1.3,2.5-0.1,3.8c-5.7,5.5-11.4,11-17,16.4c-1.4,1.3-2.5,1.3-3.8-0.1c-4.6-4.8-9.2-9.5-13.8-14.3
		c-0.1-0.1-0.2-0.2-0.3-0.4c1.1-1,2.1-2,2.9-2.7c1.7,1.5,3.3,2.9,4.9,4.4c2.2,2.1,4.2,4.3,6.3,6.5c1.2,1.3,2.8,1.3,4.1,0.1
		c3.4-3.3,6.9-6.6,10.3-9.9c1.2-1.1,1.4-2.7,0.3-3.8C153.9,46.9,151,44,148,40.9L148,40.9L148,40.9z M158.4,21.5
		c-4.7-5-9.2-9.8-13.8-14.7c2.1-1.9,4-3.8,6.1-5.5c1.6-1.3,4-0.9,5.6,0.7c2.6,2.7,5.1,5.4,7.7,8.1c1.6,1.7,1.8,4,0.4,5.6
		C162.5,17.8,160.4,19.6,158.4,21.5L158.4,21.5L158.4,21.5z M161.4,13.2c-2.8-3-5.6-5.9-8.4-8.9c-1,0.9-1.9,1.8-2.9,2.7
		c2.8,3,5.6,5.9,8.4,8.9C159.5,15,160.4,14.1,161.4,13.2L161.4,13.2L161.4,13.2z M100.9,48c4.6,4.9,9.1,9.7,13.8,14.6
		c-0.8,0.3-1.5,0.5-2.1,0.7c-5,1.6-9.9,3.1-14.9,4.7c-0.2,0.1-0.3,0.1-0.5,0.1c-0.9,0.3-1.8,0.2-2.4-0.5c-0.7-0.8-0.7-1.6-0.3-2.6
		c0.6-1.6,1.2-3.1,1.8-4.7c1.5-3.9,3-7.9,4.5-11.8C100.8,48.4,100.8,48.3,100.9,48L100.9,48L100.9,48z M109.9,61.4
		c-2.7-2.9-5.3-5.6-8-8.5c-0.9,2.3-1.7,4.4-2.5,6.6c-0.1,0.2,0.1,0.5,0.2,0.7c0.9,1,1.9,2,2.8,3c0.3,0.4,0.7,0.5,1.1,0.3
		c1-0.3,2.1-0.7,3.1-1C107.7,62.1,108.7,61.8,109.9,61.4L109.9,61.4L109.9,61.4z M139.1,12c1.3-1.3,2.6-2.5,4-3.8
		c4.6,4.9,9.2,9.7,13.8,14.6c-1.3,1.3-2.6,2.5-4,3.8C148.3,21.8,143.7,16.9,139.1,12L139.1,12L139.1,12z M141.3,53.4
		c0-3,2.4-5.5,5.5-5.6c3-0.1,5.6,2.4,5.6,5.5c0.1,3-2.5,5.5-5.5,5.6C143.9,59,141.4,56.5,141.3,53.4L141.3,53.4z M146.8,55.6
		c1.2,0,2.3-1,2.3-2.2c0-1.3-1-2.3-2.2-2.3c-1.2,0-2.2,1-2.2,2.2C144.6,54.6,145.6,55.6,146.8,55.6L146.8,55.6L146.8,55.6z"/>
</g>
</svg>
