<?xml version="1.0" encoding="utf-8"?>
<!-- Generator: Adobe Illustrator 21.0.0, SVG Export Plug-In . SVG Version: 6.00 Build 0)  -->
<svg version="1.1" id="图层_1" xmlns="http://www.w3.org/2000/svg" xmlns:xlink="http://www.w3.org/1999/xlink" x="0px" y="0px"
	 viewBox="0 0 22 22" style="enable-background:new 0 0 22 22;" xml:space="preserve">
<style type="text/css">
	.st0{fill-rule:evenodd;clip-rule:evenodd;fill:#FFFFFF;}
</style>
<path class="st0" d="M18.2,22H3.2c-1.7,0-3-1.3-3-3V4.1c0-1.7,1.4-3.3,3-3.3h8.4v1.5H3.3C2.4,2.3,1.7,3,1.7,3.8l0,15.2
	c0,0.8,0.7,1.5,1.5,1.5l15.2,0c0.8,0,1.5-0.7,1.5-1.5v-8.4h1.5V19C21.5,20.7,19.8,22,18.2,22 M20.7,7.6c-0.4,0-0.8-0.3-0.8-0.8
	l0-3.6l-11.6,11c-0.3,0.3-0.8,0.3-1.1,0c-0.3-0.3-0.3-0.8,0-1L18.8,2.3l-3.3,0c-0.4,0-0.8-0.3-0.8-0.8c0-0.4,0.3-0.8,0.8-0.8h5.3
	c0.4,0,0.8,0.3,0.8,0.7v5.3C21.5,7.3,21.2,7.6,20.7,7.6"/>
<path class="st0" d="M102-36.5c0-1.1,0.9-2,2-2h10.1c1.1,0,2,0.9,2,2v10.1c0,1.1-0.9,2-2,2H104c-1.1,0-2-0.9-2-2V-36.5z"/>
<path class="st0" d="M100.4-38c0-1.1,0.9-2,2-2h3.1c1.1,0,2-0.9,2-2v-3.1c0-1.1-0.9-2-2-2H95.4c-1.1,0-2,0.9-2,2V-35
	c0,1.1,0.9,2,2,2h3.1c1.1,0,2-0.9,2-2V-38z"/>
</svg>
