<?xml version="1.0" encoding="utf-8"?>
<!-- Generator: Adobe Illustrator 21.0.0, SVG Export Plug-In . SVG Version: 6.00 Build 0)  -->
<svg version="1.1" id="图层_1" xmlns="http://www.w3.org/2000/svg" xmlns:xlink="http://www.w3.org/1999/xlink" x="0px" y="0px"
	 viewBox="0 0 25 22" style="enable-background:new 0 0 25 22;" xml:space="preserve">
<style type="text/css">
	.st0{fill-rule:evenodd;clip-rule:evenodd;fill:#FFFFFF;}
</style>
<path class="st0" d="M1.3,8.3H24c0.6,0,1.1-0.5,1.1-1.1v0c0-0.4-0.2-0.7-0.5-0.9l-8.5-6c-0.5-0.3-1.1-0.2-1.5,0.3
	c-0.3,0.5-0.2,1.1,0.2,1.5l5.8,4.1H1.3c-0.6,0-1.1,0.5-1.1,1.1C0.2,7.8,0.7,8.3,1.3,8.3 M24,13.3H1.3c-0.6,0-1.1,0.5-1.1,1.1v0
	c0,0.4,0.2,0.7,0.5,0.9l8.5,6c0.2,0.2,0.5,0.2,0.8,0.2c0.3,0,0.5-0.2,0.7-0.4c0.2-0.2,0.2-0.5,0.2-0.8c0-0.3-0.2-0.5-0.4-0.7
	l-5.8-4.1H24c0.6,0,1.1-0.5,1.1-1.1S24.6,13.3,24,13.3"/>
</svg>
